<svg width="1322" height="794" viewBox="0 0 1322 794" fill="none" xmlns="http://www.w3.org/2000/svg">
<g clip-path="url(#clip0_265_9759)">
<mask id="mask0_265_9759" style="mask-type:alpha" maskUnits="userSpaceOnUse" x="4" y="0" width="1382" height="794">
<path d="M1364.25 413.474C1364.37 374.787 1371.64 338.027 1386 303.241C1347.3 284.738 1306.17 268.991 1272.47 241.201C1231.36 207.268 1209.73 151.493 1175.47 110.345C1114.08 36.5555 1035.51 -5.59249 933.445 0.599284C838.033 6.37665 760.177 60.6156 707.387 136.258C668.91 191.399 636.358 254.852 578.374 288.858C525.584 319.817 457.262 322.45 411.787 363.428C381.527 390.681 366.215 430.977 338.393 460.717C304.647 496.77 255.978 513.981 209.625 530.996C150.178 552.838 95.0718 578.531 66.8603 638.377C49.353 675.527 38.2098 714.58 23.7017 752.852C18.2155 767.331 11.4125 780.885 4 794H1364.25V413.474Z" fill="url(#paint0_radial_265_9759)"/>
</mask>
<g mask="url(#mask0_265_9759)">
<path d="M1330.38 -101.339H-8.54773V789.465H1330.38V-101.339Z" fill="url(#paint1_linear_265_9759)"/>
<path d="M1072.59 470.023C1075.27 469.132 1163.81 461.827 1205.23 462.718C1246.65 463.609 1351.8 463.609 1351.8 463.609C1351.8 463.609 1354.48 452.563 1346.26 448.822C1338.05 445.08 1311.27 437.776 1300.21 442.408C1289.14 447.04 1271.64 444.19 1271.64 444.19C1271.64 444.19 1275.39 416.575 1255.93 417.465C1236.65 418.356 1218.09 428.511 1211.66 434.034C1205.23 439.557 1185.77 444.19 1185.77 444.19C1185.77 444.19 1165.42 434.034 1151.67 441.517C1137.93 448.822 1115.79 452.563 1115.79 452.563L1072.59 470.023Z" fill="url(#paint2_linear_265_9759)"/>
<path d="M228.888 426.195C228.888 426.195 413.481 405.529 500.422 419.96C587.541 434.391 740.893 440.626 740.893 440.626L908.883 432.431C908.883 432.431 763.744 465.569 655.916 457.195C548.088 449 363.673 432.431 363.673 432.431L228.888 426.195Z" fill="url(#paint3_linear_265_9759)"/>
<path d="M21.6227 378.626C27.871 378.626 129.451 370.431 282.802 351.724C436.154 333.017 628.602 354.931 757.495 331.057C886.389 307.184 1533 223.448 1533 223.448C1533 223.448 1491.58 229.684 1394.11 275.115C1296.64 320.546 1097.58 355.822 996.002 368.293C894.423 380.764 653.952 380.764 531.663 380.764C409.375 380.764 316.007 372.569 280.838 378.626C245.491 384.684 21.6227 378.626 21.6227 378.626Z" fill="url(#paint4_linear_265_9759)"/>
<path d="M94.1031 59.8964C94.1031 59.8964 192.291 28.1838 240.671 22.6608C289.05 17.1378 378.848 4.6665 425.799 -3.5289C472.751 -11.7243 634.493 -44.8622 680.195 -53.2358C725.718 -61.4312 811.409 -82.276 829.44 -89.0461C847.471 -95.9944 971.723 -131.805 971.723 -131.805C971.723 -131.805 941.374 -130.379 919.237 -129.132C897.1 -127.707 868.18 -137.328 851.577 -129.132C834.974 -120.937 807.303 -107.04 807.303 -107.04C807.303 -107.04 764.458 -101.517 756.246 -94.5691C748.034 -87.6209 734.109 -90.4714 734.109 -90.4714C734.109 -90.4714 731.431 -142.851 685.729 -116.661C640.206 -90.4714 620.746 -64.2818 620.746 -64.2818C620.746 -64.2818 580.579 -61.6094 561.298 -54.6611C542.018 -47.7128 501.85 -42.1898 483.819 -39.5174C465.788 -36.845 429.905 -35.4197 416.159 -24.3737C402.413 -13.3277 369.207 -10.6553 369.207 -10.6553C369.207 -10.6553 226.924 15.5343 199.253 22.4826C171.582 29.609 94.1031 59.8964 94.1031 59.8964Z" fill="url(#paint5_linear_265_9759)"/>
<path d="M-53 324.109C-53 324.109 478.999 215.431 575.045 193.339C671.09 171.247 886.746 98.9137 886.746 98.9137L993.681 58.4712C993.681 58.4712 730.717 114.948 697.154 126.529C663.592 137.931 438.653 174.988 438.653 174.988C438.653 174.988 360.638 149.868 345.642 161.983C330.825 173.919 311.544 192.092 284.587 195.477C257.63 198.506 169.618 231.287 117.133 248.391C64.8253 265.494 40.3676 250.35 16.8026 276.54C-6.7625 302.73 -31.7557 306.115 -31.7557 306.115L-53 324.109Z" fill="url(#paint6_linear_265_9759)"/>
<path d="M414.017 342.46C414.017 342.46 581.65 361.345 1001.71 320.546C1140.07 307.184 1413.21 243.224 1413.21 243.224C1413.21 243.224 1451.24 175.345 1430.88 150.402C1410.53 125.46 1347.69 91.9653 1322.88 91.609C1297.88 91.2527 1230.4 125.103 1225.58 134.546C1220.76 143.81 1197.2 202.069 1197.2 202.069C1197.2 202.069 1165.24 163.408 1105.79 163.408C1046.17 163.408 1053.13 261.931 1053.13 261.931C1053.13 261.931 997.073 225.764 968.867 238.414C940.66 251.241 934.769 280.103 934.769 280.103C934.769 280.103 948.694 190.845 862.467 176.414C776.24 161.983 717.863 240.908 733.038 262.643C748.034 284.379 761.066 296.494 761.066 296.494C761.066 296.494 731.074 269.414 715.007 280.816C698.94 292.04 696.976 301.661 696.976 301.661C696.976 301.661 691.977 254.27 642.705 266.029C593.432 277.787 590.219 303.799 600.752 311.46C611.285 319.12 581.65 307.362 562.012 311.46C542.375 315.557 537.376 327.672 537.376 327.672L414.017 342.46Z" fill="url(#paint7_linear_265_9759)"/>
<path d="M596.646 406.419C596.646 406.419 867.465 395.373 967.795 386.822C1068.13 378.27 1201.13 356.712 1201.13 356.712L1097.4 354.04C1097.4 354.04 1213.8 331.414 1253.08 325.712C1292.17 320.011 1424.46 288.655 1424.46 288.655C1424.46 288.655 1376.97 293.822 1356.8 285.626C1336.62 277.431 1297.88 254.092 1276.28 266.563C1254.68 279.034 1243.61 300.414 1243.61 300.414C1243.61 300.414 1231.65 251.241 1183.45 246.609C1135.25 241.977 1083.12 256.586 1069.02 280.46C1054.91 304.333 1059.02 326.781 1059.02 326.781C1059.02 326.781 1042.95 296.672 1013.32 305.758C983.684 314.845 977.614 342.103 977.614 342.103C977.614 342.103 977.971 295.069 915.667 295.069C853.362 295.069 827.655 346.914 827.655 346.914C827.655 346.914 796.056 343.707 794.985 358.85C793.914 373.994 798.913 383.971 798.913 383.971C798.913 383.971 771.42 360.098 746.427 361.166C721.433 362.235 711.436 386.465 711.436 386.465L596.646 406.419Z" fill="url(#paint8_linear_265_9759)"/>
<path d="M-23.3651 550.908C-17.8309 549.483 2.87777 553.58 56.7918 538.437C110.706 523.293 89.9971 553.58 114.812 542.534C139.627 531.488 178.366 501.201 194.969 516.345C211.571 531.667 213 544.138 213 544.138C213 544.138 405.091 544.138 453.47 542.713C501.85 541.287 566.832 545.385 600.038 541.287C633.243 537.19 680.195 538.615 695.369 535.764C710.544 533.092 730.003 520.621 758.923 520.621C788.023 520.621 788.023 528.816 819.8 533.092C851.577 537.19 905.491 538.615 905.491 538.615C905.491 538.615 858.539 527.569 864.074 522.046C869.608 516.523 898.707 508.327 915.131 512.425C931.734 516.523 945.48 537.19 945.48 537.19L966.189 546.81L1201.13 550.908L700.725 573L-38.5396 582.621L-23.3651 550.908Z" fill="url(#paint9_linear_265_9759)"/>
<path d="M119.096 258.546C119.096 258.546 546.124 173.029 601.466 160.557C656.808 148.086 1039.56 41.9021 1039.56 41.9021C1039.56 41.9021 1009.21 10.1895 967.617 18.3849C926.2 26.5803 902.635 54.1952 902.635 54.1952C902.635 54.1952 909.597 -25.799 848.721 -24.3738C787.844 -22.9485 746.427 33.5285 751.961 70.7642C751.961 70.7642 718.756 55.6205 691.085 72.1895C663.413 88.7584 666.27 110.85 666.27 110.85C666.27 110.85 646.989 101.23 628.958 106.753C610.928 112.276 605.393 131.517 605.393 131.517C605.393 131.517 548.802 131.517 530.771 148.086C530.771 148.086 538.983 125.994 519.702 124.569C500.422 123.143 478.285 138.287 478.285 138.287C478.285 138.287 487.925 112.098 467.216 119.046C467.216 119.046 510.062 34.9538 435.439 41.7239C360.817 48.6722 316.543 136.862 347.07 179.62C347.07 179.62 316.721 156.103 306.903 175.523C297.262 194.764 304.225 203.138 304.225 203.138C304.225 203.138 275.126 187.994 259.951 197.615C244.777 207.235 230.852 222.379 230.852 222.379L119.096 258.546Z" fill="url(#paint10_linear_265_9759)"/>
<path d="M-39.9678 36.5574C-39.9678 36.5574 199.075 -26.8679 326.362 -47.5346C453.649 -68.2013 667.698 -130.379 667.698 -130.379C667.698 -130.379 653.952 -144.098 563.976 -138.575C474 -133.052 313.865 -79.4254 313.865 -79.4254C313.865 -79.4254 347.07 -101.517 294.585 -119.512C242.099 -137.506 195.147 -120.937 175.688 -102.943C156.408 -84.9484 149.445 -62.8564 149.445 -62.8564C149.445 -62.8564 136.949 -76.5748 114.812 -62.8564C92.6749 -49.1381 78.9286 -28.2932 74.6441 -28.2932C70.3595 -28.2932 48.4012 -35.2415 24.8361 -20.0978C1.27105 -4.95413 -18.0095 17.1378 -18.0095 17.1378L-39.9678 36.5574Z" fill="url(#paint11_linear_265_9759)"/>
<path d="M649.667 189.598C649.667 189.598 680.016 146.839 702.153 142.741C724.29 138.644 736.787 144.167 736.787 144.167C736.787 144.167 728.575 123.5 778.204 101.408C827.833 79.316 828.012 108.356 828.012 108.356C828.012 108.356 850.149 93.2126 852.827 98.7356C855.505 104.259 875.678 105.862 875.678 105.862C875.678 105.862 890.138 65.5976 920.487 62.7471C950.836 60.0746 963.333 68.2701 963.333 68.2701C963.333 68.2701 986.898 10.3677 1019.92 11.793C1053.13 13.2183 1079.37 22.839 1079.37 22.839C1079.37 22.839 1126.32 6.27005 1140.25 -1.92535C1154 -10.1208 1218.98 -7.44834 1218.98 -7.44834L1283.96 -3.35064L961.904 90.362L649.667 189.598Z" fill="url(#paint12_linear_265_9759)"/>
<path d="M1346.44 564.092H-14.9747V813.339H1346.44V564.092Z" fill="url(#paint13_linear_265_9759)"/>
<path d="M1346.44 564.092V580.661C1317.7 578.166 1277 574.781 1257.9 573.891C1226.83 572.465 1003.5 568.368 1003.5 568.368L1021.17 564.092H1346.44Z" fill="#D38289"/>
<path d="M388.488 763.988L212.285 783.942C212.285 783.942 94.8172 805.322 80.3568 810.132C78.036 810.845 75.0011 811.914 71.4307 813.161H-14.9745V812.092C16.9811 804.965 88.7474 788.931 120.525 782.517C161.942 774.322 238.707 763.988 251.204 763.988C263.7 763.988 305.832 763.276 320.292 762.563C334.574 762.029 388.488 763.988 388.488 763.988Z" fill="#A85875"/>
<path d="M312.437 623.598C312.437 623.598 345.642 622.707 380.633 623.598C415.623 624.488 451.507 626.27 485.604 625.379C519.702 624.488 576.83 629.121 584.149 629.121C591.469 629.121 607.179 629.121 607.179 629.121L541.839 635.534L424.907 639.276L294.049 637.494L204.609 629.299L312.437 623.598Z" fill="#A85875"/>
<path d="M164.084 613.442C164.084 613.442 103.208 629.12 77.5005 633.753C61.0763 636.603 15.7314 638.028 -15.1531 638.741V614.155C3.9489 613.799 35.726 613.264 55.3636 612.551C84.9984 611.661 164.084 613.442 164.084 613.442Z" fill="#A85875"/>
<path d="M1346.44 625.557V662.258L867.287 650.322L749.462 650.678L730.003 651.569C730.003 651.569 666.448 652.281 642.169 650.856C617.89 649.431 618.426 639.097 618.426 639.097L685.015 638.385L763.744 636.247L801.591 638.563L1025.64 622.35L1301.1 624.132L1346.44 625.557Z" fill="#D38289"/>
<path d="M722.505 743.144L677.16 765.235C677.16 763.454 676.624 762.563 675.553 762.385C664.485 761.494 497.744 757.753 473.822 756.862C449.9 755.971 242.634 774.322 191.934 779.845C155.337 783.764 43.9381 802.827 -14.9745 812.983V784.477C46.4374 777.529 206.216 760.069 252.632 757.753C310.652 755.08 390.809 749.557 422.229 748.488C453.47 747.598 556.835 740.293 588.077 740.293C619.318 740.471 722.505 743.144 722.505 743.144Z" fill="#D38289"/>
<path d="M1346.44 587.965V614.155C1251.11 613.264 1006.71 610.948 981.542 611.661C950.3 612.551 774.276 611.661 774.276 611.661L859.075 604.356C859.075 604.356 971.545 602.575 1001.89 599.724C1032.24 597.052 1094.9 594.201 1094.9 594.201L1016.53 590.46C1016.53 590.46 881.033 593.31 846.935 591.35C812.837 589.569 529.878 605.069 487.568 601.506C445.08 597.764 337.43 605.247 337.43 605.247C337.43 605.247 147.66 605.247 115.347 603.465C93.5675 602.218 26.6213 601.862 -14.9745 601.684V582.086C19.4804 581.017 70.181 579.235 80.3568 578.523C96.0669 577.632 606.465 587.787 606.465 587.787C606.465 587.787 1109.54 575.85 1132.57 575.85C1148.46 575.85 1271.64 583.333 1346.44 587.965Z" fill="#D38289"/>
<path d="M1346.44 577.454V597.942C1312.35 595.448 1254.86 590.994 1239.86 589.569C1218.44 587.431 1055.45 581.373 1055.45 581.373L988.326 579.235C988.326 579.235 1051.17 574.425 1060.98 573.712C1063.13 573.534 1201.3 575.85 1223.44 575.138C1245.58 574.425 1338.77 577.276 1338.77 577.276L1346.44 577.454Z" fill="#A85875"/>
<path d="M1346.44 618.431V642.839C1303.42 639.276 1235.22 634.465 1203.27 637.316C1154.89 641.413 1033.31 635.89 1033.31 635.89L912.453 628.942C912.453 628.942 1060.98 616.471 1094.9 617.896C1128.82 619.322 1217.91 620.034 1228.97 619.322C1240.04 618.609 1318.77 617.184 1318.77 617.184L1346.44 618.431Z" fill="#A85875"/>
<path d="M1346.44 588.143V607.029C1329.84 605.247 1308.42 603.109 1298.78 602.753C1281.46 602.04 1259.32 600.08 1220.05 599.368C1180.6 598.655 1104.01 597.23 1104.01 597.23C1104.01 597.23 1248.43 585.471 1280.21 584.758C1299.13 584.402 1327.16 586.362 1346.44 588.143Z" fill="#A85875"/>
<path d="M249.775 646.58C249.775 646.58 372.242 652.994 411.874 652.103C451.507 651.213 485.604 657.626 535.412 661.368C585.22 665.109 675.553 664.04 675.553 664.04L1089.19 655.845L1078.12 676.155C1078.12 676.155 822.835 701.988 771.242 700.029C719.648 698.247 427.584 687.201 427.584 687.201L55.3636 657.626C55.3636 657.626 225.853 646.58 249.775 646.58Z" fill="#D38289"/>
<path d="M622.175 680.609C622.175 680.609 783.381 673.304 811.945 674.195C840.509 675.086 893.887 675.977 893.887 675.977L859.789 694.327C859.789 694.327 735.001 689.695 716.614 688.448C698.404 687.201 622.175 680.609 622.175 680.609Z" fill="#A85875"/>
<path d="M707.866 710.005L598.253 705.373C598.253 705.373 492.388 704.482 469.18 703.592C446.151 702.701 368.672 704.482 345.642 703.592C322.613 702.701 83.0347 704.482 47.1515 705.373C27.6925 705.908 3.77039 705.195 -14.9745 704.661V677.937L439.724 682.391C439.724 682.391 458.29 684.172 478.999 686.31C496.851 688.27 516.132 690.23 526.486 691.477C548.445 694.327 707.866 710.005 707.866 710.005Z" fill="#D38289"/>
<path d="M175.153 798.373C177.83 798.373 248.883 787.328 286.73 782.695C324.577 778.063 356.711 768.977 376.17 768.977C395.629 768.977 438.831 764.345 438.831 764.345H505.242L431.512 809.419L175.153 798.373Z" fill="#FFDD9F"/>
<path d="M573.081 679.896C573.081 679.896 517.739 683.281 501.136 683.994C495.245 684.172 487.568 685.241 478.821 686.31C462.932 688.448 443.83 691.655 426.513 692.902C399.556 695.04 301.369 695.574 287.622 692.902C273.697 690.051 217.82 691.477 186.757 690.051C155.694 688.626 65.8965 690.764 27.871 692.189C12.518 692.724 -2.47793 691.477 -14.9745 689.695V664.396L316.722 663.149C316.722 663.149 378.848 670.81 396.878 671.345C414.909 672.057 464.539 678.293 485.962 677.58C507.384 677.224 573.081 679.896 573.081 679.896Z" fill="#FFDD9F"/>
<path d="M1048.13 564.092L-14.9747 577.632V564.092H1048.13Z" fill="#FFDD9F"/>
<path d="M596.824 564.092C432.047 565.695 227.103 567.655 210.322 567.655C185.685 567.655 27.6924 569.793 -14.9747 570.327V564.27H596.824V564.092Z" fill="white"/>
<path d="M509.705 585.827C509.705 585.827 377.062 592.241 370.1 593.488C363.138 594.735 226.746 587.609 203.716 584.046C183.543 580.839 25.9073 587.431 -15.1531 588.5V581.017L-6.40544 580.304C-6.40544 580.304 129.986 574.781 152.123 573C174.26 571.218 234.065 576.741 256.202 575.85C278.339 574.959 509.705 585.827 509.705 585.827Z" fill="#FFDD9F"/>
<path d="M276.554 613.264C276.554 613.264 374.206 607.741 399.021 608.988C424.014 610.414 484.89 613.799 517.025 613.086C549.337 612.373 624.853 612.73 624.853 612.73C624.853 612.73 512.561 617.718 487.568 618.253C462.753 618.787 376.884 614.868 366.708 614.155C356.711 613.442 276.554 613.264 276.554 613.264Z" fill="#FFDD9F"/>
<path d="M21.2657 595.092C26.7999 595.092 135.521 591.35 135.521 591.35C135.521 591.35 211.036 587.609 225.853 590.46C240.671 593.132 365.994 596.873 365.994 596.873C365.994 596.873 261.022 594.201 230.495 595.092C200.146 595.983 94.9957 599.724 94.9957 599.724L21.2657 595.092Z" fill="#FFDD9F"/>
<path d="M45.7233 594.201C45.7233 594.201 137.484 593.31 143.376 593.666C149.445 594.201 225.853 592.241 229.602 592.241C233.351 592.241 276.197 590.816 276.197 590.816C276.197 590.816 181.222 588.5 164.62 589.034C148.017 589.569 45.7233 594.201 45.7233 594.201Z" fill="white"/>
<path d="M577.722 718.023C524.88 717.31 417.23 718.201 354.925 732.988C270.127 753.299 230.495 743.143 207.465 738.511C184.436 733.879 103.386 731.207 85.8911 732.988C73.7515 734.235 18.2308 738.689 -14.9745 741.184V722.655C48.2227 719.983 200.503 713.569 300.654 710.006C369.029 707.689 484.533 712.678 577.722 718.023Z" fill="#D38289"/>
<path d="M402.056 721.942C402.056 721.942 365.458 719.804 345.999 719.804C326.719 719.804 324.577 717.666 290.479 716.597C256.381 715.528 250.489 718.379 225.675 720.339C200.86 722.477 173.903 723.724 173.903 723.724L106.957 727.109L171.225 728.534C171.225 728.534 213.357 737.442 229.245 738.155C245.134 738.868 266.557 744.391 285.837 742.253C305.118 740.115 318.328 737.442 346.713 731.919C375.099 726.396 418.658 724.258 418.658 724.258L402.056 721.942ZM219.962 732.276C213.357 732.276 197.825 727.465 197.825 727.465C197.825 727.465 211.036 726.396 218.177 726.753C225.496 727.109 233.351 728.178 233.708 729.425C234.065 731.029 226.389 732.276 219.962 732.276Z" fill="#FFDD9F"/>
<path d="M632.708 635.178C632.708 635.178 618.426 637.85 618.426 639.276C618.426 640.701 628.602 645.333 635.921 645.333C643.24 645.333 669.126 645.868 679.659 646.759C690.192 647.649 709.651 646.759 719.291 646.759C728.932 646.759 744.106 643.017 751.604 642.126C758.924 641.236 775.526 637.494 775.526 637.494C775.526 637.494 757.138 634.822 746.427 635.178C735.894 635.713 705.01 635.713 705.01 635.713L654.844 633.931L632.708 635.178Z" fill="#FFDD9F"/>
<path d="M789.808 631.436C791.236 631.436 805.518 630.902 818.372 630.546C831.225 630.011 846.043 630.011 846.043 630.011L820.692 634.643L789.808 631.436Z" fill="#FFDD9F"/>
<path d="M827.119 583.689C827.119 583.689 846.935 582.264 867.644 581.908C888.353 581.373 915.131 581.373 915.131 581.373L961.726 579.948C961.726 579.948 900.492 584.046 892.102 584.58C883.711 584.937 827.119 583.689 827.119 583.689Z" fill="#FFDD9F"/>
<path d="M608.785 718.735L720.184 727.287C704.474 726.218 647.346 722.12 577.722 718.201C596.824 718.201 608.785 718.735 608.785 718.735Z" fill="#D38289"/>
<path d="M720.184 727.109L722.326 727.287C721.612 727.287 720.898 727.287 720.184 727.109Z" fill="#D38289"/>
<path d="M74.1085 579.948C74.1085 579.948 111.777 579.592 122.488 578.879C133.2 578.166 152.837 579.235 165.691 579.235C178.545 579.235 227.46 577.454 227.46 577.454C227.46 577.454 171.404 576.385 161.406 576.385C151.409 576.385 102.672 577.81 102.672 577.81L74.1085 579.948Z" fill="white"/>
<path d="M565.047 587.253C565.047 587.253 634.136 584.58 648.06 584.58C661.807 584.58 690.906 582.799 697.333 583.155C703.76 583.69 732.859 584.58 732.859 584.58C732.859 584.58 665.556 586.362 655.38 586.896C645.204 587.253 565.047 587.253 565.047 587.253Z" fill="white"/>
<path d="M507.92 602.04C507.92 602.04 529.164 600.259 538.804 600.259C548.445 600.259 579.329 598.833 579.329 598.833L542.91 602.575L507.92 602.04Z" fill="white"/>
<path d="M246.205 746.885C246.205 746.885 114.812 750.983 81.0709 758.644C60.0052 763.276 15.5529 771.827 -14.9745 777.529V750.626C12.161 749.201 49.4723 747.241 70.0025 745.638C103.922 742.965 152.837 744.925 174.26 743.5C195.683 742.075 246.205 746.885 246.205 746.885Z" fill="#A85875"/>
<path d="M1353.23 635.178V810.31L670.376 802.471L525.772 800.867L422.764 799.62L386.881 799.264H382.954C382.954 799.264 383.668 798.908 385.096 798.373C386.346 797.839 387.952 797.126 390.273 796.413C390.63 796.235 390.987 796.235 391.166 796.057C391.701 795.879 392.415 795.523 392.951 795.344C393.486 795.166 393.844 794.988 394.379 794.81C395.629 794.454 396.7 793.919 398.128 793.385C398.842 793.207 399.556 792.85 400.092 792.494C402.591 791.425 405.448 790.356 408.482 789.287C409.554 788.931 410.803 788.396 411.874 787.862C412.053 787.862 412.41 787.683 412.588 787.505C414.374 786.793 416.159 786.08 418.123 785.367C419.908 784.655 421.872 783.942 424.014 783.051C425.264 782.517 426.513 782.16 427.763 781.626C427.941 781.626 428.12 781.448 428.12 781.448C432.226 779.844 436.689 778.241 441.331 776.459C441.331 776.459 441.331 776.459 441.509 776.459C443.116 775.925 444.723 775.212 446.329 774.678C447.936 773.965 449.721 773.431 451.328 772.718C454.541 771.471 458.112 770.224 461.504 768.977C463.468 768.264 465.431 767.551 467.395 766.839C469.002 766.304 470.608 765.592 472.394 765.057C473.643 764.701 474.715 764.166 475.964 763.81C477.928 763.097 479.892 762.385 481.855 761.672C482.57 761.494 483.105 761.138 483.819 760.959C485.783 760.247 487.747 759.534 489.71 758.821C491.139 758.287 492.567 757.752 493.995 757.218C499.529 755.258 505.242 753.12 511.133 751.161C512.919 750.626 514.525 749.913 516.31 749.379C517.739 748.844 519.345 748.31 520.774 747.775C526.486 745.816 532.378 743.678 538.447 741.718C539.161 741.54 539.876 741.184 540.768 741.005C545.053 739.58 549.159 738.155 553.443 736.729C556.121 735.839 558.799 734.948 561.477 734.057C566.118 732.454 570.76 731.028 575.402 729.425C586.113 725.862 597.181 722.298 608.428 718.735C612.177 717.488 616.105 716.241 620.032 715.172C623.067 714.281 626.102 713.212 629.137 712.321C631.815 711.431 634.314 710.718 636.992 710.005C638.956 709.471 640.92 708.758 642.883 708.224C645.383 707.511 648.061 706.62 650.56 705.908C654.309 704.839 657.879 703.77 661.628 702.701C663.949 701.988 666.27 701.275 668.591 700.741C684.479 696.109 700.546 691.655 716.613 687.379C720.541 686.31 724.469 685.241 728.575 684.35C730.003 683.994 731.609 683.638 733.038 683.281C735.537 682.569 738.036 682.034 740.536 681.321C748.569 679.362 756.603 677.402 764.636 675.442C804.982 666 844.258 658.695 880.141 654.597C1076.87 632.327 1353.23 635.178 1353.23 635.178Z" fill="#A31410"/>
<path d="M1353.23 635.177V700.563C1317.52 697.712 1263.79 694.861 1207.2 696.465C1108.65 699.137 916.024 717.666 907.812 707.511C899.6 697.356 932.627 690.051 932.627 690.051C932.627 690.051 898.529 692.723 818.372 704.838C751.426 714.815 580.4 780.022 525.772 801.223L422.764 799.976L386.881 799.62H382.954C382.954 799.62 383.668 799.264 385.096 798.729C406.697 789.999 585.935 718.735 752.318 678.649C756.603 677.58 760.887 676.689 764.993 675.62C805.34 666.177 844.615 658.873 880.498 654.775C1076.87 632.327 1353.23 635.177 1353.23 635.177Z" fill="#BA4712"/>
<path d="M1222.53 669.753C1222.91 665.145 1213.75 660.618 1202.06 659.643C1190.36 658.667 1180.57 661.612 1180.19 666.221C1179.8 670.829 1188.97 675.356 1200.66 676.331C1212.35 677.307 1222.14 674.362 1222.53 669.753Z" fill="#FFAE6E"/>
<path d="M1353.23 732.988V810.31L670.376 802.471C721.077 790.178 814.266 768.264 855.683 761.316C874.964 758.109 909.24 752.942 949.408 747.419C946.908 744.569 945.48 741.54 945.48 738.511C945.48 714.103 1030.28 694.327 1134.89 694.327C1224.69 694.327 1299.85 708.937 1319.31 728.356C1332.52 729.96 1344.12 731.563 1353.23 732.988Z" fill="#6B0421"/>
<path d="M852.5 776.267C882.45 772.639 905.352 758.375 903.653 744.407C901.954 730.439 876.298 722.057 846.348 725.685C816.398 729.313 793.496 743.578 795.195 757.545C796.894 771.513 822.55 779.895 852.5 776.267Z" fill="#6B0421"/>
<path d="M763.744 747.42C765.707 754.902 758.209 763.454 746.962 766.483C735.715 769.511 725.004 765.77 723.04 758.109C721.077 750.626 728.574 742.075 739.821 739.046C751.068 736.017 761.78 739.759 763.744 747.42Z" fill="#6B0421"/>
<path d="M1102.58 661.368C1051.7 661.546 908.526 663.862 798.913 681.678C686.086 700.029 486.318 775.213 422.764 799.799L386.881 799.442L385.096 798.552C386.345 798.017 387.952 797.304 390.273 796.592C390.63 796.414 390.987 796.414 391.166 796.235C391.701 796.057 392.415 795.701 392.951 795.523C393.486 795.345 393.843 795.167 394.379 794.988C395.629 794.632 396.7 794.098 398.128 793.563C398.842 793.207 399.556 793.029 400.092 792.672C402.591 791.603 405.447 790.534 408.482 789.465C409.554 789.109 410.803 788.575 411.874 788.04C412.053 788.04 412.41 787.862 412.588 787.684C414.374 786.971 416.159 786.258 418.123 785.546C419.908 784.833 421.872 784.121 424.014 783.23C425.264 782.695 426.513 782.339 427.763 781.804C427.941 781.804 428.12 781.626 428.12 781.626C432.226 780.023 436.689 778.419 441.331 776.638C441.331 776.638 441.331 776.638 441.509 776.638C443.116 776.103 444.723 775.391 446.329 774.856C447.936 774.144 449.721 773.609 451.328 772.896C454.541 771.649 458.112 770.402 461.504 769.155C463.468 768.442 465.431 767.73 467.395 767.017C469.002 766.483 470.608 765.77 472.394 765.236C473.643 764.879 474.714 764.345 475.964 763.988C477.928 763.276 479.892 762.563 481.855 761.85C482.569 761.672 483.105 761.316 483.819 761.138C485.783 760.425 487.747 759.713 489.71 759C491.139 758.465 492.567 757.931 493.995 757.396C499.529 755.437 505.242 753.299 511.133 751.339C512.918 750.804 514.525 750.092 516.31 749.557C517.739 749.023 519.345 748.488 520.773 747.954C526.486 745.994 532.377 743.856 538.447 741.896C539.161 741.718 539.875 741.362 540.768 741.184C545.053 739.758 549.159 738.333 553.443 736.908C556.121 736.017 558.799 735.126 561.477 734.236C566.118 732.632 570.76 731.207 575.402 729.603C586.113 726.04 597.181 722.477 608.428 718.914C612.177 717.667 616.105 716.419 620.032 715.35C623.067 714.46 626.102 713.391 629.137 712.5C631.815 711.609 634.314 710.896 636.992 710.184C638.956 709.649 640.92 708.937 642.883 708.402C645.383 707.69 648.06 706.799 650.56 706.086C654.309 705.017 657.879 703.948 661.628 702.879C663.949 702.167 666.27 701.454 668.591 700.919C684.479 696.287 700.546 691.833 716.613 687.557C720.541 686.488 724.468 685.419 728.574 684.529C730.003 684.172 731.609 683.816 733.037 683.46C735.537 682.747 738.036 682.213 740.535 681.5C748.569 679.54 756.603 677.58 764.636 675.621C879.962 662.615 1046.88 661.368 1102.58 661.368Z" fill="#FFAE6E"/>
<path d="M1353.23 635.178V645.69C1323.95 643.017 1264.5 639.632 1160.24 642.126C997.073 645.868 798.198 677.046 798.198 677.046L753.925 679.718L752.318 678.293C756.603 677.224 760.887 676.333 764.993 675.264C805.339 665.822 844.615 658.517 880.498 654.419C1076.87 632.327 1353.23 635.178 1353.23 635.178Z" fill="#FFAE6E"/>
<path d="M828.369 675.977C829.44 678.649 826.584 682.212 821.942 683.994C817.479 685.598 812.837 684.707 811.945 682.034C810.874 679.362 813.73 675.799 818.372 674.017C823.013 672.414 827.476 673.304 828.369 675.977Z" fill="white"/>
<path d="M786.416 684.529C786.773 686.132 784.988 687.914 782.489 688.27C779.989 688.805 777.668 687.736 777.311 686.132C776.954 684.529 778.74 682.747 781.239 682.391C783.917 682.034 786.238 682.925 786.416 684.529Z" fill="white"/>
<path d="M641.455 723.724C641.812 725.327 640.027 727.109 637.528 727.465C635.028 728 632.707 726.931 632.35 725.327C631.993 723.724 633.779 721.942 636.278 721.586C638.956 721.23 641.277 722.12 641.455 723.724Z" fill="white"/>
<path d="M1321.09 647.471C1324.35 647.471 1326.98 645.796 1326.98 643.73C1326.98 641.663 1324.35 639.988 1321.09 639.988C1317.84 639.988 1315.2 641.663 1315.2 643.73C1315.2 645.796 1317.84 647.471 1321.09 647.471Z" fill="white"/>
<path d="M701.974 740.471C702.689 743.856 697.69 747.776 690.728 749.201C683.765 750.626 677.695 749.023 676.981 745.638C676.267 742.253 681.266 738.333 688.228 736.908C695.191 735.483 701.26 737.086 701.974 740.471Z" fill="#FFAE6E"/>
<path d="M718.042 723.011C718.399 724.615 716.97 726.218 714.828 726.575C712.686 726.931 710.901 726.04 710.544 724.437C710.187 722.833 711.615 721.23 713.757 720.873C715.899 720.517 717.863 721.408 718.042 723.011Z" fill="#FFAE6E"/>
<path d="M1159.71 717.845L1145.96 719.448L1142.39 719.805C1142.39 719.805 1079.37 552.333 1156.85 230.04C1156.85 230.04 1156.85 230.04 1156.85 229.862C1160.42 214.896 1164.35 199.396 1168.63 183.718C1168.63 184.075 1097.58 519.195 1159.71 717.845Z" fill="#6D2571"/>
<path d="M1156.85 230.218C1123.11 370.431 1115.97 481.425 1118.83 561.954L1122.75 563.914L1127.4 458.799L1122.93 456.126H1127.4L1130.07 395.73L1135.61 392.879L1131.5 388.781C1131.32 388.96 1144.36 292.753 1156.85 230.218Z" fill="#D42462"/>
<path d="M1123.82 585.649C1128.47 623.419 1141.68 696.287 1145.96 719.448L1142.39 719.804C1142.39 719.804 1124.9 673.305 1119.72 581.908L1123.82 585.649Z" fill="#D42462"/>
<path d="M1243.97 -10.2991C1243.08 -8.51746 1215.76 49.7411 1213.09 63.2814C1210.41 76.9998 1197.38 137.218 1197.38 137.218L1175.42 187.816H1165.78C1165.78 187.816 1164.35 175.345 1162.92 160.557C1161.31 143.097 1159.53 122.431 1159.71 116.017C1160.24 104.08 1180.42 48.494 1186.84 37.8044C1189.16 33.8848 1197.73 26.2239 1207.37 18.2067C1223.62 4.8446 1243.08 -9.58643 1243.97 -10.2991Z" fill="#6A6113"/>
<path d="M1243.97 -10.2991C1243.08 -8.51746 1215.76 49.7411 1213.09 63.2814C1210.41 76.9998 1197.38 137.218 1197.38 137.218L1175.42 187.816H1169.17C1170.24 177.304 1175.42 135.437 1175.42 135.437L1195.59 74.6837L1187.38 121.006C1187.91 118.689 1207.2 41.9021 1212.73 31.3906C1218.09 21.0572 1243.08 -9.23011 1243.97 -10.2991Z" fill="#2F2A09"/>
<path d="M1190.59 37.8045C1187.91 42.4367 1166.13 107.644 1166.13 107.644L1172.2 111.741C1172.2 111.741 1164.35 111.741 1164.35 113.167C1164.35 114.057 1163.46 142.207 1162.92 160.557C1161.31 143.098 1159.53 122.431 1159.71 116.017C1160.24 104.08 1180.42 48.4941 1186.84 37.8045C1189.16 33.8849 1197.73 26.224 1207.37 18.2068C1199.52 26.9367 1191.84 35.6666 1190.59 37.8045Z" fill="#EAB87B"/>
<path d="M1186.31 62.747C1186.31 64.7068 1184.7 66.132 1182.92 66.132C1180.95 66.132 1179.52 64.5286 1179.52 62.747C1179.52 60.7872 1181.13 59.3619 1182.92 59.3619C1184.88 59.1838 1186.31 60.7872 1186.31 62.747Z" fill="#EAB87B"/>
<path d="M1187.38 75.3964C1187.38 76.2872 1186.66 77.178 1185.59 77.178C1184.7 77.178 1183.81 76.4653 1183.81 75.3964C1183.81 74.5056 1184.52 73.6147 1185.59 73.6147C1186.66 73.7929 1187.38 74.5056 1187.38 75.3964Z" fill="#EAB87B"/>
<path d="M1209.52 49.3849C1209.52 50.632 1208.44 51.8791 1207.02 51.8791C1205.77 51.8791 1204.52 50.8102 1204.52 49.3849C1204.52 48.1378 1205.59 46.8906 1207.02 46.8906C1208.44 47.0688 1209.52 48.1378 1209.52 49.3849Z" fill="#6A6113"/>
<path d="M1183.45 132.942C1183.45 133.655 1182.92 134.189 1182.2 134.189C1181.49 134.189 1180.95 133.655 1180.95 132.942C1180.95 132.23 1181.49 131.695 1182.2 131.695C1182.92 131.695 1183.45 132.23 1183.45 132.942Z" fill="#6A6113"/>
<path d="M1183.99 143.988C1183.99 145.235 1182.92 146.482 1181.49 146.482C1180.24 146.482 1178.99 145.413 1178.99 143.988C1178.99 142.741 1180.06 141.494 1181.49 141.494C1182.92 141.494 1183.99 142.563 1183.99 143.988Z" fill="#6A6113"/>
<path d="M1175.42 124.747C1175.42 124.034 1187.38 92.3215 1187.38 92.3215L1176.13 116.373L1175.42 124.747Z" fill="#2F2A09"/>
<path d="M1136.68 236.988C1132.22 243.758 1122.4 268.345 1115.79 285.092C1112.04 294.712 1109.36 301.661 1109.36 301.661C1109.36 301.661 1111.15 259.258 1114.36 245.006C1117.04 233.069 1122.4 221.488 1128.11 213.293C1129.18 211.689 1130.25 210.264 1131.5 209.017C1133.82 206.345 1137.21 203.494 1141.32 200.822C1142.03 200.287 1142.75 199.931 1143.46 199.396C1151.14 194.764 1160.78 190.845 1170.6 189.776C1172.2 189.954 1143.64 226.299 1136.68 236.988Z" fill="#6A6113"/>
<path d="M1144.89 197.793C1144.89 197.971 1144.35 198.506 1143.64 199.753C1139 206.701 1123.29 230.575 1120.43 241.086C1118.47 248.925 1116.68 270.304 1115.79 285.092C1112.04 294.713 1109.36 301.661 1109.36 301.661C1109.36 301.661 1111.15 259.258 1114.36 245.006C1117.04 233.069 1122.4 221.488 1128.11 213.293L1141.32 200.822L1144.89 197.793Z" fill="#EAB87B"/>
<path d="M1168.99 184.075L1167.92 184.965L1161.85 189.954C1161.85 189.954 1108.29 158.776 1095.08 155.747C1083.12 153.075 1044.74 148.264 1035.1 147.552C1034.03 147.373 1033.31 147.373 1032.96 147.373C1030.1 147.552 1008.14 155.391 1008.14 155.391C1009.93 153.787 1039.74 127.241 1065.27 123.322C1091.15 119.402 1127.57 134.546 1128.64 134.902L1168.99 184.075Z" fill="#6A6113"/>
<path d="M1167.74 184.965L1161.67 189.954C1161.67 189.954 1108.11 158.776 1094.9 155.747C1082.94 153.075 1044.56 148.264 1034.92 147.552C1042.24 145.414 1050.09 143.276 1053.84 143.098C1061.52 142.741 1094.55 146.483 1105.08 147.552C1115.43 148.621 1134.36 159.132 1134.36 159.132L1167.74 184.965Z" fill="#2F2A09"/>
<path d="M1071.87 140.96C1071.87 140.96 1098.65 144.879 1107.04 148.62C1115.43 152.184 1143.82 169.643 1143.82 169.643C1143.82 169.643 1139.36 159.666 1130.25 154.322C1121.33 148.977 1104.54 138.643 1071.87 140.96Z" fill="#2F2A09"/>
<path d="M1128.47 134.902C1127.75 134.724 1104.72 128.667 1100.44 128.31C1096.15 128.132 1059.73 127.419 1050.81 130.092C1042.78 132.586 1015.1 150.58 1007.96 155.212C1009.75 153.609 1039.56 127.063 1065.09 123.144C1090.8 119.402 1127.22 134.546 1128.47 134.902Z" fill="#EAB87B"/>
<path d="M1074.02 127.776C1074.37 129.557 1073.3 131.161 1071.52 131.517C1069.73 131.873 1068.13 130.804 1067.77 129.023C1067.41 127.241 1068.48 125.638 1070.27 125.281C1072.05 124.925 1073.84 126.172 1074.02 127.776Z" fill="#EAB87B"/>
<path d="M1082.59 132.23C1082.59 132.586 1082.41 133.121 1082.05 133.121C1081.69 133.121 1081.16 132.942 1081.16 132.586C1081.16 132.23 1081.34 131.695 1081.69 131.695C1082.05 131.517 1082.41 131.695 1082.59 132.23Z" fill="#EAB87B"/>
<path d="M1050.81 135.258C1050.99 135.793 1050.45 136.506 1049.92 136.506C1049.38 136.684 1048.67 136.149 1048.67 135.615C1048.49 135.08 1049.02 134.368 1049.56 134.368C1050.09 134.368 1050.63 134.724 1050.81 135.258Z" fill="#EAB87B"/>
<path d="M1125.97 159.666C1126.15 160.914 1125.43 162.161 1124.18 162.339C1122.93 162.517 1121.68 161.804 1121.5 160.557C1121.33 159.31 1122.04 158.063 1123.29 157.885C1124.54 157.529 1125.79 158.419 1125.97 159.666Z" fill="#6A6113"/>
<path d="M1119.36 153.074C1119.54 153.609 1119.18 153.965 1118.65 154.143C1118.11 154.322 1117.76 153.965 1117.58 153.431C1117.4 152.896 1117.76 152.54 1118.29 152.362C1118.83 152.362 1119.18 152.718 1119.36 153.074Z" fill="#6A6113"/>
<path d="M1167.03 185.5L1166.49 193.339C1166.49 193.339 1135.61 220.954 1123.11 234.672C1110.61 248.391 1090.8 295.425 1090.8 295.425L1080.27 351.902C1080.27 351.902 1078.48 338.362 1076.87 321.08C1075.27 303.977 1073.84 283.132 1074.73 268.701C1076.52 239.661 1090.44 216.322 1097.76 208.839C1105.08 201.534 1147.03 183.54 1147.03 183.54L1152.57 184.075L1165.96 185.322L1167.03 185.5Z" fill="#6A6113"/>
<path d="M1167.03 185.5L1166.49 193.339C1166.49 193.339 1135.61 220.954 1123.11 234.672C1110.61 248.39 1090.8 295.425 1090.8 295.425L1080.27 351.902C1080.27 351.902 1082.05 298.988 1082.94 289.368C1083.84 279.747 1106.87 229.149 1106.87 229.149L1113.29 236.454L1110.61 223.092C1110.61 223.092 1113.83 217.569 1129 207.413C1141.32 199.218 1159.53 188.885 1165.96 185.322L1167.03 185.5Z" fill="#2F2A09"/>
<path d="M1098.3 213.649C1093.48 219.172 1083.84 239.126 1083.84 239.126L1092.4 248.747L1083.12 245.896C1083.12 245.896 1080.44 256.586 1079.02 266.563C1078.12 273.333 1077.41 302.373 1077.23 320.902C1075.62 303.799 1074.2 282.954 1075.09 268.523C1076.87 239.483 1090.8 216.143 1098.12 208.661C1105.44 201.356 1147.39 183.362 1147.39 183.362L1152.92 183.896C1138.46 191.201 1102.05 209.373 1098.3 213.649Z" fill="#EAB87B"/>
<path d="M1111.69 210.086C1113.36 210.086 1114.72 208.73 1114.72 207.057C1114.72 205.385 1113.36 204.029 1111.69 204.029C1110.01 204.029 1108.65 205.385 1108.65 207.057C1108.65 208.73 1110.01 210.086 1111.69 210.086Z" fill="#EAB87B"/>
<path d="M1124.18 203.85C1124.18 204.563 1123.65 204.919 1123.11 204.919C1122.4 204.919 1122.04 204.385 1122.04 203.85C1122.04 203.138 1122.58 202.781 1123.11 202.781C1123.82 202.603 1124.18 203.138 1124.18 203.85Z" fill="#EAB87B"/>
<path d="M1118.83 218.816L1150.6 199.04L1120.97 220.419L1118.83 218.816Z" fill="#6A6113"/>
<path d="M1092.76 269.413C1092.76 271.195 1091.33 272.442 1089.73 272.442C1087.94 272.442 1086.69 271.017 1086.69 269.413C1086.69 267.632 1088.12 266.385 1089.73 266.385C1091.33 266.385 1092.76 267.81 1092.76 269.413Z" fill="#2F2A09"/>
<path d="M1099.9 257.833C1099.9 258.546 1099.37 258.902 1098.83 258.902C1098.3 258.902 1097.76 258.368 1097.76 257.833C1097.76 257.12 1098.3 256.764 1098.83 256.764C1099.37 256.764 1099.9 257.299 1099.9 257.833Z" fill="#6A6113"/>
<path d="M1351.8 203.85C1351.8 203.85 1294.31 177.126 1277.71 176.77C1261.11 176.236 1195.23 192.804 1195.23 192.804L1182.38 189.063L1167.38 184.609C1167.38 184.609 1179.17 160.201 1191.48 152.896C1203.98 145.592 1266.11 140.069 1276.28 140.96C1285.92 141.85 1327.7 172.316 1337.7 181.937C1338.23 182.471 1338.59 182.827 1338.95 183.184C1345.91 191.023 1351.8 203.85 1351.8 203.85Z" fill="#2F2A09"/>
<path d="M1337.7 181.758C1335.02 180.689 1332.7 179.62 1330.73 178.908C1323.77 176.057 1278.96 160.914 1270.57 160.201C1262.36 159.488 1237.01 166.437 1217.01 171.247C1203.09 174.632 1189.7 183.362 1182.2 188.885L1167.21 184.431C1167.21 184.431 1169.88 178.908 1173.99 172.494C1178.45 165.189 1184.88 156.638 1191.49 152.718C1203.98 145.414 1266.11 139.891 1276.28 140.781C1279.14 140.96 1284.67 143.81 1291.28 147.73C1307.53 157.707 1330.55 174.988 1337.7 181.758Z" fill="#6A6113"/>
<path d="M1204.34 169.287C1204.34 169.287 1240.22 158.597 1249.86 158.241C1259.5 157.885 1296.1 171.069 1297.53 171.425C1298.96 171.781 1282 158.954 1274.32 158.063C1266.64 156.994 1239.51 154.678 1230.05 158.063C1220.94 161.27 1204.34 169.287 1204.34 169.287Z" fill="#2F2A09"/>
<path d="M1291.28 147.908C1282.35 145.948 1272.53 143.988 1268.25 143.81C1259.68 143.454 1201.3 152.718 1195.41 154.856C1191.13 156.281 1179.88 166.971 1174.17 172.672C1178.63 165.368 1185.06 156.816 1191.66 152.896C1204.16 145.592 1266.29 140.069 1276.46 140.96C1279.14 141.138 1284.67 143.81 1291.28 147.908Z" fill="#EAB87B"/>
<path d="M1209.69 152.896C1209.69 154.322 1208.62 155.391 1207.2 155.391C1205.77 155.391 1204.7 154.322 1204.7 152.896C1204.7 151.471 1205.77 150.402 1207.2 150.402C1208.62 150.402 1209.69 151.471 1209.69 152.896Z" fill="#EAB87B"/>
<path d="M1218.98 154.678C1219.37 154.678 1219.69 154.359 1219.69 153.965C1219.69 153.572 1219.37 153.253 1218.98 153.253C1218.58 153.253 1218.26 153.572 1218.26 153.965C1218.26 154.359 1218.58 154.678 1218.98 154.678Z" fill="#EAB87B"/>
<path d="M1271.82 166.08C1271.82 166.971 1271.11 167.862 1270.04 167.862C1269.14 167.862 1268.25 167.149 1268.25 166.08C1268.25 165.189 1268.96 164.299 1270.04 164.299C1271.11 164.477 1271.82 165.189 1271.82 166.08Z" fill="#6A6113"/>
<path d="M1278.25 163.764C1278.64 163.764 1278.96 163.445 1278.96 163.052C1278.96 162.658 1278.64 162.339 1278.25 162.339C1277.85 162.339 1277.53 162.658 1277.53 163.052C1277.53 163.445 1277.85 163.764 1278.25 163.764Z" fill="#6A6113"/>
<path d="M1307.88 173.563L1334.66 183.184L1339.48 189.776L1331.09 184.253L1307.88 173.563Z" fill="#6A6113"/>
<path d="M1257.36 313.241C1254.68 342.638 1243.08 376.31 1243.08 376.31C1243.08 376.31 1229.33 287.942 1217.19 270.126C1206.12 253.557 1174.88 210.264 1169.88 203.494C1169.53 202.96 1169.17 202.603 1169.17 202.603L1167.03 184.609C1167.03 184.609 1180.24 179.621 1190.77 180.511C1201.3 181.402 1236.83 208.483 1242.9 214.896C1249.15 221.31 1260.22 283.845 1257.36 313.241Z" fill="#2F2A09"/>
<path d="M1245.76 332.661L1243.08 376.31C1243.08 376.31 1242.19 370.431 1240.58 361.345C1240.58 361.345 1240.58 361.345 1240.58 361.167C1236.12 335.155 1226.12 283.31 1217.37 270.126C1211.84 261.753 1200.95 246.431 1190.95 232.534C1181.31 218.994 1172.56 206.879 1170.06 203.494C1178.81 209.552 1198.09 223.983 1205.77 230.753C1215.41 239.304 1230.58 269.77 1233.8 274.937C1236.83 280.103 1238.26 311.46 1238.26 311.46C1238.26 311.46 1242.36 300.057 1241.65 288.299C1240.94 276.54 1232.72 250.707 1232.72 250.707C1232.72 250.707 1243.44 269.592 1245.58 274.759C1247.54 279.925 1245.76 332.661 1245.76 332.661Z" fill="#6A6113"/>
<path d="M1240.58 361.167C1236.12 335.155 1226.12 283.31 1217.37 270.126C1211.84 261.753 1200.95 246.431 1190.95 232.534C1202.02 243.046 1217.01 257.833 1219.51 262.465C1223.62 269.948 1230.58 297.385 1233.26 309.678C1235.4 318.586 1238.79 346.201 1240.58 361.167Z" fill="#EAB87B"/>
<path d="M1214.51 244.649C1214.51 245.896 1213.44 247.144 1212.02 247.144C1210.77 247.144 1209.52 246.075 1209.52 244.649C1209.52 243.402 1210.59 242.155 1212.02 242.155C1213.44 242.155 1214.51 243.224 1214.51 244.649Z" fill="#EAB87B"/>
<path d="M1175.95 200.822C1175.95 200.822 1204.52 219.172 1209.16 223.27C1213.8 227.368 1225.94 241.264 1225.94 241.264C1225.94 241.264 1207.55 217.747 1205.05 215.075C1202.38 212.402 1175.95 200.822 1175.95 200.822Z" fill="#6A6113"/>
<path d="M1219.69 209.017C1219.69 210.799 1218.26 212.046 1216.66 212.046C1214.87 212.046 1213.62 210.62 1213.62 209.017C1213.62 207.235 1215.05 205.988 1216.66 205.988C1218.26 205.988 1219.69 207.235 1219.69 209.017Z" fill="#6A6113"/>
<path d="M1225.4 217.569C1226.09 217.569 1226.65 217.01 1226.65 216.322C1226.65 215.633 1226.09 215.074 1225.4 215.074C1224.71 215.074 1224.15 215.633 1224.15 216.322C1224.15 217.01 1224.71 217.569 1225.4 217.569Z" fill="#6A6113"/>
<path d="M1207.37 236.098C1207.37 236.632 1206.84 237.166 1206.3 237.166C1205.77 237.166 1205.23 236.632 1205.23 236.098C1205.23 235.563 1205.77 235.029 1206.3 235.029C1207.02 235.029 1207.37 235.563 1207.37 236.098Z" fill="#EAB87B"/>
<path d="M1167.38 184.431C1167.38 184.431 1180.06 240.552 1183.81 253.914C1187.56 267.276 1187.56 301.661 1186.13 311.816C1184.7 321.971 1171.31 359.563 1171.31 359.563C1171.31 359.563 1170.42 308.965 1167.56 286.517C1164.89 264.069 1167.38 184.431 1167.38 184.431Z" fill="#2F2A09"/>
<path d="M1265.39 717.845C1265.39 717.845 1221.12 606.138 1286.1 490.868C1286.1 490.868 1226.65 585.293 1269.5 717.845H1265.39Z" fill="#4A0727"/>
<path d="M1258.25 674.552C1258.25 674.552 1258.79 650.144 1278.96 631.793C1299.31 613.442 1306.63 603.822 1306.63 603.822C1306.63 603.822 1303.42 625.914 1291.46 640.167C1279.5 654.419 1258.25 674.552 1258.25 674.552Z" fill="#4A0727"/>
<path d="M1252.72 626.805C1252.72 626.805 1239.86 625.023 1236.12 600.615C1232.37 576.207 1233.8 560.172 1230.58 553.759C1227.37 547.345 1224.15 538.971 1224.15 538.971C1224.15 538.971 1238.44 554.649 1242.19 567.477C1245.93 580.305 1247.18 607.029 1247.18 607.029L1252.72 626.805Z" fill="#4A0727"/>
<path d="M1252.72 607.029C1252.72 607.029 1256.82 582.621 1270.21 572.109C1283.6 561.598 1304.85 548.592 1304.85 548.592C1304.85 548.592 1286.46 569.793 1275.39 581.73C1264.32 593.667 1252.72 607.029 1252.72 607.029Z" fill="#4A0727"/>
<path d="M1262.54 698.069C1262.54 698.069 1234.51 687.557 1225.23 667.247C1215.94 646.937 1212.73 626.27 1212.73 626.27C1212.73 626.27 1226.48 644.621 1230.22 652.103C1233.97 659.408 1245.4 676.511 1245.4 676.511L1262.54 698.069Z" fill="#4A0727"/>
<path d="M1266.64 534.873C1266.64 534.873 1268.07 511 1275.39 497.638C1282.71 484.276 1288.78 480.712 1294.67 473.764C1300.74 466.816 1312.17 453.988 1312.17 453.988C1312.17 453.988 1301.1 475.189 1295.56 484.276C1290.21 493.54 1266.64 534.873 1266.64 534.873Z" fill="#4A0727"/>
<path d="M937.268 621.103C937.268 621.103 1003.86 652.994 1049.02 734.414L1051.7 735.304C1051.52 735.304 1015.82 660.121 937.268 621.103Z" fill="#4A0727"/>
<path d="M998.145 665.465C998.145 665.465 986.898 656.557 978.686 628.764C970.295 601.149 971.545 585.115 971.545 585.115C971.545 585.115 990.468 607.919 994.217 620.569C997.966 633.218 998.145 665.465 998.145 665.465Z" fill="#4A0727"/>
<path d="M1014.39 683.46C1013.14 683.103 991.361 681.856 972.08 680.787C952.8 679.54 938.161 673.483 938.161 673.483C938.161 673.483 964.225 669.385 980.292 673.483C996.181 677.224 1014.39 683.46 1014.39 683.46Z" fill="#4A0727"/>
<path d="M969.581 640.879C969.581 640.879 951.55 639.988 932.626 631.793C913.703 623.598 892.28 618.609 892.28 618.609C892.28 618.609 910.847 615.758 925.307 617.896C939.767 620.034 954.763 624.845 958.691 627.695C962.797 630.546 969.581 640.879 969.581 640.879Z" fill="#4A0727"/>
<path d="M1047.24 728.356C1047.24 728.356 1016.35 723.189 999.751 720.517C983.149 717.845 968.867 714.46 968.867 714.46C968.867 714.46 988.683 708.224 999.751 709.471C1011 710.718 1038.49 719.983 1047.24 728.356Z" fill="#4A0727"/>
<path d="M1033.85 708.58C1033.85 708.58 1028.67 694.327 1028.85 677.937C1029.03 661.546 1032.6 648.54 1032.6 648.54C1032.6 648.54 1035.99 665.287 1037.96 679.006C1039.92 692.724 1033.85 708.58 1033.85 708.58Z" fill="#4A0727"/>
<path d="M1277.18 691.655L1262 703.413L1260.75 702.523C1223.62 674.73 1190.59 646.224 1161.31 617.54C1159.71 615.937 1158.1 614.333 1156.32 612.73C977.079 434.034 941.374 253.735 941.374 253.735L943.516 252.31L945.48 250.885C1004.93 488.195 1277.18 691.655 1277.18 691.655Z" fill="#6D2571"/>
<path d="M1157.74 607.563L1156.49 612.551C977.079 434.034 941.374 253.735 941.374 253.735L943.516 252.31C946.551 268.345 959.405 323.931 1008.5 413.011C1067.05 519.908 1157.74 607.563 1157.74 607.563Z" fill="#D42462"/>
<path d="M1264.14 695.396L1260.75 702.344C1223.62 674.551 1190.59 646.046 1161.31 617.362L1165.24 603.643L1167.03 614.333L1264.14 695.396Z" fill="#D42462"/>
<path d="M1037.96 465.39L1043.49 460.58L1039.74 468.419L1037.96 465.39Z" fill="#D42462"/>
<path d="M942.981 241.799L940.124 251.241C940.481 252.488 862.645 241.086 849.613 240.73C844.436 240.551 823.549 248.391 800.162 258.011C764.458 272.62 722.862 291.149 721.791 291.684C722.862 290.08 763.565 232 774.812 220.776C786.059 209.551 856.397 199.931 867.287 200.643C874.785 201.178 902.813 216.5 922.986 228.615C932.448 234.316 940.124 239.304 942.981 241.799Z" fill="#2F2A09"/>
<path d="M831.761 211.333L872.107 218.281C872.107 218.281 836.938 216.144 829.976 218.281C823.013 220.419 804.09 222.735 787.487 232C771.241 241.264 753.211 267.098 752.675 267.81C753.389 267.632 783.203 261.218 799.984 257.655C774.99 267.81 747.141 280.103 732.323 286.517C725.897 289.368 721.969 291.149 721.612 291.327C722.683 289.724 763.387 231.644 774.633 220.419C778.739 216.322 790.522 212.58 804.447 209.195C804.804 209.017 805.161 209.017 805.696 209.017C829.976 203.494 860.325 199.753 867.287 200.465C868.001 200.465 868.715 200.643 869.608 201C879.427 203.672 904.598 217.391 922.986 228.615C898.886 220.598 859.968 208.483 850.327 209.373C836.045 210.621 831.761 211.333 831.761 211.333Z" fill="#6A6113"/>
<path d="M901.563 221.31C901.563 223.092 900.135 224.517 898.35 224.517C896.565 224.517 895.137 223.092 895.137 221.31C895.137 219.529 896.565 218.103 898.35 218.103C900.135 218.103 901.563 219.529 901.563 221.31Z" fill="#2F2A09"/>
<path d="M752.854 258.724L775.348 230.574L749.462 266.741L752.854 258.724Z" fill="#EAB87B"/>
<path d="M803.733 228.615C803.733 231.822 801.233 234.316 798.02 234.316C794.807 234.316 792.307 231.822 792.307 228.615C792.307 225.408 794.807 222.914 798.02 222.914C801.055 222.914 803.733 225.408 803.733 228.615Z" fill="#6A6113"/>
<path d="M792.486 241.086C792.486 241.977 791.772 242.69 790.879 242.69C789.986 242.69 789.272 241.977 789.272 241.086C789.272 240.195 789.986 239.483 790.879 239.483C791.772 239.661 792.486 240.195 792.486 241.086Z" fill="#6A6113"/>
<path d="M805.518 218.638L799.627 214.184C799.627 214.184 784.452 218.638 779.989 222.023C775.526 225.408 731.966 282.063 731.966 282.063L732.323 286.695C725.897 289.546 721.969 291.327 721.612 291.505C722.683 289.902 763.387 231.822 774.633 220.597C778.739 216.5 790.522 212.758 804.447 209.373L805.518 218.638Z" fill="#EAB87B"/>
<path d="M869.608 201C866.751 201.178 863.895 201.534 861.217 202.069C853.898 203.494 806.768 211.868 806.768 211.868L805.518 209.017C829.797 203.494 860.146 199.753 867.109 200.465C867.823 200.465 868.537 200.643 869.608 201Z" fill="#EAB87B"/>
<path d="M886.568 223.983C886.568 224.695 886.032 225.408 885.139 225.408C884.247 225.408 883.711 224.873 883.711 223.983C883.711 223.092 884.247 222.557 885.139 222.557C886.032 222.557 886.568 223.27 886.568 223.983Z" fill="#6A6113"/>
<path d="M946.373 243.758L939.946 248.391C939.946 248.391 939.41 247.5 938.518 245.718C933.519 236.098 916.559 202.603 911.739 190.488C906.205 176.235 899.243 151.471 898.886 113.701C898.35 75.9308 906.741 46.178 906.741 46.178C906.741 46.178 916.559 76.8217 923.522 100.695C926.914 112.276 929.592 122.253 930.306 126.35C932.091 138.109 944.945 233.781 946.373 243.224C946.373 243.58 946.373 243.758 946.373 243.758Z" fill="#6A6113"/>
<path d="M946.373 243.046L939.946 248.391L927.092 146.304L932.626 158.241L923.522 100.517C926.914 112.098 929.592 122.075 930.306 126.172C932.091 137.931 945.123 233.603 946.373 243.046Z" fill="#2F2A09"/>
<path d="M938.696 245.718C933.698 236.097 916.738 202.603 911.918 190.488C906.383 176.235 899.421 151.471 899.064 113.701C898.528 75.9308 906.919 46.178 906.919 46.178L905.134 86.086C905.134 86.086 903.349 118.511 904.42 125.816C905.491 133.12 912.096 174.81 912.096 174.81L911.025 123.143C911.025 123.143 914.774 171.781 922.094 190.488C927.985 205.454 934.947 234.494 938.696 245.718Z" fill="#EAB87B"/>
<path d="M910.133 105.149C911.612 105.149 912.811 103.953 912.811 102.477C912.811 101.001 911.612 99.8044 910.133 99.8044C908.654 99.8044 907.455 101.001 907.455 102.477C907.455 103.953 908.654 105.149 910.133 105.149Z" fill="#EAB87B"/>
<path d="M917.809 117.264C918.598 117.264 919.237 116.626 919.237 115.839C919.237 115.052 918.598 114.414 917.809 114.414C917.02 114.414 916.381 115.052 916.381 115.839C916.381 116.626 917.02 117.264 917.809 117.264Z" fill="#EAB87B"/>
<path d="M930.306 208.126L921.737 175.167L919.951 153.431L925.486 179.264L930.306 208.126Z" fill="#EAB87B"/>
<path d="M944.052 254.804C944.052 254.804 969.581 291.506 977.257 301.304C984.934 310.925 1011.53 368.471 1011.53 368.471C1011.53 368.471 1010.46 311.994 1002.96 293.287C995.288 274.58 965.296 254.27 965.296 254.27L942.445 249.816L944.052 254.804Z" fill="#2F2A09"/>
<path d="M941.91 252.132C941.91 252.132 942.445 329.81 943.338 340.856C944.23 351.902 964.047 452.563 964.047 452.563C964.047 452.563 929.413 372.034 922.629 347.27C915.667 322.506 917.095 269.592 917.095 269.592L941.91 252.132Z" fill="#2F2A09"/>
<path d="M944.052 254.804C944.052 254.804 891.566 287.942 885.139 292.931C878.713 297.919 844.972 382.546 844.972 382.546L823.37 469.488C823.37 469.488 823.37 468.776 823.192 467.35C822.656 463.431 821.585 453.988 820.335 442.408V442.23C817.301 415.149 813.373 375.419 814.266 359.207C815.694 333.552 836.403 272.799 867.287 255.695C874.428 251.776 882.462 249.103 890.317 247.5C896.743 246.075 903.17 245.362 909.24 245.006C927.628 243.937 942.445 246.609 942.445 246.609L944.052 254.804Z" fill="#6A6113"/>
<path d="M944.052 254.804C944.052 254.804 891.566 287.942 885.139 292.931C878.713 297.919 844.972 382.546 844.972 382.546L823.37 469.488C823.37 469.488 823.37 468.776 823.192 467.35C824.977 441.517 830.511 370.253 833.546 354.753C837.295 335.689 851.934 298.454 851.934 298.454L845.686 329.454C845.686 329.454 860.503 287.051 873.357 273.511C885.496 260.684 894.958 249.994 909.061 244.827C927.449 243.758 942.267 246.431 942.267 246.431L944.052 254.804Z" fill="#2F2A09"/>
<path d="M890.138 247.5C879.248 252.31 865.502 258.724 860.503 262.643C851.577 269.592 834.796 300.77 834.796 300.77L838.902 307.896L832.297 303.086C832.297 303.086 818.907 347.983 817.836 360.81C816.765 371.856 819.621 427.264 820.335 442.23C817.301 415.149 813.373 375.419 814.266 359.207C815.694 333.551 836.403 272.799 867.287 255.695C874.428 251.776 882.283 249.281 890.138 247.5Z" fill="#EAB87B"/>
<path d="M820.514 356.356C822.387 356.356 823.906 354.841 823.906 352.971C823.906 351.102 822.387 349.586 820.514 349.586C818.641 349.586 817.122 351.102 817.122 352.971C817.122 354.841 818.641 356.356 820.514 356.356Z" fill="#EAB87B"/>
<path d="M828.012 340.856C828.012 341.569 827.476 342.281 826.584 342.281C825.87 342.281 825.156 341.747 825.156 340.856C825.156 339.965 825.691 339.431 826.584 339.431C827.476 339.431 828.012 340.143 828.012 340.856Z" fill="#EAB87B"/>
<path d="M846.043 294C846.578 292.931 857.647 273.511 860.146 270.483C862.645 267.454 877.463 256.23 877.463 256.23C877.463 256.23 862.288 264.781 857.468 271.195C852.47 277.609 846.043 294 846.043 294Z" fill="#EAB87B"/>
<path d="M829.619 418.712C829.619 418 834.26 379.161 834.617 375.063C835.153 370.965 838.366 362.592 838.366 362.592L834.439 398.224L829.619 418.712Z" fill="#6A6113"/>
<path d="M866.93 300.77C866.93 302.195 865.68 303.442 864.252 303.442C862.824 303.442 861.574 302.195 861.574 300.77C861.574 299.345 862.824 298.097 864.252 298.097C865.859 298.097 866.93 299.345 866.93 300.77Z" fill="#6A6113"/>
<path d="M869.786 290.793C869.786 291.506 869.251 291.862 868.715 291.862C868.001 291.862 867.644 291.327 867.644 290.793C867.644 290.08 868.18 289.724 868.715 289.724C869.251 289.546 869.786 290.08 869.786 290.793Z" fill="#6A6113"/>
<path d="M1116.51 201.534C1116.51 201.534 1040.99 202.425 1022.07 207.592C1003.14 212.58 960.298 248.034 960.298 248.034H938.161C938.161 248.034 940.482 208.126 952.978 190.488C965.475 173.029 1040.99 155.034 1040.99 155.034C1040.99 155.034 1054.02 161.626 1069.91 170.713C1085.8 179.977 1104.9 191.557 1116.51 201.534Z" fill="#2F2A09"/>
<path d="M1069.73 170.712C1054.38 167.862 1038.67 165.368 1035.81 166.08C1030.1 167.327 984.934 183.718 980.828 185.322L1031.17 171.603C1022.78 174.098 988.147 184.431 973.151 196.902C957.62 209.908 950.479 242.155 949.408 247.856H938.161C938.161 247.856 938.875 236.632 941.374 223.27C943.516 211.689 947.087 198.506 952.978 190.31C956.013 185.856 963.154 181.58 972.08 177.304C974.044 176.414 976.008 175.523 977.971 174.632C994.038 167.862 1013.68 161.983 1026.71 158.419L1027.24 158.241C1032.6 156.816 1036.71 155.747 1039.03 155.212L1039.92 155.034L1040.45 154.856L1040.99 154.678C1041.35 154.856 1044.03 156.281 1048.31 158.598C1053.67 161.804 1061.34 165.902 1069.73 170.712Z" fill="#6A6113"/>
<path d="M962.083 223.983C962.083 223.983 971.366 210.264 977.971 205.098C984.577 199.931 1004.93 190.667 1004.93 190.667L978.328 209.017L962.083 223.983Z" fill="#6A6113"/>
<path d="M975.651 180.333C975.651 180.333 961.547 187.638 955.299 196.19C951.55 201.356 945.48 214.006 941.374 223.448C943.516 211.868 947.087 198.684 952.978 190.488C956.013 186.034 963.154 181.759 972.08 177.483L975.651 180.333Z" fill="#EAB87B"/>
<path d="M1048.31 158.954L1034.38 159.845L979.757 177.126L977.971 174.81C994.039 168.04 1013.68 162.161 1026.71 158.598L1027.24 158.419L1039.03 155.391L1039.92 155.213L1040.45 155.034L1040.99 154.856C1041.35 155.213 1044.03 156.638 1048.31 158.954Z" fill="#EAB87B"/>
<path d="M971.009 188.529C969.938 189.598 956.192 201.712 956.192 201.712L952.443 217.212L959.048 202.425L971.009 188.529Z" fill="#EAB87B"/>
<path d="M1048.13 175.701C1049.31 175.701 1050.27 174.744 1050.27 173.563C1050.27 172.382 1049.31 171.425 1048.13 171.425C1046.95 171.425 1045.99 172.382 1045.99 173.563C1045.99 174.744 1046.95 175.701 1048.13 175.701Z" fill="#6A6113"/>
<path d="M1045.99 183.718C1045.99 184.075 1045.63 184.609 1045.1 184.609C1044.74 184.609 1044.2 184.253 1044.2 183.718C1044.2 183.362 1044.56 182.827 1045.1 182.827C1045.63 182.827 1045.99 183.184 1045.99 183.718Z" fill="#6A6113"/>
<path d="M1049.56 413.011C1049.56 413.011 1039.92 354.218 1039.38 352.258C1039.2 351.546 1035.46 345.845 1029.92 338.54C1028.67 336.937 1027.42 335.333 1026.17 333.552C1017.6 322.506 1006.54 309.5 996.895 302.73C978.864 289.902 942.088 256.23 942.088 256.23L941.731 255.695L937.804 248.034L972.794 242.155L1030.28 264.603C1030.28 264.603 1063.48 307.362 1068.13 335.333C1073.12 363.304 1049.56 413.011 1049.56 413.011Z" fill="#2F2A09"/>
<path d="M1044.56 323.396C1044.56 323.396 1050.45 360.276 1050.45 373.46C1050.45 386.822 1049.56 413.011 1049.56 413.011C1049.2 411.052 1039.92 354.218 1039.38 352.437C1039.2 351.724 1035.46 346.023 1029.92 338.718L1036.17 320.724L1026.17 333.552C1022.78 329.098 1018.85 324.287 1014.75 319.655C1008.86 312.885 1002.61 306.827 996.895 302.73C987.612 296.138 973.33 284.023 961.726 273.69H961.547C950.657 264.069 942.088 256.23 942.088 256.23L941.731 255.695L941.553 252.132C941.553 252.132 993.681 271.017 1008.32 276.006C1022.96 280.994 1044.74 307.718 1048.31 312.707C1052.06 317.695 1058.49 353.684 1058.49 353.684L1044.56 323.396Z" fill="#6A6113"/>
<path d="M982.434 261.218L1008.14 269.057L1026.17 276.896L1009.93 265.494L982.434 261.218Z" fill="#6A6113"/>
<path d="M1011.89 308.609L1014.93 319.655C1009.03 312.885 1002.79 306.828 997.073 302.73C987.79 296.138 973.508 284.023 961.904 273.69H961.726L952.8 264.96L1021.89 307.718L1011.89 308.609Z" fill="#EAB87B"/>
<path d="M1007.78 294.534C1009.26 294.534 1010.46 293.338 1010.46 291.862C1010.46 290.386 1009.26 289.189 1007.78 289.189C1006.31 289.189 1005.11 290.386 1005.11 291.862C1005.11 293.338 1006.31 294.534 1007.78 294.534Z" fill="#EAB87B"/>
<path d="M1049.56 413.011C1049.2 410.873 1039.92 354.04 1039.38 352.258L1044.56 349.23L1049.56 413.011Z" fill="#EAB87B"/>
<path d="M1000.82 285.626C1000.82 286.517 1000.11 287.052 999.394 287.052C998.502 287.052 997.966 286.339 997.966 285.626C997.966 284.736 998.68 284.201 999.394 284.201C1000.11 284.023 1000.82 284.736 1000.82 285.626Z" fill="#EAB87B"/>
<path d="M940.303 479.109C940.482 479.822 940.66 480.356 940.66 480.534C940.481 480.356 940.125 479.822 939.41 478.931C930.306 466.994 876.035 393.77 863.895 349.586C863.895 349.586 870.5 309.678 881.212 281.885C881.569 280.816 882.104 279.747 882.461 278.678C885.496 271.552 888.71 265.494 892.102 261.218C892.102 261.218 895.672 256.408 905.669 253.023C913.167 250.529 924.236 248.747 940.303 250.172C941.91 250.35 943.695 250.529 945.302 250.707C945.302 250.707 922.451 311.46 918.345 330.701C915.31 344.954 928.699 419.247 936.018 457.552C937.804 466.816 939.232 473.942 939.946 477.506C940.124 478.396 940.303 478.753 940.303 479.109Z" fill="#6A6113"/>
<path d="M936.197 457.73L935.304 461.293C934.412 459.868 901.206 367.937 899.421 357.782C897.636 347.626 908.704 273.69 917.452 264.425C921.737 259.793 931.734 254.448 940.482 250.351C942.088 250.529 943.873 250.707 945.48 250.885C945.48 250.885 922.629 311.638 918.523 330.879C915.488 345.132 928.878 419.425 936.197 457.73Z" fill="#2F2A09"/>
<path d="M940.839 479.287L940.303 479.109L939.41 478.931C930.306 466.103 875.856 389.672 863.895 349.586C863.895 349.586 870.5 309.678 881.212 281.885L887.282 284.736C887.282 284.736 871.572 337.115 871.572 338.54C871.572 339.965 892.28 339.965 892.28 339.965L872.464 346.914C872.464 346.914 871.572 349.586 874.785 357.069C877.82 364.017 932.627 464.5 939.946 477.862C940.66 478.753 940.839 479.287 940.839 479.287Z" fill="#EAB87B"/>
<path d="M905.848 253.201C905.312 253.557 904.955 253.736 904.42 254.092C892.994 261.753 889.96 279.213 889.96 279.213L882.64 278.678C885.675 271.552 888.888 265.494 892.28 261.218C892.28 261.397 895.851 256.586 905.848 253.201Z" fill="#EAB87B"/>
<path d="M881.212 321.259C881.212 319.833 894.065 278.144 899.6 269.592C905.134 261.04 916.202 253.023 916.202 253.023C916.202 253.023 899.6 280.282 896.565 289.546C893.351 298.81 881.212 321.259 881.212 321.259Z" fill="#EAB87B"/>
<path d="M911.025 373.638C911.025 376.845 908.347 379.517 905.134 379.517C901.921 379.517 899.243 376.845 899.243 373.638C899.243 370.431 901.921 367.759 905.134 367.759C908.347 367.937 911.025 370.431 911.025 373.638Z" fill="#2F2A09"/>
<path d="M906.384 321.258C906.384 320.189 912.275 280.281 913.346 279.212C914.417 278.144 924.057 266.029 924.057 266.029L912.989 298.81L906.384 321.258Z" fill="#6A6113"/>
<path d="M1346.44 807.281L960.833 798.373C960.833 798.373 957.263 796.592 952.621 793.741C941.374 786.615 923.522 772.54 932.27 757.396C944.766 736.017 1028.67 755.615 1028.67 755.615C1028.67 755.615 1001.89 744.925 1025.1 734.235C1033.49 730.316 1042.6 728.534 1050.63 728C1065.09 726.753 1076.87 728.891 1076.87 728.891C1076.87 728.891 1054.02 718.557 1036.35 702.523C1021.89 689.517 1010.82 672.592 1017.96 654.063C1023.85 639.097 1032.96 629.655 1043.49 624.666C1062.06 615.937 1084.73 620.925 1101.87 634.465C1128.65 655.845 1153.64 702.166 1153.64 702.166C1153.64 702.166 1157.21 682.569 1176.85 691.477C1176.85 691.477 1177.02 691.477 1177.02 691.655C1196.48 700.563 1200.05 719.983 1200.05 719.983C1200.05 719.983 1207.2 693.258 1226.83 696.822C1245.93 700.207 1254.86 708.758 1255.4 709.293C1255.4 709.115 1255.04 708.402 1254.86 707.333C1252.36 698.603 1244.51 663.327 1280.39 666.534C1281.1 666.534 1281.64 666.712 1282.35 666.712C1322.16 671.166 1342.87 705.73 1342.87 705.73L1346.44 807.281Z" fill="#4A0727"/>
<path d="M1055.09 803.362C1055.09 803.362 1050.99 772.718 1082.05 768.799C1113.11 765.057 1127.04 773.253 1127.04 773.253C1127.04 773.253 1076.52 732.988 1096.69 714.638C1116.68 696.287 1176.13 749.735 1176.13 749.735C1176.13 749.735 1177.92 724.258 1214.51 728C1251.11 731.741 1272.53 763.454 1272.53 763.454C1272.53 763.454 1271.11 726.931 1298.06 728.712C1325.02 730.494 1356.44 765.948 1356.44 765.948L1357.51 820.822L1055.09 803.362Z" fill="#260625"/>
<path d="M1245.76 731.919C1245.76 737.086 1241.65 741.184 1236.47 741.184C1231.3 741.184 1227.19 737.086 1227.19 731.919C1227.19 726.753 1231.3 722.655 1236.47 722.655C1241.65 722.655 1245.76 726.931 1245.76 731.919Z" fill="#260625"/>
<path d="M1111.86 700.028C1116 700.028 1119.36 696.678 1119.36 692.546C1119.36 688.413 1116 685.063 1111.86 685.063C1107.72 685.063 1104.37 688.413 1104.37 692.546C1104.37 696.678 1107.72 700.028 1111.86 700.028Z" fill="#260625"/>
<path d="M1085.44 699.138C1085.44 700.919 1084.01 702.345 1082.23 702.345C1080.44 702.345 1079.02 700.919 1079.02 699.138C1079.02 697.356 1080.44 695.931 1082.23 695.931C1084.01 695.753 1085.44 697.178 1085.44 699.138Z" fill="#260625"/>
<path d="M1128.65 749.557C1128.65 752.942 1125.79 755.793 1122.4 755.793C1119 755.793 1116.15 752.942 1116.15 749.557C1116.15 746.172 1119 743.322 1122.4 743.322C1125.79 743.322 1128.65 746.172 1128.65 749.557Z" fill="#4A0727"/>
<path d="M1057.06 764.523C1053.49 763.81 999.037 754.189 966.189 762.741C949.229 767.195 948.694 781.092 952.621 793.741C941.374 786.615 923.522 772.54 932.27 757.396C944.766 736.017 1028.67 755.615 1028.67 755.615C1028.67 755.615 1001.89 744.925 1025.1 734.235C1033.49 730.316 1042.6 728.534 1050.63 728C1046.52 730.138 1041.17 734.235 1035.81 741.362C1025.46 755.08 1054.38 763.81 1057.06 764.523Z" fill="#D42462"/>
<path d="M1096.15 639.097C1071.7 626.626 1039.92 638.028 1030.46 663.149C1024.57 679.005 1030.1 693.08 1036.35 702.701C1021.89 689.695 1010.82 672.77 1017.96 654.241C1023.85 639.275 1032.96 629.833 1043.49 624.844C1063.84 622.172 1084.55 632.149 1096.15 639.097Z" fill="#D42462"/>
<path d="M1057.24 659.408C1061.18 659.408 1064.38 656.217 1064.38 652.281C1064.38 648.346 1061.18 645.155 1057.24 645.155C1053.29 645.155 1050.09 648.346 1050.09 652.281C1050.09 656.217 1053.29 659.408 1057.24 659.408Z" fill="#D42462"/>
<path d="M1036.71 657.626C1039.17 657.626 1041.17 655.632 1041.17 653.172C1041.17 650.712 1039.17 648.718 1036.71 648.718C1034.24 648.718 1032.24 650.712 1032.24 653.172C1032.24 655.632 1034.24 657.626 1036.71 657.626Z" fill="#D42462"/>
<path d="M990.289 762.741C992.754 762.741 994.753 760.747 994.753 758.287C994.753 755.827 992.754 753.833 990.289 753.833C987.825 753.833 985.826 755.827 985.826 758.287C985.826 760.747 987.825 762.741 990.289 762.741Z" fill="#D42462"/>
<path d="M1164.35 711.074L1153.64 702.166C1153.64 702.166 1157.21 682.569 1176.85 691.477C1176.85 691.477 1177.02 691.477 1177.02 691.655C1151.85 689.695 1164.35 711.074 1164.35 711.074Z" fill="#D42462"/>
<path d="M1322.52 698.781C1322.52 698.781 1310.38 689.517 1297.17 681.321C1284.14 673.126 1273.61 672.77 1262.36 677.58C1251.29 682.212 1255.22 707.333 1255.4 708.402C1255.22 708.224 1255.04 708.046 1254.5 707.511C1252 698.781 1244.15 663.505 1280.03 666.712C1280.75 666.712 1281.28 666.89 1282 666.89C1286.28 669.385 1292.17 669.028 1296.81 672.413C1307.7 679.718 1322.52 698.781 1322.52 698.781Z" fill="#D42462"/>
<path d="M1273.25 684.885C1273.25 686.31 1272 687.557 1270.57 687.557C1269.14 687.557 1267.89 686.31 1267.89 684.885C1267.89 683.46 1269.14 682.212 1270.57 682.212C1272.18 682.212 1273.25 683.46 1273.25 684.885Z" fill="#D42462"/>
<path d="M1298.6 741.005C1298.6 743.321 1296.81 745.103 1294.49 745.103C1292.17 745.103 1290.39 743.321 1290.39 741.005C1290.39 738.689 1292.17 736.908 1294.49 736.908C1296.81 736.908 1298.6 738.689 1298.6 741.005Z" fill="#4A0727"/>
<path d="M1311.45 746.707C1311.45 747.776 1310.56 748.666 1309.49 748.666C1308.42 748.666 1307.53 747.776 1307.53 746.707C1307.53 745.638 1308.42 744.747 1309.49 744.747C1310.56 744.747 1311.45 745.638 1311.45 746.707Z" fill="#4A0727"/>
<path d="M1134.18 810.132C1134.18 810.132 1109.01 788.931 1137.39 774.5C1165.78 759.891 1185.59 772.184 1185.59 772.184C1185.59 772.184 1183.81 766.839 1194.52 763.276C1205.23 759.534 1219.51 766.661 1219.51 766.661C1219.51 766.661 1205.05 745.46 1233.44 737.977C1262 730.494 1285.57 781.983 1285.57 781.983C1285.57 781.983 1290.74 767.73 1301.63 772.896C1312.35 778.063 1319.66 785.189 1319.66 785.189C1319.66 785.189 1340.91 774.322 1348.23 783.052C1355.37 791.96 1359.3 813.161 1359.3 813.161L1134.18 810.132Z" fill="#0E0314"/>
<path d="M652.524 793.029L335.823 798.552H333.324C333.324 798.552 369.207 746.885 398.307 752.408C427.227 757.931 427.227 770.224 427.227 770.224C427.227 770.224 448.293 732.632 473.643 717.666C481.855 712.678 490.603 710.184 499.172 712.322C533.27 720.517 494.174 770.758 492.924 772.362C493.816 771.649 514.525 756.149 521.845 766.126C529.521 776.46 529.521 780.557 529.521 780.557C529.521 780.557 531.485 776.103 534.877 770.224C542.732 757.218 558.442 737.977 578.437 747.419C582.186 749.201 585.22 750.983 587.898 752.942C605.751 765.948 599.859 781.27 599.859 781.27C599.859 781.27 640.741 771.649 652.524 793.029Z" fill="#4A0727"/>
<path d="M507.741 724.793C480.427 696.822 427.584 784.833 427.584 784.833C427.584 784.833 415.445 761.672 399.199 759.712C385.989 758.109 349.213 787.506 335.823 798.552H333.324C333.324 798.552 369.207 746.885 398.307 752.408C427.227 757.931 427.227 770.224 427.227 770.224C427.227 770.224 448.293 732.632 473.643 717.666C501.493 707.868 507.741 724.793 507.741 724.793Z" fill="#D42462"/>
<path d="M474.715 739.224C478.461 739.224 481.498 736.193 481.498 732.454C481.498 728.715 478.461 725.684 474.715 725.684C470.968 725.684 467.931 728.715 467.931 732.454C467.931 736.193 470.968 739.224 474.715 739.224Z" fill="#D42462"/>
<path d="M473.108 752.942C473.108 754.546 471.858 755.793 470.251 755.793C468.645 755.793 467.395 754.546 467.395 752.942C467.395 751.339 468.645 750.092 470.251 750.092C471.858 750.092 473.108 751.161 473.108 752.942Z" fill="#D42462"/>
<path d="M406.876 802.649C407.233 801.58 450.078 759.534 465.61 770.936C481.141 782.339 480.784 789.287 480.784 789.287C480.784 789.287 502.564 777.172 511.49 780.735C520.416 784.12 523.987 788.04 523.987 788.04C523.987 788.04 555.05 764.523 570.939 769.155C586.827 773.609 583.078 801.58 583.078 801.58L406.876 802.649Z" fill="#260625"/>
<path d="M477.749 771.471C477.749 775.034 474.893 777.885 471.323 777.885C467.752 777.885 464.896 775.034 464.896 771.471C464.896 767.908 467.752 765.057 471.323 765.057C474.893 765.057 477.749 767.908 477.749 771.471Z" fill="#260625"/>
<path d="M451.685 782.695C451.685 783.942 450.614 785.189 449.186 785.189C447.936 785.189 446.686 784.121 446.686 782.695C446.686 781.448 447.758 780.201 449.186 780.201C450.614 780.201 451.685 781.27 451.685 782.695Z" fill="#4A0727"/>
<path d="M396.164 780.557C396.164 782.695 394.379 784.299 392.415 784.299C390.273 784.299 388.666 782.517 388.666 780.557C388.666 778.419 390.452 776.816 392.415 776.816C394.379 776.816 396.164 778.598 396.164 780.557Z" fill="#260625"/>
<path d="M408.125 783.052C409.21 783.052 410.089 782.174 410.089 781.092C410.089 780.009 409.21 779.132 408.125 779.132C407.041 779.132 406.162 780.009 406.162 781.092C406.162 782.174 407.041 783.052 408.125 783.052Z" fill="#260625"/>
<path d="M585.042 766.483C586.521 766.483 587.72 765.286 587.72 763.81C587.72 762.334 586.521 761.138 585.042 761.138C583.563 761.138 582.364 762.334 582.364 763.81C582.364 765.286 583.563 766.483 585.042 766.483Z" fill="#260625"/>
<path d="M588.077 753.12C582.9 752.051 577.187 751.339 571.296 751.339C556.835 751.339 542.018 763.632 534.877 770.402C542.732 757.396 558.442 738.155 578.437 747.597C582.186 749.201 585.399 751.161 588.077 753.12Z" fill="#D42462"/>
<path d="M369.564 680.787L373.849 687.557C373.849 687.557 315.115 690.942 276.375 687.557C267.985 686.845 259.594 686.31 251.561 685.776C239.421 685.063 228.353 684.885 219.605 684.707C207.822 684.529 200.324 684.707 200.324 684.707L186.221 684.172L102.315 680.787L-34.6121 675.086V674.908L-29.9705 653.885L-29.792 652.994C-24.9719 650.856 26.2643 621.994 41.4388 622.707C56.6132 623.42 102.315 619.322 102.315 619.322C102.315 619.322 165.869 591.707 176.938 590.994C188.006 590.282 210.857 606.851 210.857 606.851C210.857 606.851 347.07 547.523 362.959 547.523C378.848 547.523 391.344 553.759 391.344 553.759L392.058 573L385.096 581.195L394.736 580.483L402.948 585.293L361.531 620.391L372.599 618.253C372.599 618.253 369.921 630.902 367.601 642.661C365.815 651.747 364.209 660.299 364.209 661.724C364.209 665.109 367.601 677.58 367.601 677.58L369.564 680.787Z" fill="#8C303B"/>
<path d="M369.564 680.787L274.233 672.77L239.957 659.052L367.779 677.937L364.387 662.08L317.614 660.833L266.021 644.799L219.962 639.276L195.147 677.224V640.167L179.437 627.339L162.656 649.966L18.9448 656.557L154.265 655.489L133.2 661.19L-14.2605 662.259L-34.2551 675.086V675.264L102.672 680.965L186.578 684.351L200.681 684.885C200.681 684.885 208.179 684.707 219.962 684.885C223.532 684.885 227.638 685.063 231.923 685.063C232.994 685.063 234.065 685.063 235.136 685.241C240.314 685.42 246.026 685.598 251.918 685.954C259.773 686.31 268.163 686.845 276.732 687.736C315.472 691.121 374.206 687.736 374.206 687.736L369.564 680.787ZM316.007 660.655L238.885 658.517H238.707L316.007 660.655Z" fill="#570C2B"/>
<path d="M391.344 553.758L378.848 555.184L375.991 562.845L364.923 556.609L219.783 609.701L214.249 626.27L347.606 622.885C347.606 622.885 296.548 630.546 281.909 631.258C267.449 631.971 210.679 634.644 210.679 634.644L194.79 677.402L210.679 607.029C210.679 607.029 346.892 547.701 362.78 547.701C378.848 547.523 391.344 553.758 391.344 553.758Z" fill="#DF7F4C"/>
<path d="M210.857 606.851L199.075 617.184C199.075 617.184 185.328 597.23 182.472 595.805C179.616 594.379 104.993 629.655 104.993 629.655L161.049 642.839L56.0777 631.08L65.0038 638.741L36.6186 637.316L-29.792 653.885L-29.6135 652.994C-24.7933 650.856 26.4428 621.994 41.6173 622.707C56.7917 623.42 102.494 619.322 102.494 619.322C102.494 619.322 166.048 591.707 177.116 590.994C188.185 590.282 210.857 606.851 210.857 606.851Z" fill="#DF7F4C"/>
<path d="M372.599 618.609C372.599 618.609 369.921 631.259 367.601 643.017L345.642 644.799L269.591 638.385L341.001 631.971L372.599 618.609Z" fill="#570C2B"/>
<path d="M265.485 610.236L348.856 572.109L385.096 568.011L392.058 573L385.096 581.374L311.544 596.517L265.485 610.236Z" fill="#570C2B"/>
<path d="M308.509 597.408L370.1 593.488L402.948 585.471L361.531 620.569L340.108 610.236H265.485L308.509 597.408Z" fill="#570C2B"/>
<path d="M333.146 728.178C333.146 728.178 301.19 731.919 291.55 734.948C286.194 736.552 270.484 734.057 257.987 731.741L254.595 731.029L252.989 730.672L252.632 730.494C245.491 729.069 240.492 727.822 240.492 727.822C242.099 726.396 266.735 703.77 269.948 700.563C273.162 697.356 298.334 674.908 298.334 674.908L309.581 683.282C309.581 683.282 309.938 684.351 310.473 686.132C311.544 689.695 313.508 696.109 315.829 701.632C316.543 703.414 317.257 705.017 317.971 706.442C318.864 708.224 319.935 709.828 320.827 711.075C326.362 718.201 333.146 728.178 333.146 728.178Z" fill="#8C303B"/>
<path d="M309.581 683.46C309.581 683.46 294.942 683.994 294.228 685.063C293.513 686.132 271.02 705.908 271.02 705.908L281.017 711.253C281.017 711.253 268.52 710.184 266.914 710.54C265.307 710.718 241.92 726.931 240.492 728C242.099 726.575 266.735 703.948 269.948 700.741C273.162 697.534 298.334 675.086 298.334 675.086L309.581 683.46Z" fill="#DF7F4C"/>
<path d="M333.146 728.178C333.146 728.178 301.19 731.919 291.55 734.948C286.194 736.552 270.484 734.057 257.987 731.741L254.595 731.029L252.989 730.672L252.632 730.494C252.632 730.494 264.057 724.971 270.841 721.586C277.625 718.201 288.336 718.023 292.621 716.598C296.905 715.172 312.973 712.856 312.973 712.856L289.05 714.638L293.871 697.356L310.652 686.132C311.723 689.695 313.687 696.109 316.007 701.632L304.76 705.73L318.15 706.442C319.042 708.224 320.113 709.827 321.006 711.075C326.362 718.201 333.146 728.178 333.146 728.178Z" fill="#570C2B"/>
<path d="M685.015 644.799C675.018 644.621 653.595 643.017 639.491 641.77C631.636 641.057 625.924 640.701 625.924 640.701C625.924 640.701 626.102 640.523 626.638 639.988C630.03 637.138 644.312 624.845 652.524 620.569C661.807 615.759 666.806 613.621 670.376 613.621C671.983 613.621 677.517 615.224 683.051 617.184C687.693 618.787 692.334 620.747 695.369 622.529C696.619 623.241 697.512 623.776 698.047 624.31C701.796 627.873 706.616 631.615 706.616 631.615C706.616 631.615 709.116 631.615 711.972 631.615H720.005C722.505 631.615 722.505 634.109 726.611 637.138C730.895 640.345 700.546 645.155 685.015 644.799Z" fill="#8C303B"/>
<path d="M683.051 617.362C676.624 617.54 667.163 617.896 663.235 618.609C657.344 619.678 652.524 627.339 652.524 627.339L644.312 629.299L652.524 631.615C652.524 631.615 640.741 634.465 636.992 636.069C634.85 636.96 630.208 638.741 626.638 639.988C630.03 637.138 644.312 624.845 652.524 620.569C661.807 615.759 666.806 613.621 670.376 613.621C671.983 613.799 677.338 615.224 683.051 617.362Z" fill="#DF7F4C"/>
<path d="M658.058 631.615C658.058 631.615 676.446 626.804 687.693 624.31C690.728 623.598 693.405 623.063 695.369 622.529C696.619 623.241 697.512 623.776 698.047 624.31C701.796 627.873 706.616 631.615 706.616 631.615H658.058Z" fill="#570C2B"/>
<path d="M685.015 644.799C675.018 644.621 653.595 643.017 639.491 641.77L647.704 638.207C647.704 638.207 659.843 637.138 660.914 637.138C661.985 637.138 685.015 636.782 690.906 636.425C696.797 636.069 710.544 633.218 710.544 633.218L712.15 631.437H720.184C722.683 631.437 722.683 633.931 726.789 636.96C730.895 640.345 700.546 645.155 685.015 644.799Z" fill="#570C2B"/>
</g>
</g>
<defs>
<radialGradient id="paint0_radial_265_9759" cx="0" cy="0" r="1" gradientUnits="userSpaceOnUse" gradientTransform="translate(781.025 638.604) scale(735.326 735.136)">
<stop stop-color="#FB8198"/>
<stop offset="0.0686" stop-color="#FB859A"/>
<stop offset="0.1317" stop-color="#FB909F"/>
<stop offset="0.1927" stop-color="#FBA2A7"/>
<stop offset="0.2523" stop-color="#FBBDB2"/>
<stop offset="0.3105" stop-color="#FBDEC1"/>
<stop offset="0.3239" stop-color="#FBE7C5"/>
<stop offset="0.6151" stop-color="#42B2FC"/>
<stop offset="1" stop-color="#21295B"/>
</radialGradient>
<linearGradient id="paint1_linear_265_9759" x1="288.113" y1="591.597" x2="1284.06" y2="-72.3384" gradientUnits="userSpaceOnUse">
<stop stop-color="#FFC191"/>
<stop offset="0.5056" stop-color="#E08189"/>
<stop offset="1" stop-color="#6A85C8"/>
</linearGradient>
<linearGradient id="paint2_linear_265_9759" x1="1026.4" y1="447.005" x2="1295.91" y2="440.773" gradientUnits="userSpaceOnUse">
<stop stop-color="#FF8C8B"/>
<stop offset="1" stop-color="#945CA1"/>
</linearGradient>
<linearGradient id="paint3_linear_265_9759" x1="394.856" y1="472.95" x2="889.744" y2="348.133" gradientUnits="userSpaceOnUse">
<stop stop-color="#FFC191"/>
<stop offset="1" stop-color="#E08189"/>
</linearGradient>
<linearGradient id="paint4_linear_265_9759" x1="382.755" y1="413.734" x2="1513.76" y2="128.481" gradientUnits="userSpaceOnUse">
<stop stop-color="#FFC191"/>
<stop offset="1" stop-color="#E08189"/>
</linearGradient>
<linearGradient id="paint5_linear_265_9759" x1="263.121" y1="25.2569" x2="887.675" y2="-138.122" gradientUnits="userSpaceOnUse">
<stop stop-color="#FFC191"/>
<stop offset="1" stop-color="#E08189"/>
</linearGradient>
<linearGradient id="paint6_linear_265_9759" x1="180.737" y1="247.393" x2="993.223" y2="42.4737" gradientUnits="userSpaceOnUse">
<stop stop-color="#FFE0B3" stop-opacity="0.5"/>
<stop offset="0.3743" stop-color="#FFC191" stop-opacity="0.5"/>
<stop offset="1" stop-color="#E08189"/>
</linearGradient>
<linearGradient id="paint7_linear_265_9759" x1="431.081" y1="173.283" x2="1427" y2="273.278" gradientUnits="userSpaceOnUse">
<stop stop-color="#FF8C8B"/>
<stop offset="1" stop-color="#945CA1"/>
</linearGradient>
<linearGradient id="paint8_linear_265_9759" x1="509.133" y1="436.165" x2="1004.36" y2="334.997" gradientUnits="userSpaceOnUse">
<stop stop-color="#FF8C8B"/>
<stop offset="1" stop-color="#945CA1"/>
</linearGradient>
<linearGradient id="paint9_linear_265_9759" x1="-19.89" y1="546.95" x2="1107.92" y2="546.95" gradientUnits="userSpaceOnUse">
<stop stop-color="#FFE4B3"/>
<stop offset="1" stop-color="#CC5A73"/>
</linearGradient>
<linearGradient id="paint10_linear_265_9759" x1="431.266" y1="205.195" x2="863.46" y2="-32.7878" gradientUnits="userSpaceOnUse">
<stop stop-color="#FF8C8B"/>
<stop offset="1" stop-color="#945CA1"/>
</linearGradient>
<linearGradient id="paint11_linear_265_9759" x1="-39.9305" y1="-51.7625" x2="667.712" y2="-51.7625" gradientUnits="userSpaceOnUse">
<stop stop-color="#FF8C8B"/>
<stop offset="1" stop-color="#945CA1"/>
</linearGradient>
<linearGradient id="paint12_linear_265_9759" x1="563.343" y1="192.787" x2="1042.75" y2="37.7351" gradientUnits="userSpaceOnUse">
<stop stop-color="#FF8C8B"/>
<stop offset="1" stop-color="#945CA1"/>
</linearGradient>
<linearGradient id="paint13_linear_265_9759" x1="141.661" y1="539.451" x2="984.492" y2="780.354" gradientUnits="userSpaceOnUse">
<stop stop-color="#FFC191"/>
<stop offset="1" stop-color="#E98C90"/>
</linearGradient>
<clipPath id="clip0_265_9759">
<rect width="1322" height="794" fill="white"/>
</clipPath>
</defs>
</svg>
