<svg width="50" height="50" viewBox="0 0 50 50" fill="none" xmlns="http://www.w3.org/2000/svg">
<path d="M2.5 22.5C2.00555 22.5 1.5222 22.6466 1.11108 22.9213C0.699953 23.196 0.379521 23.5865 0.190302 24.0433C0.0010832 24.5001 -0.0484251 25.0028 0.0480379 25.4877C0.144501 25.9727 0.382603 26.4181 0.732234 26.7678C1.08187 27.1174 1.52732 27.3555 2.01228 27.452C2.49723 27.5484 2.9999 27.4989 3.45671 27.3097C3.91353 27.1205 4.30397 26.8001 4.57868 26.3889C4.85338 25.9778 5 25.4945 5 25C5 24.337 4.73661 23.7011 4.26777 23.2322C3.79893 22.7634 3.16304 22.5 2.5 22.5ZM7.325 39.15C6.97388 39.499 6.7343 39.9445 6.63663 40.4298C6.53896 40.9152 6.5876 41.4186 6.77638 41.8763C6.96516 42.334 7.28559 42.7253 7.69703 43.0007C8.10848 43.276 8.59241 43.423 9.0875 43.423C9.58259 43.423 10.0665 43.276 10.478 43.0007C10.8894 42.7253 11.2098 42.334 11.3986 41.8763C11.5874 41.4186 11.636 40.9152 11.5384 40.4298C11.4407 39.9445 11.2011 39.499 10.85 39.15C10.3816 38.6844 9.74797 38.423 9.0875 38.423C8.42704 38.423 7.79341 38.6844 7.325 39.15ZM10.85 10.85C11.2011 10.501 11.4407 10.0555 11.5384 9.57018C11.636 9.08482 11.5874 8.58139 11.3986 8.12371C11.2098 7.66603 10.8894 7.2747 10.478 6.99934C10.0665 6.72398 9.58259 6.57698 9.0875 6.57698C8.59241 6.57698 8.10848 6.72398 7.69703 6.99934C7.28559 7.2747 6.96516 7.66603 6.77638 8.12371C6.5876 8.58139 6.53896 9.08482 6.63663 9.57018C6.7343 10.0555 6.97388 10.501 7.325 10.85C7.79341 11.3156 8.42704 11.577 9.0875 11.577C9.74797 11.577 10.3816 11.3156 10.85 10.85ZM25 5C25.4945 5 25.9778 4.85338 26.3889 4.57868C26.8001 4.30397 27.1205 3.91353 27.3097 3.45671C27.4989 2.99989 27.5484 2.49723 27.452 2.01228C27.3555 1.52732 27.1174 1.08187 26.7678 0.732234C26.4181 0.382603 25.9727 0.144501 25.4877 0.0480379C25.0028 -0.0484251 24.5001 0.00108321 24.0433 0.190302C23.5865 0.379521 23.196 0.699953 22.9213 1.11108C22.6466 1.5222 22.5 2.00555 22.5 2.5C22.5 3.16304 22.7634 3.79893 23.2322 4.26777C23.7011 4.73661 24.337 5 25 5ZM39.15 39.15C38.7989 39.499 38.5593 39.9445 38.4616 40.4298C38.364 40.9152 38.4126 41.4186 38.6014 41.8763C38.7902 42.334 39.1106 42.7253 39.522 43.0007C39.9335 43.276 40.4174 43.423 40.9125 43.423C41.4076 43.423 41.8915 43.276 42.303 43.0007C42.7144 42.7253 43.0348 42.334 43.2236 41.8763C43.4124 41.4186 43.461 40.9152 43.3634 40.4298C43.2657 39.9445 43.0261 39.499 42.675 39.15C42.2066 38.6844 41.573 38.423 40.9125 38.423C40.252 38.423 39.6184 38.6844 39.15 39.15ZM47.5 22.5C47.0055 22.5 46.5222 22.6466 46.1111 22.9213C45.6999 23.196 45.3795 23.5865 45.1903 24.0433C45.0011 24.5001 44.9516 25.0028 45.048 25.4877C45.1445 25.9727 45.3826 26.4181 45.7322 26.7678C46.0819 27.1174 46.5273 27.3555 47.0123 27.452C47.4972 27.5484 47.9999 27.4989 48.4567 27.3097C48.9135 27.1205 49.304 26.8001 49.5787 26.3889C49.8534 25.9778 50 25.4945 50 25C50 24.337 49.7366 23.7011 49.2678 23.2322C48.7989 22.7634 48.163 22.5 47.5 22.5ZM39.15 7.325C38.7989 7.67404 38.5593 8.11947 38.4616 8.60482C38.364 9.09018 38.4126 9.59361 38.6014 10.0513C38.7902 10.509 39.1106 10.9003 39.522 11.1757C39.9335 11.451 40.4174 11.598 40.9125 11.598C41.4076 11.598 41.8915 11.451 42.303 11.1757C42.7144 10.9003 43.0348 10.509 43.2236 10.0513C43.4124 9.59361 43.461 9.09018 43.3634 8.60482C43.2657 8.11947 43.0261 7.67404 42.675 7.325C42.2066 6.85937 41.573 6.59802 40.9125 6.59802C40.252 6.59802 39.6184 6.85937 39.15 7.325ZM25 45C24.5055 45 24.0222 45.1466 23.6111 45.4213C23.2 45.696 22.8795 46.0865 22.6903 46.5433C22.5011 47.0001 22.4516 47.5028 22.548 47.9877C22.6445 48.4727 22.8826 48.9181 23.2322 49.2678C23.5819 49.6174 24.0273 49.8555 24.5123 49.952C24.9972 50.0484 25.4999 49.9989 25.9567 49.8097C26.4135 49.6205 26.804 49.3001 27.0787 48.8889C27.3534 48.4778 27.5 47.9945 27.5 47.5C27.5 46.837 27.2366 46.2011 26.7678 45.7322C26.2989 45.2634 25.663 45 25 45ZM25 10C22.0333 10 19.1332 10.8797 16.6664 12.528C14.1997 14.1762 12.2771 16.5189 11.1418 19.2598C10.0065 22.0006 9.70944 25.0166 10.2882 27.9264C10.867 30.8361 12.2956 33.5088 14.3934 35.6066C16.4912 37.7044 19.1639 39.133 22.0736 39.7118C24.9834 40.2906 27.9994 39.9935 30.7403 38.8582C33.4811 37.7229 35.8238 35.8003 37.472 33.3336C39.1203 30.8668 40 27.9667 40 25C40 21.0218 38.4197 17.2064 35.6066 14.3934C32.7936 11.5804 28.9782 10 25 10ZM25 35C23.0222 35 21.0888 34.4135 19.4443 33.3147C17.7998 32.2159 16.5181 30.6541 15.7612 28.8268C15.0043 26.9996 14.8063 24.9889 15.1921 23.0491C15.578 21.1093 16.5304 19.3275 17.9289 17.9289C19.3275 16.5304 21.1093 15.578 23.0491 15.1921C24.9889 14.8063 26.9996 15.0043 28.8268 15.7612C30.6541 16.5181 32.2159 17.7998 33.3147 19.4443C34.4135 21.0888 35 23.0222 35 25C35 27.6522 33.9464 30.1957 32.0711 32.0711C30.1957 33.9464 27.6522 35 25 35Z" fill="white"/>
</svg>
