<svg width="20" height="16" viewBox="0 0 20 16" fill="none" xmlns="http://www.w3.org/2000/svg">
<path d="M19.5123 2.44232C18.8223 2.74349 18.0871 2.94311 17.3206 3.04003C18.1091 2.57156 18.711 1.83538 18.9939 0.948051C18.2587 1.38422 17.447 1.6923 16.5819 1.86423C15.8838 1.12459 14.8889 0.666504 13.8035 0.666504C11.6976 0.666504 10.0022 2.36732 10.0022 4.45238C10.0022 4.75239 10.0278 5.04086 10.0904 5.31549C6.92809 5.16202 4.12993 3.6539 2.25019 1.35652C1.92202 1.92308 1.72952 2.57156 1.72952 3.26966C1.72952 4.58046 2.4079 5.74242 3.41909 6.41513C2.80797 6.40359 2.20844 6.22705 1.70053 5.94897C1.70053 5.9605 1.70053 5.9755 1.70053 5.9905C1.70053 7.82979 3.01902 9.35753 4.74801 9.70946C4.43839 9.79369 4.10094 9.83408 3.75074 9.83408C3.50722 9.83408 3.26138 9.82023 3.03061 9.76946C3.52345 11.2684 4.92195 12.3703 6.58485 12.4061C5.29071 13.4134 3.64753 14.0204 1.86867 14.0204C1.55674 14.0204 1.25756 14.0065 0.958374 13.9684C2.6433 15.0496 4.64016 15.6669 6.79358 15.6669C13.793 15.6669 17.6198 9.89754 17.6198 4.89663C17.6198 4.72931 17.614 4.56777 17.6059 4.40738C18.3608 3.87429 18.9951 3.2085 19.5123 2.44232Z" fill="white"/>
</svg>
