<svg width="334" height="249" viewBox="0 0 334 249" fill="none" xmlns="http://www.w3.org/2000/svg">
<path d="M333.552 218.41H0V218.576H333.552V218.41Z" fill="#EBEBEB"/>
<path d="M296.121 228.022H256.168V228.189H296.121V228.022Z" fill="#EBEBEB"/>
<path d="M226.081 224.414H191.012V224.58H226.081V224.414Z" fill="#EBEBEB"/>
<path d="M252.559 227.943H241.651V228.109H252.559V227.943Z" fill="#EBEBEB"/>
<path d="M69.8991 224.333H37.4312V224.5H69.8991V224.333Z" fill="#EBEBEB"/>
<path d="M79.819 224.333H72.8611V224.5H79.819V224.333Z" fill="#EBEBEB"/>
<path d="M134.975 225.768H112.527V225.935H134.975V225.768Z" fill="#EBEBEB"/>
<path d="M158.103 188.657H29.2925C28.2834 188.655 27.3162 188.253 26.6033 187.539C25.8904 186.825 25.49 185.857 25.49 184.848V3.7758C25.4988 2.7725 25.9031 1.81317 26.615 1.1062C27.327 0.399233 28.2891 0.00171872 29.2925 0H158.103C159.114 0 160.083 0.401321 160.797 1.11568C161.511 1.83003 161.913 2.79891 161.913 3.80916V184.848C161.913 185.858 161.511 186.827 160.797 187.541C160.083 188.256 159.114 188.657 158.103 188.657V188.657ZM29.2925 0.133421C28.3276 0.135188 27.4029 0.519717 26.7212 1.20261C26.0396 1.88549 25.6568 2.81094 25.6568 3.7758V184.848C25.6568 185.813 26.0396 186.738 26.7212 187.421C27.4029 188.104 28.3276 188.488 29.2925 188.49H158.103C159.069 188.488 159.994 188.104 160.677 187.421C161.36 186.739 161.744 185.813 161.746 184.848V3.7758C161.744 2.81033 161.36 1.8849 160.677 1.2022C159.994 0.5195 159.069 0.135185 158.103 0.133421H29.2925Z" fill="#EBEBEB"/>
<path d="M302.405 188.657H173.587C172.577 188.655 171.609 188.253 170.895 187.539C170.181 186.825 169.78 185.857 169.778 184.848V3.7758C169.788 2.77189 170.194 1.81257 170.907 1.10579C171.62 0.399 172.583 0.00169997 173.587 0H302.405C303.407 0.00347194 304.367 0.401762 305.078 1.10854C305.788 1.81533 306.192 2.77365 306.2 3.7758V184.848C306.2 185.856 305.801 186.822 305.089 187.536C304.378 188.25 303.413 188.653 302.405 188.657V188.657ZM173.587 0.133421C172.622 0.135185 171.696 0.5195 171.013 1.2022C170.331 1.8849 169.946 2.81033 169.945 3.7758V184.848C169.946 185.813 170.331 186.739 171.013 187.421C171.696 188.104 172.622 188.488 173.587 188.49H302.405C303.37 188.488 304.296 188.104 304.978 187.421C305.661 186.739 306.045 185.813 306.047 184.848V3.7758C306.045 2.81033 305.661 1.8849 304.978 1.2022C304.296 0.5195 303.37 0.135185 302.405 0.133421H173.587Z" fill="#EBEBEB"/>
<path d="M245.774 217.008C243.779 217.003 241.866 216.207 240.457 214.794C239.048 213.38 238.256 211.466 238.256 209.47V145.101C238.261 143.11 239.055 141.201 240.464 139.793C241.873 138.386 243.783 137.593 245.774 137.59H286.661V217.008H245.774Z" fill="#E6E6E6"/>
<path d="M286.661 137.59C288.655 137.59 290.568 138.381 291.98 139.789C293.391 141.197 294.187 143.107 294.193 145.101V207.809C294.193 209.017 293.955 210.213 293.492 211.33C293.03 212.446 292.352 213.46 291.498 214.314C290.644 215.168 289.63 215.846 288.514 216.308C287.398 216.771 286.201 217.008 284.993 217.008H279.169V145.101C279.173 143.114 279.963 141.208 281.366 139.801C282.77 138.394 284.673 137.599 286.661 137.59V137.59Z" fill="#E0E0E0"/>
<path d="M63.4216 165.915L60.7532 133.08C60.6176 131.699 60.7755 130.305 61.2165 128.989C61.6574 127.674 62.3716 126.466 63.312 125.446C64.2524 124.425 65.3979 123.615 66.6734 123.068C67.9489 122.522 69.3255 122.251 70.713 122.273H225.147C228.08 122.33 230.889 123.462 233.042 125.455C235.194 127.447 236.539 130.161 236.822 133.08L239.49 165.915C239.578 166.845 239.47 167.783 239.172 168.669C238.874 169.555 238.393 170.368 237.761 171.056C237.129 171.744 236.36 172.291 235.503 172.663C234.646 173.035 233.72 173.222 232.786 173.213H71.3468C69.3597 173.183 67.4533 172.423 65.9915 171.077C64.5297 169.73 63.6148 167.893 63.4216 165.915V165.915Z" fill="#E0E0E0"/>
<path d="M76.7702 165.915L74.1018 133.08C73.9663 131.7 74.124 130.306 74.5646 128.991C75.0052 127.676 75.7187 126.468 76.6584 125.448C77.5981 124.428 78.7428 123.617 80.0175 123.07C81.2921 122.523 82.668 122.252 84.055 122.273H238.489C241.422 122.33 244.231 123.462 246.384 125.455C248.536 127.447 249.881 130.161 250.164 133.08L252.832 165.915C252.92 166.842 252.812 167.778 252.516 168.661C252.22 169.544 251.743 170.356 251.115 171.043C250.486 171.731 249.721 172.279 248.868 172.653C248.014 173.026 247.092 173.217 246.161 173.213H84.7221C82.73 173.191 80.8163 172.434 79.3485 171.087C77.8808 169.74 76.9625 167.898 76.7702 165.915V165.915Z" fill="#F0F0F0"/>
<path d="M267.509 142.48C267.509 142.48 270.25 140.819 269.183 140.078C268.116 139.338 263.559 141.126 263.559 141.126C263.559 141.126 237.215 140.305 221.832 141.599C221.639 140.145 219.55 139.698 217.909 140.058C216.268 140.419 218.029 142.727 218.029 142.727C218.029 142.727 208.443 162.706 209.397 172.466C207.736 173.614 206.062 174.468 207.863 174.841C209.012 175.062 210.203 174.843 211.198 174.227C211.198 174.227 246.195 175.815 260.23 173.2C261.291 174.468 263.292 174.094 264.433 173.62C265.574 173.147 263.506 171.332 263.506 171.332C263.506 171.332 271.131 153.887 267.509 142.48Z" fill="white"/>
<path d="M76.0032 142.48C76.0032 142.48 73.2614 140.819 74.3354 140.078C75.4094 139.338 79.9591 141.126 79.9591 141.126C79.9591 141.126 106.296 140.305 121.68 141.599C121.88 140.145 123.968 139.698 125.602 140.058C127.237 140.419 125.482 142.727 125.482 142.727C125.482 142.727 135.068 162.706 134.115 172.466C135.776 173.614 137.45 174.468 135.649 174.841C134.499 175.062 133.309 174.843 132.313 174.227C132.313 174.227 97.3104 175.815 83.2746 173.2C82.2139 174.468 80.2126 174.094 79.0718 173.62C77.9311 173.147 79.9991 171.332 79.9991 171.332C79.9991 171.332 72.3808 153.887 76.0032 142.48Z" fill="white"/>
<path d="M58.6184 217.008C56.6226 217.003 54.7103 216.207 53.3009 214.794C51.8916 213.38 51.1001 211.466 51.1001 209.47V145.101C51.1054 143.11 51.8994 141.201 53.3084 139.793C54.7174 138.386 56.6266 137.593 58.6184 137.59H94.1483V217.008H58.6184Z" fill="#E6E6E6"/>
<path d="M273.739 180.538V174.054C273.739 171.696 271.828 169.784 269.47 169.784H96.67C94.3121 169.784 92.4006 171.696 92.4006 174.054V180.538C92.4006 182.896 94.3121 184.808 96.67 184.808H269.47C271.828 184.808 273.739 182.896 273.739 180.538Z" fill="#EBEBEB"/>
<path d="M268.436 214.721V187.089C268.436 185.829 267.414 184.808 266.154 184.808H94.682C93.422 184.808 92.4006 185.829 92.4006 187.089V214.721C92.4006 215.981 93.422 217.002 94.682 217.002H266.154C267.414 217.002 268.436 215.981 268.436 214.721Z" fill="#F0F0F0"/>
<path d="M94.1483 137.59C96.14 137.593 98.0493 138.386 99.4583 139.793C100.867 141.201 101.661 143.11 101.667 145.101V217.008H86.6367V145.101C86.642 143.111 87.4351 141.203 88.8427 139.796C90.2502 138.388 92.1577 137.595 94.1483 137.59V137.59Z" fill="#E0E0E0"/>
<path d="M61.4269 218.396H281.264C281.632 218.396 281.985 218.25 282.245 217.99C282.505 217.73 282.652 217.377 282.652 217.009H60.0393C60.0393 217.377 60.1855 217.73 60.4457 217.99C60.7059 218.25 61.0589 218.396 61.4269 218.396V218.396Z" fill="#E0E0E0"/>
<path d="M85.7761 74.4087H121.032V39.1523L85.7761 39.1523V74.4087Z" fill="#F5F5F5"/>
<path d="M85.7695 39.1589H84.2085V74.4153H85.7695V39.1589Z" fill="#E0E0E0"/>
<path d="M88.3579 71.8269H118.451V41.7339H88.3579V71.8269Z" fill="white"/>
<path d="M103.402 63.073L109.685 56.7898L103.402 50.5066L97.1189 56.7898L103.402 63.073Z" fill="#F5F5F5"/>
<path d="M40.173 97.3569H75.4294V62.1005L40.173 62.1005L40.173 97.3569Z" fill="#F5F5F5"/>
<path d="M40.1662 62.1006H38.6052V97.357H40.1662V62.1006Z" fill="#E0E0E0"/>
<path d="M42.6278 94.9021H72.9744V64.5556H42.6278V94.9021Z" fill="white"/>
<path d="M55.5973 79.7335L57.8049 81.9412L60.0126 79.7335L57.8049 77.5259L55.5973 79.7335Z" fill="#F5F5F5"/>
<path d="M235.114 27.0977H191.819V104.695H235.114V27.0977Z" fill="#E6E6E6"/>
<path d="M237.756 27.0977H194.461V104.695H237.756V27.0977Z" fill="#F5F5F5"/>
<path d="M233.006 100.259V31.5273L199.21 31.5273V100.259H233.006Z" fill="white"/>
<path d="M233.006 100.266V31.5339H231.005V100.266H233.006Z" fill="#E6E6E6"/>
<path d="M235.788 49.8394H196.422V55.7899H235.788V49.8394Z" fill="#F5F5F5"/>
<path d="M235.788 39.3457H196.422V45.2963H235.788V39.3457Z" fill="#F5F5F5"/>
<path d="M293.479 27.0977H250.184V104.695H293.479V27.0977Z" fill="#E6E6E6"/>
<path d="M296.12 27.0977H252.825V104.695H296.12V27.0977Z" fill="#F5F5F5"/>
<path d="M291.371 100.266V31.5339L257.575 31.5339V100.266H291.371Z" fill="white"/>
<path d="M291.371 100.259V31.5273H289.369V100.259H291.371Z" fill="#E6E6E6"/>
<path d="M294.159 49.8394H254.793V55.7899H294.159V49.8394Z" fill="#F5F5F5"/>
<path d="M294.159 39.3457H254.793V45.2963H294.159V39.3457Z" fill="#F5F5F5"/>
<path d="M176.742 27.0977H133.447V104.695H176.742V27.0977Z" fill="#E6E6E6"/>
<path d="M179.391 27.0977H136.096V104.695H179.391V27.0977Z" fill="#F5F5F5"/>
<path d="M174.634 100.266V31.5339L140.839 31.5339V100.266H174.634Z" fill="white"/>
<path d="M174.634 100.259V31.5273H172.633V100.259H174.634Z" fill="#E6E6E6"/>
<path d="M177.423 49.8394H138.057V55.7899H177.423V49.8394Z" fill="#F5F5F5"/>
<path d="M177.423 39.3457H138.057V45.2963H177.423V39.3457Z" fill="#F5F5F5"/>
<path d="M166.776 248.536C238.211 248.536 296.121 245.155 296.121 240.984C296.121 236.814 238.211 233.433 166.776 233.433C95.3407 233.433 37.4312 236.814 37.4312 240.984C37.4312 245.155 95.3407 248.536 166.776 248.536Z" fill="#F5F5F5"/>
<path d="M261.358 99.0517L260.724 98.8382C261.063 97.8878 261.191 96.8747 261.097 95.8699C261.004 94.865 260.692 93.8927 260.184 93.0211C259.666 92.1754 258.969 91.4542 258.141 90.9088C257.313 90.3634 256.375 90.0073 255.394 89.8657L246.014 88.338L246.121 87.6709L255.501 89.2119C256.578 89.3652 257.608 89.7551 258.517 90.3537C259.426 90.9524 260.191 91.7448 260.757 92.6742C261.315 93.6297 261.657 94.6953 261.761 95.7967C261.865 96.8981 261.727 98.0089 261.358 99.0517V99.0517Z" fill="#263238"/>
<path d="M236.74 86.1582L236.632 86.8167L242.532 87.7774L242.639 87.119L236.74 86.1582Z" fill="#263238"/>
<path d="M133.421 227.389L205.381 239.103C207.058 239.315 208.757 238.951 210.201 238.071C211.644 237.191 212.746 235.848 213.326 234.26L259.156 98.3045C259.432 97.5973 259.543 96.8368 259.482 96.0804C259.421 95.324 259.189 94.5913 258.803 93.9375C258.418 93.2837 257.889 92.7259 257.257 92.306C256.625 91.8861 255.906 91.6151 255.154 91.5134L183.167 79.799C181.49 79.5863 179.79 79.9497 178.346 80.8297C176.903 81.7096 175.801 83.0539 175.222 84.6422L129.418 220.591C129.143 221.299 129.032 222.06 129.093 222.816C129.154 223.573 129.386 224.306 129.771 224.961C130.157 225.615 130.685 226.173 131.317 226.594C131.949 227.015 132.669 227.286 133.421 227.389V227.389Z" fill="#263238"/>
<path d="M129.145 226.695L201.112 238.409C202.788 238.623 204.487 238.26 205.93 237.38C207.373 236.5 208.473 235.155 209.05 233.566L254.887 97.6172C255.162 96.9096 255.273 96.1488 255.212 95.392C255.151 94.6352 254.919 93.9021 254.534 93.2479C254.149 92.5936 253.62 92.0352 252.988 91.6146C252.356 91.194 251.637 90.9221 250.884 90.8195L178.904 79.1051C177.228 78.894 175.53 79.2581 174.087 80.138C172.645 81.0178 171.544 82.3613 170.965 83.9483L125.129 219.904C124.853 220.612 124.742 221.374 124.804 222.131C124.866 222.888 125.099 223.622 125.486 224.276C125.873 224.93 126.403 225.487 127.037 225.906C127.671 226.325 128.391 226.595 129.145 226.695V226.695Z" fill="#FF6C2C"/>
<path d="M201.712 236.635C202.878 236.784 204.059 236.531 205.062 235.919C206.065 235.307 206.829 234.371 207.229 233.266L253.066 97.317C253.257 96.8244 253.334 96.2946 253.291 95.7678C253.248 95.241 253.086 94.7308 252.816 94.2759C252.547 93.821 252.178 93.4333 251.737 93.1419C251.296 92.8505 250.795 92.6631 250.271 92.5939L178.31 80.8796C177.148 80.7281 175.969 80.9756 174.965 81.5815C173.962 82.1874 173.194 83.1159 172.787 84.2151L126.957 220.164C126.764 220.656 126.685 221.186 126.728 221.713C126.77 222.24 126.931 222.75 127.2 223.205C127.469 223.66 127.838 224.048 128.279 224.34C128.72 224.631 129.221 224.818 129.745 224.887L201.712 236.635Z" fill="white"/>
<path opacity="0.1" d="M249.797 139.618C210.284 137.05 212.786 87.6507 181.085 94.9622C130.352 106.656 132.92 84.6754 169.865 69.2453C206.809 53.8152 278.823 64.5756 279.203 95.6626C279.41 114.835 272.912 141.126 249.797 139.618Z" fill="#FF6C2C"/>
<path opacity="0.1" d="M251.318 126.823C210.625 118.484 232.853 80.4795 189.424 71.1133C127.857 57.838 161.686 39.546 201.719 39.3792C241.752 39.2125 299.97 64.5624 278.936 95.2358C265.981 114.128 275.134 131.706 251.318 126.823Z" fill="#FF6C2C"/>
<path d="M197.356 90.5727L227.015 95.3958C228.085 95.5383 229.173 95.439 230.2 95.1053C231.226 94.7717 232.164 94.2122 232.946 93.4679L236.948 89.7254L192.079 82.4207L193.273 87.0103C193.525 87.9413 194.048 88.7766 194.774 89.4107C195.501 90.0448 196.399 90.4492 197.356 90.5727V90.5727Z" fill="#FF6C2C"/>
<path d="M188.503 191.432L194.127 191.292L195.308 178.223L189.678 178.363L188.503 191.432Z" fill="#FFB573"/>
<path d="M194.407 191.018L189.01 188.076C188.912 188.021 188.798 188.002 188.688 188.022C188.577 188.041 188.477 188.098 188.403 188.183L185.034 192.046C184.952 192.139 184.893 192.249 184.86 192.369C184.827 192.489 184.821 192.614 184.844 192.736C184.866 192.858 184.916 192.973 184.989 193.073C185.063 193.173 185.158 193.255 185.268 193.313C187.229 194.341 190.111 195.761 192.559 197.096C195.421 198.65 195.635 198.61 198.99 200.431C200.991 201.539 202.699 199.764 201.952 199.144C198.543 196.195 197.609 195.922 195.388 192.046C195.166 191.617 194.825 191.26 194.407 191.018V191.018Z" fill="#263238"/>
<path d="M132.487 95.8894C135.742 98.5578 139.158 101.226 142.526 103.795C145.835 106.35 149.282 108.719 152.853 110.893C153.293 111.166 153.72 111.4 154.187 111.626L155.281 112.213C155.774 112.434 156.309 112.545 156.849 112.54C158.478 112.414 160.056 111.919 161.465 111.093C163.203 110.126 164.852 109.01 166.395 107.757C167.189 107.09 167.996 106.423 168.777 105.756C169.557 105.089 170.338 104.322 171.038 103.641L174.407 106.196C173.803 107.192 173.149 108.156 172.446 109.085C171.779 110.005 171.052 110.919 170.271 111.786C168.705 113.602 166.939 115.235 165.008 116.656C162.814 118.332 160.237 119.432 157.51 119.858C155.869 120.081 154.2 119.919 152.633 119.385C152.426 119.325 152.233 119.238 152.033 119.165C151.833 119.091 151.739 119.038 151.586 118.971L150.758 118.598C150.205 118.351 149.658 118.097 149.144 117.824C145.104 115.716 141.224 113.315 137.536 110.639C133.887 108.024 130.418 105.302 126.983 102.367L132.487 95.8894Z" fill="#FFB573"/>
<path d="M122.253 101.933C124.315 106.91 133.948 109.618 133.948 109.618L139.731 100.859C139.731 100.859 135.575 96.343 129.958 94.802C123.074 92.9208 120.005 96.4965 122.253 101.933Z" fill="#FF6C2C"/>
<path opacity="0.2" d="M127.637 100.639C124.922 101.306 123.468 102.641 123.241 103.555C126.396 107.497 133.914 109.619 133.914 109.619L138.01 103.415C136.316 101.727 131.88 99.6053 127.637 100.639Z" fill="black"/>
<path d="M170.378 104.168L174.207 99.425L178.03 104.155C178.03 104.155 175.522 108.825 171.779 107.17L170.378 104.168Z" fill="#FFB573"/>
<path d="M178.183 96.363L180.351 101.226L178.03 104.155L174.207 99.425L178.183 96.363Z" fill="#FFB573"/>
<path opacity="0.2" d="M195.301 178.223L194.701 184.961L189.07 185.101L189.671 178.363L195.301 178.223Z" fill="black"/>
<path d="M100.232 110.646C115.862 126.456 125.736 146.929 128.431 150.672L153.66 134.234C144.775 112.047 134.314 100.466 129.511 95.9428C128.728 95.21 127.752 94.7164 126.698 94.5202C125.643 94.324 124.555 94.4334 123.561 94.8354L122.513 95.269C121.746 95.5959 120.932 95.9361 120.105 96.363C119.638 96.5832 119.178 96.8167 118.711 97.0635C115.003 99.1895 111.421 101.528 107.984 104.068C107.317 104.542 106.65 105.035 106.049 105.529C105.449 106.023 104.902 106.456 104.375 106.897C101.987 108.918 100.232 110.646 100.232 110.646Z" fill="#FF6C2C"/>
<path opacity="0.2" d="M108.184 115.969C107.696 115.381 107.045 114.95 106.312 114.732C105.58 114.513 104.799 114.517 104.068 114.742C105.823 116.743 107.497 118.744 109.071 120.746C109.284 119.933 109.315 119.084 109.162 118.258C109.008 117.433 108.675 116.651 108.184 115.969V115.969Z" fill="black"/>
<path opacity="0.3" d="M134.815 108.451C134.815 108.451 134.815 108.451 134.775 108.411C134.499 108.044 134.198 107.696 133.874 107.37C132.244 105.714 130.103 104.654 127.797 104.362C126.206 104.149 124.588 104.458 123.187 105.242L123.067 105.316L122.907 105.422C122.63 105.599 122.369 105.8 122.127 106.023C119.458 108.498 119.458 112.847 122.053 116.236C122.053 116.236 122.053 116.236 122.053 116.276L122.093 116.316C122.374 116.682 122.677 117.029 123 117.357C126.143 120.499 130.732 121.293 133.808 119.418C134.144 119.212 134.459 118.973 134.748 118.704C137.417 116.23 137.383 111.887 134.822 108.498C134.823 108.482 134.821 108.466 134.815 108.451V108.451ZM135.268 112.267L134.148 112.934C133.756 112.095 133.29 111.294 132.753 110.539L134.188 109.659C134.702 110.456 135.068 111.34 135.268 112.267V112.267ZM121.593 112.48L122.714 111.813C123.103 112.653 123.569 113.455 124.108 114.208L122.674 115.089C122.157 114.293 121.791 113.409 121.593 112.48V112.48ZM130.505 109.652L130.839 110.052L128.511 111.486L126.823 109.272L128.824 108.044C129.425 108.536 129.987 109.074 130.505 109.652V109.652ZM125.949 108.124L124.521 106.256C124.725 106.229 124.932 106.229 125.135 106.256C125.994 106.381 126.816 106.691 127.543 107.164L125.949 108.124ZM123.487 106.897L124.908 108.765L123.314 109.745C123.007 108.558 123.047 107.544 123.487 106.897V106.897ZM125.782 109.905L127.477 112.12L125.149 113.554C124.624 112.794 124.177 111.982 123.814 111.133L125.782 109.905ZM123.874 116.576C123.754 116.463 123.654 116.343 123.547 116.23L124.982 115.349L125.409 115.849C125.895 116.394 126.417 116.907 126.97 117.384L125.842 118.051C125.12 117.649 124.458 117.148 123.874 116.563V116.576ZM126.356 115.109L126.016 114.709L128.351 113.281L130.038 115.496L128.037 116.717C127.434 116.222 126.872 115.68 126.356 115.095V115.109ZM130.912 116.636L132.34 118.498C132.136 118.525 131.93 118.525 131.726 118.498C130.867 118.373 130.046 118.063 129.318 117.59L130.912 116.636ZM133.374 117.864L131.946 116.003L133.547 115.015C133.854 116.19 133.814 117.21 133.374 117.851V117.864ZM131.079 114.855L129.418 112.627L131.746 111.2C132.273 111.959 132.72 112.77 133.08 113.621L131.079 114.855ZM131.88 109.425L131.453 108.925C130.968 108.381 130.446 107.87 129.892 107.397L131.019 106.73C131.739 107.137 132.401 107.64 132.987 108.224C133.1 108.338 133.207 108.458 133.314 108.571L131.88 109.425ZM129.418 105.996L128.671 106.45C128.227 106.137 127.758 105.861 127.27 105.623C127.477 105.623 127.69 105.623 127.897 105.663C128.414 105.724 128.923 105.836 129.418 105.996V105.996ZM121.826 108.971C121.9 109.47 122.019 109.961 122.18 110.439L121.439 110.893C121.459 110.235 121.59 109.585 121.826 108.971V108.971ZM127.417 118.745L128.157 118.284C128.607 118.597 129.08 118.876 129.571 119.118C128.839 119.095 128.114 118.969 127.417 118.745V118.745ZM135.008 115.763C134.933 115.264 134.815 114.773 134.655 114.295L135.395 113.841C135.386 114.502 135.264 115.156 135.035 115.776L135.008 115.763Z" fill="white"/>
<path d="M111.046 84.4886C111.476 83.4772 111.674 82.382 111.624 81.2839C111.575 80.1858 111.279 79.1129 110.759 78.1445C108.558 73.855 104.088 71.8403 99.5451 71.5735C99.7444 72.2367 99.8079 72.9332 99.7319 73.6215C99.0188 73.5796 98.3032 73.6131 97.5971 73.7216C91.3931 74.6555 87.0569 79.3119 84.8354 84.8288C88.8381 85.0023 91.3931 88.1644 87.177 91.0529C91.5065 91.3464 93.9081 94.9821 91.0995 96.7967C95.5358 99.8987 103.674 99.2183 107.377 95.8561C109.171 94.235 114.455 90.4792 111.046 84.4886Z" fill="#263238"/>
<path d="M101.273 91.353C104.202 94.3683 108.998 100.252 108.084 104.121C111.173 104.788 115.029 105.322 119.218 102.787C123.407 100.252 120.859 97.904 118.804 97.1235C114.362 98.7112 112.6 95.7893 111.52 92.6739L101.273 91.353Z" fill="#FFB573"/>
<path opacity="0.2" d="M105.456 91.9004L111.52 92.6876C111.756 93.4211 112.06 94.1312 112.427 94.809C110.819 95.5494 107.757 95.2559 106.59 93.815C106.097 93.2524 105.712 92.6032 105.456 91.9004V91.9004Z" fill="black"/>
<path d="M97.0168 91.3932C101.933 94.0616 104.675 95.8628 108.591 94.9889C114.488 93.6547 115.963 86.4767 111.927 82.4007C108.304 78.7316 100.879 75.0025 96.1096 78.4581C95.0541 79.2162 94.2101 80.2317 93.6578 81.408C93.1055 82.5844 92.8633 83.8824 92.9542 85.1788C93.0451 86.4751 93.4662 87.7267 94.1773 88.8144C94.8883 89.9021 95.8659 90.7899 97.0168 91.3932V91.3932Z" fill="#FFB573"/>
<path d="M100.372 93.2211C100.692 90.506 99.5117 85.8363 96.9166 84.5955C99.7318 82.8343 102.527 75.9231 99.9253 75.5695C97.3235 75.216 91.6865 78.4714 91.5798 84.3953C91.4731 90.3192 94.6018 92.7875 100.372 93.2211Z" fill="#263238"/>
<path d="M100.005 95.9495C101.281 96.1301 102.576 95.8045 103.614 95.0422C104.949 94.0349 104.215 92.5339 102.667 91.9735C101.273 91.4732 98.898 91.3932 98.1242 92.8074C97.3504 94.2217 98.4244 95.716 100.005 95.9495Z" fill="#FFB573"/>
<path d="M137.163 145.002L149.431 160.445L182.039 146.236C186.275 155.415 187.249 183.84 187.249 183.84L196.775 183.614C196.775 183.614 206.348 151.439 197.136 136.129C188.277 121.406 153.661 134.255 153.661 134.255L137.163 145.002Z" fill="#263238"/>
<path opacity="0.2" d="M160.005 155.842L154.334 158.31L150.212 147.677C150.212 147.677 156.529 151.786 160.005 155.842Z" fill="black"/>
<path opacity="0.2" d="M160.005 155.842L154.334 158.31L150.212 147.677C150.212 147.677 156.529 151.786 160.005 155.842Z" fill="black"/>
<path d="M147.743 138.09C147.743 138.09 167.443 180.918 172.613 196.582C178.283 213.733 178.497 232.859 178.497 232.859L166.689 230.931C166.689 230.931 166.449 220.624 159.298 204.527C151.152 186.195 128.431 150.692 128.431 150.692L147.743 138.09Z" fill="#263238"/>
<path d="M197.976 183.8L186.622 184.08L186.529 180.411L199.224 179.904L197.976 183.8Z" fill="#FF6C2C"/>
<path d="M102.82 85.0489C103.201 85.2891 103.641 85.2824 103.801 85.0489C103.961 84.8154 103.801 84.3818 103.388 84.155C102.974 83.9282 102.56 83.9282 102.407 84.155C102.253 84.3818 102.434 84.8087 102.82 85.0489Z" fill="#263238"/>
<path d="M105.536 80.7195C105.916 80.9597 106.356 80.953 106.516 80.7195C106.676 80.4861 106.516 80.0524 106.103 79.8256C105.689 79.5988 105.275 79.5988 105.122 79.8256C104.969 80.0524 105.149 80.4527 105.536 80.7195Z" fill="#263238"/>
<path d="M104.862 82.2004C106.326 82.4736 107.821 82.5454 109.305 82.4139C109.518 83.4879 108.504 84.4686 108.504 84.4686L104.862 82.2004Z" fill="#ED893E"/>
<path d="M108.524 86.7234C108.205 87.1212 107.808 87.4495 107.357 87.6881C106.906 87.9267 106.411 88.0706 105.903 88.111C105.867 88.1095 105.833 88.0952 105.807 88.0707C105.782 88.0461 105.766 88.013 105.762 87.9776C105.762 87.9422 105.777 87.9083 105.802 87.8833C105.827 87.8582 105.86 87.8442 105.896 87.8442C106.457 87.7884 106.998 87.6018 107.474 87.2995C107.95 86.9971 108.349 86.5873 108.638 86.103C108.647 86.0874 108.659 86.0738 108.673 86.0629C108.687 86.0521 108.704 86.0442 108.721 86.0399C108.739 86.0355 108.757 86.0347 108.774 86.0376C108.792 86.0404 108.809 86.0468 108.824 86.0563C108.854 86.0766 108.874 86.1072 108.881 86.1419C108.889 86.1765 108.883 86.2127 108.864 86.2431C108.76 86.4092 108.646 86.5695 108.524 86.7234Z" fill="#263238"/>
<path d="M100.572 85.516C100.543 85.5499 100.507 85.5771 100.466 85.596C100.399 85.6186 100.327 85.6154 100.262 85.5869C100.198 85.5585 100.147 85.507 100.119 85.4426C99.959 85.05 99.895 84.6249 99.9321 84.2027C99.9693 83.7804 100.106 83.373 100.332 83.0143C100.374 82.9568 100.437 82.9182 100.507 82.907C100.577 82.8957 100.648 82.9127 100.706 82.9543C100.763 82.9959 100.802 83.0586 100.813 83.1287C100.825 83.1987 100.808 83.2704 100.766 83.3279V83.3279C100.592 83.614 100.488 83.9371 100.463 84.2709C100.437 84.6048 100.491 84.9399 100.619 85.2491C100.635 85.2938 100.639 85.342 100.631 85.3887C100.623 85.4355 100.603 85.4794 100.572 85.516V85.516Z" fill="#263238"/>
<path d="M105.209 77.8843C105.179 77.9166 105.143 77.9418 105.103 77.958C105.062 77.9741 105.019 77.9809 104.975 77.9777C104.64 77.9344 104.3 77.9725 103.983 78.0886C103.666 78.2047 103.382 78.3955 103.154 78.6448C103.109 78.6997 103.044 78.7343 102.973 78.7412C102.902 78.7481 102.832 78.7266 102.777 78.6815C102.722 78.6364 102.688 78.5713 102.681 78.5006C102.674 78.43 102.695 78.3594 102.74 78.3046C103.029 77.9952 103.387 77.7588 103.785 77.615C104.183 77.4712 104.609 77.424 105.029 77.4774C105.098 77.4841 105.162 77.518 105.207 77.5717C105.252 77.6253 105.274 77.6945 105.269 77.7642C105.257 77.808 105.237 77.8489 105.209 77.8843Z" fill="#263238"/>
<path d="M194.521 191.966C194.509 191.944 194.504 191.92 194.504 191.896C194.504 191.871 194.509 191.847 194.521 191.826C194.531 191.8 194.548 191.779 194.571 191.763C194.594 191.748 194.62 191.74 194.647 191.739C194.941 191.739 197.476 191.819 197.896 192.486C197.932 192.549 197.952 192.62 197.952 192.693C197.952 192.766 197.932 192.837 197.896 192.9V192.9C197.852 193.012 197.78 193.113 197.689 193.192C197.597 193.271 197.487 193.326 197.369 193.353C196.562 193.534 195.254 192.566 194.541 191.979L194.521 191.966ZM197.609 192.586C197.309 192.253 196.002 192.079 195.014 192.026C196.008 192.8 196.849 193.193 197.302 193.093C197.38 193.074 197.452 193.037 197.512 192.985C197.573 192.933 197.62 192.867 197.649 192.793C197.664 192.768 197.672 192.739 197.672 192.71C197.672 192.68 197.664 192.652 197.649 192.626L197.609 192.586Z" fill="#FF6C2C"/>
<path d="M194.521 191.966V191.932C194.511 191.911 194.505 191.889 194.505 191.865C194.505 191.842 194.511 191.82 194.521 191.799C194.561 191.745 195.421 190.465 196.328 190.311C196.459 190.284 196.594 190.283 196.725 190.309C196.855 190.336 196.979 190.389 197.089 190.465C197.389 190.671 197.396 190.885 197.342 191.032C197.129 191.639 195.341 192.066 194.627 192.006C194.608 192.006 194.588 192.003 194.57 191.996C194.552 191.989 194.535 191.979 194.521 191.966V191.966ZM197.029 190.778C196.998 190.742 196.962 190.711 196.922 190.685C196.843 190.628 196.753 190.588 196.657 190.57C196.562 190.551 196.463 190.554 196.369 190.578C195.764 190.804 195.244 191.211 194.881 191.745C195.688 191.712 196.949 191.305 197.082 190.945C197.089 190.917 197.087 190.888 197.078 190.86C197.068 190.833 197.051 190.809 197.029 190.791V190.778Z" fill="#FF6C2C"/>
<path d="M109.085 116.309L106.91 117.757C106.163 118.264 105.429 118.784 104.695 119.318C103.234 120.372 101.8 121.466 100.399 122.587C98.9981 123.708 97.6572 124.875 96.3964 126.082C95.7293 126.683 95.1422 127.303 94.5351 127.924C94.2216 128.231 93.9548 128.591 93.6612 128.871L93.2276 129.351C93.1276 129.458 93.1542 129.431 93.1342 129.445L93.0742 129.505C92.7777 129.993 92.553 130.521 92.4071 131.072C92.1776 131.843 91.9993 132.627 91.8734 133.421C91.5878 135.175 91.3918 136.943 91.2863 138.717C91.0529 142.353 90.9728 146.136 90.9595 149.845L86.7634 150.392C85.8276 146.57 85.1985 142.679 84.8822 138.757C84.7201 136.727 84.6889 134.688 84.7888 132.653C84.8493 131.552 84.9808 130.456 85.1824 129.371C85.4085 128.057 85.8431 126.786 86.4699 125.609C86.5766 125.429 86.6767 125.249 86.8034 125.068C86.9302 124.888 87.0836 124.662 87.137 124.595L87.6106 123.968C87.9308 123.554 88.231 123.121 88.5646 122.727C89.2317 121.926 89.8988 121.133 90.5659 120.392C91.9393 118.897 93.3935 117.479 94.9221 116.143C96.4297 114.808 97.9974 113.554 99.5918 112.36C100.399 111.78 101.22 111.199 102.047 110.639C102.467 110.359 102.881 110.079 103.314 109.805C103.748 109.532 104.155 109.285 104.648 108.985L109.085 116.309Z" fill="#FFB573"/>
<path d="M107.057 106.296C103.721 106.129 94.9954 115.009 94.9954 115.009L102.387 122.614C102.387 122.614 106.57 120.032 109.852 117.804C116.123 113.541 113.568 106.623 107.057 106.296Z" fill="#FF6C2C"/>
<path d="M90.0589 148.097L93.7346 152.426L87.9508 153.761C87.9508 153.761 84.9155 149.344 87.3704 148.324L90.0589 148.097Z" fill="#FFB573"/>
<path d="M93.1009 157.67L88.5846 157.603L87.9575 153.754L93.7413 152.44L93.1009 157.67Z" fill="#FFB573"/>
<path d="M116.076 58.8052C114.956 57.6866 114.183 56.2679 113.852 54.7201C113.52 53.1724 113.643 51.5617 114.205 50.0822C114.768 48.6027 115.747 47.3176 117.024 46.3818C118.3 45.446 119.821 44.8995 121.401 44.8081C122.981 44.7167 124.554 45.0844 125.93 45.8668C127.306 46.6492 128.427 47.8129 129.156 49.2176C129.886 50.6223 130.194 52.2081 130.042 53.7838C129.891 55.3595 129.287 56.8578 128.304 58.0981C128.858 58.5317 129.391 58.972 129.925 59.4323C130.685 60.0994 131.439 60.7665 132.18 61.4336C132.92 62.1007 133.647 62.8012 134.368 63.495C134.728 63.8418 135.082 64.2021 135.435 64.549C135.626 64.7181 135.781 64.9247 135.889 65.156C135.952 65.2825 135.997 65.4172 136.022 65.5563C136.061 65.7179 136.074 65.8843 136.062 66.05C136.038 66.3486 135.909 66.6291 135.698 66.8416C135.486 67.0541 135.207 67.1849 134.908 67.2107C134.74 67.2226 134.572 67.2091 134.408 67.1707C134.272 67.1424 134.14 67.0976 134.014 67.0373C133.784 66.9282 133.577 66.7739 133.407 66.5836C133.054 66.2234 132.7 65.8765 132.353 65.5096C131.653 64.7958 130.966 64.062 130.285 63.3282C129.605 62.5944 128.951 61.8339 128.284 61.0667C127.837 60.5397 127.39 59.9993 126.95 59.4523C125.371 60.6918 123.393 61.3104 121.39 61.1912C119.387 61.0719 117.496 60.2232 116.076 58.8052ZM125.649 56.7706C126.395 56.0243 126.904 55.0734 127.11 54.0381C127.317 53.0027 127.211 51.9295 126.807 50.9541C126.403 49.9787 125.719 49.145 124.842 48.5585C123.964 47.9719 122.932 47.6588 121.876 47.6588C120.821 47.6588 119.789 47.9719 118.911 48.5585C118.033 49.145 117.349 49.9787 116.945 50.9541C116.542 51.9295 116.436 53.0027 116.642 54.0381C116.848 55.0734 117.357 56.0243 118.104 56.7706C119.105 57.7707 120.461 58.3324 121.876 58.3324C123.291 58.3324 124.648 57.7707 125.649 56.7706V56.7706Z" fill="#263238"/>
<path d="M163.474 21.4142C163.457 21.3004 163.404 21.1952 163.322 21.1145C163.24 21.0338 163.134 20.9821 163.02 20.9673C161.771 20.8685 160.516 21.0274 159.331 21.4342C157.288 22.1149 155.599 23.5784 154.635 25.5034C153.671 27.4284 153.51 29.6574 154.188 31.701C155.128 34.5428 157.523 35.3967 159.404 34.7696C160.189 34.5254 160.906 34.0998 161.496 33.5273C162.085 32.9548 162.532 32.2514 162.8 31.4741C163.139 32.0006 163.649 32.3949 164.243 32.5915C164.838 32.7881 165.482 32.7752 166.069 32.5549C169.004 31.5809 171.092 27.9318 169.404 22.8552C167.583 17.3916 162.473 14.8499 156.969 16.6778C150.358 18.8792 147.116 25.7704 149.424 32.6883C151.346 38.4721 156.823 41.3139 162.453 39.446C164.434 38.8577 166.231 37.774 167.676 36.2973C167.755 36.2037 167.797 36.0857 167.797 35.9638C167.797 35.8418 167.755 35.7238 167.676 35.6302L166.776 34.4828C166.727 34.4263 166.667 34.381 166.599 34.3499C166.531 34.3189 166.457 34.3028 166.382 34.3028C166.308 34.3028 166.234 34.3189 166.166 34.3499C166.098 34.381 166.037 34.4263 165.989 34.4828C164.88 35.6205 163.504 36.4622 161.986 36.931C157.603 38.392 153.627 36.2639 152.093 31.6476C150.245 26.084 152.533 20.8338 157.536 19.1728C161.773 17.7652 165.301 19.5997 166.756 23.9692C167.423 25.8838 167.423 27.685 166.756 28.9125C166.544 29.3939 166.151 29.7726 165.662 29.9665C165.588 29.9967 165.509 30.0089 165.43 30.0019C165.351 29.9949 165.275 29.9691 165.208 29.9265C164.968 29.7664 164.541 29.2193 164.281 27.2914L163.474 21.4142ZM159.825 24.156C160.144 24.0504 160.472 23.9744 160.805 23.9292L161.246 27.0979C161.512 28.9191 160.705 31.4141 159.244 31.8944C157.91 32.3347 157.356 31.2273 157.129 30.5602C156.242 27.8785 157.476 24.9365 159.825 24.156Z" fill="#263238"/>
<path d="M127.684 11.2475C125.509 9.65983 124.542 6.87134 124.208 5.6372C124.165 5.48104 124.076 5.34155 123.952 5.23715C123.828 5.13275 123.676 5.06835 123.515 5.05245C123.353 5.03655 123.191 5.0699 123.05 5.1481C122.908 5.22629 122.793 5.34566 122.72 5.49043V5.49043C122.368 6.37331 122.307 7.34571 122.547 8.26558C122.57 8.354 122.567 8.44702 122.539 8.53401C122.512 8.62101 122.46 8.69848 122.391 8.7576C122.321 8.81672 122.236 8.8551 122.146 8.86836C122.056 8.88163 121.963 8.86924 121.88 8.83262L121.466 8.66584C120.884 8.42655 120.267 8.28457 119.638 8.24557L119.165 8.21221C118.703 8.18237 118.247 8.3335 117.895 8.6336C117.543 8.9337 117.321 9.35918 117.277 9.81993L116.977 13.042C116.938 13.4206 116.956 13.8029 117.03 14.1761C117.185 14.9408 117.564 15.642 118.119 16.1908C118.674 16.7396 119.379 17.1111 120.145 17.2581C121.786 17.565 124.335 18.052 124.782 18.1254L125.922 18.4122L128.591 11.8679L127.684 11.2475Z" fill="#FF6C2C"/>
<path opacity="0.7" d="M127.684 11.2475C125.509 9.65983 124.542 6.87134 124.208 5.6372C124.165 5.48104 124.076 5.34155 123.952 5.23715C123.828 5.13275 123.676 5.06835 123.515 5.05245C123.353 5.03655 123.191 5.0699 123.05 5.1481C122.908 5.22629 122.793 5.34566 122.72 5.49043V5.49043C122.368 6.37331 122.307 7.34571 122.547 8.26558C122.57 8.354 122.567 8.44702 122.539 8.53401C122.512 8.62101 122.46 8.69848 122.391 8.7576C122.321 8.81672 122.236 8.8551 122.146 8.86836C122.056 8.88163 121.963 8.86924 121.88 8.83262L121.466 8.66584C120.884 8.42655 120.267 8.28457 119.638 8.24557L119.165 8.21221C118.703 8.18237 118.247 8.3335 117.895 8.6336C117.543 8.9337 117.321 9.35918 117.277 9.81993L116.977 13.042C116.938 13.4206 116.956 13.8029 117.03 14.1761C117.185 14.9408 117.564 15.642 118.119 16.1908C118.674 16.7396 119.379 17.1111 120.145 17.2581C121.786 17.565 124.335 18.052 124.782 18.1254L125.922 18.4122L128.591 11.8679L127.684 11.2475Z" fill="white"/>
<path d="M129.538 21.1273L125.769 19.4595C125.573 19.3727 125.417 19.2154 125.332 19.019C125.247 18.8225 125.238 18.6012 125.309 18.3988L127.837 11.0607C127.906 10.8599 128.048 10.6923 128.234 10.591C128.421 10.4897 128.638 10.4621 128.844 10.5137L132.847 11.4877C132.963 11.5162 133.071 11.5687 133.165 11.6417C133.26 11.7147 133.338 11.8067 133.394 11.9116C133.451 12.0165 133.485 12.1322 133.494 12.251C133.503 12.3699 133.487 12.4893 133.447 12.6017L130.686 20.607C130.649 20.7196 130.589 20.8234 130.51 20.9117C130.431 21 130.334 21.0709 130.226 21.1198C130.119 21.1687 130.002 21.1947 129.883 21.196C129.765 21.1973 129.647 21.1739 129.538 21.1273V21.1273Z" fill="#FF6C2C"/>
<path d="M95.9161 21.9545L77.9043 24.3093C76.9903 24.4323 76.162 24.9114 75.5997 25.6424C75.0374 26.3734 74.7867 27.2969 74.9023 28.2119L76.1165 37.5513C76.2394 38.4653 76.7186 39.2937 77.4496 39.856C78.1805 40.4182 79.1041 40.6689 80.019 40.5533L93.261 38.8188L93.5879 42.0943L96.5031 38.3985L98.0642 38.1917C98.9781 38.0688 99.8065 37.5896 100.369 36.8587C100.931 36.1277 101.182 35.2041 101.066 34.2892L99.8453 24.9497C99.721 24.0317 99.2373 23.2006 98.5006 22.639C97.7638 22.0774 96.8343 21.8312 95.9161 21.9545V21.9545ZM77.9844 28.332C77.9675 28.2053 77.976 28.0765 78.0092 27.9531C78.0424 27.8297 78.0998 27.7141 78.1779 27.613C78.2561 27.5119 78.3535 27.4273 78.4645 27.3641C78.5756 27.3008 78.6981 27.2602 78.8249 27.2446L82.9743 26.6976C83.2291 26.6639 83.4868 26.7329 83.6907 26.8893C83.8946 27.0457 84.0281 27.2767 84.0617 27.5314C84.0953 27.7862 84.0263 28.0439 83.8699 28.2478C83.7135 28.4517 83.4826 28.5852 83.2278 28.6188L79.0717 29.1592C78.8179 29.1933 78.5609 29.1254 78.357 28.9704C78.1532 28.8153 78.0192 28.5857 77.9844 28.332V28.332ZM96.5899 35.0764L89.3918 36.0237C89.1388 36.0564 88.8832 35.9873 88.6811 35.8315C88.4791 35.6758 88.3472 35.4461 88.3144 35.1931C88.2817 34.9401 88.3508 34.6845 88.5066 34.4824C88.6623 34.2804 88.892 34.1485 89.145 34.1157L96.323 33.1818C96.4483 33.1652 96.5756 33.1733 96.6977 33.2059C96.8199 33.2385 96.9344 33.2948 97.0347 33.3716C97.1351 33.4484 97.2193 33.5442 97.2826 33.6536C97.3459 33.763 97.3871 33.8837 97.4037 34.009C97.4204 34.1343 97.4122 34.2616 97.3796 34.3837C97.3471 34.5058 97.2908 34.6203 97.2139 34.7207C97.1371 34.821 97.0413 34.9053 96.9319 34.9686C96.8226 35.0319 96.7018 35.0731 96.5765 35.0897L96.5899 35.0764ZM96.0629 31.0738L80.566 33.0751C80.4408 33.0913 80.3135 33.0826 80.1916 33.0497C80.0696 33.0167 79.9554 32.96 79.8553 32.8829C79.7553 32.8058 79.6714 32.7097 79.6085 32.6002C79.5456 32.4907 79.5049 32.3698 79.4887 32.2445C79.4725 32.1192 79.4811 31.992 79.5141 31.8701C79.547 31.7481 79.6037 31.6339 79.6808 31.5338C79.7579 31.4338 79.854 31.3499 79.9635 31.287C80.0731 31.2241 80.1939 31.1834 80.3192 31.1671L95.816 29.1658C95.945 29.1405 96.0777 29.1419 96.2061 29.1699C96.3345 29.1979 96.4558 29.252 96.5624 29.3287C96.6691 29.4055 96.7589 29.5033 96.8262 29.6161C96.8936 29.729 96.937 29.8544 96.954 29.9847C96.9709 30.1151 96.9609 30.2475 96.9246 30.3738C96.8883 30.5001 96.8265 30.6176 96.7429 30.719C96.6594 30.8205 96.556 30.9037 96.439 30.9636C96.322 31.0234 96.194 31.0587 96.0629 31.0671V31.0738ZM95.5358 27.0711L86.3632 28.2719C86.1084 28.3055 85.8507 28.2366 85.6468 28.0802C85.4429 27.9238 85.3094 27.6928 85.2758 27.438C85.2422 27.1833 85.3111 26.9256 85.4675 26.7216C85.6239 26.5177 85.8549 26.3843 86.1097 26.3507L95.2823 25.1565C95.5284 25.1385 95.7721 25.2152 95.9635 25.3709C96.155 25.5267 96.2796 25.7497 96.312 25.9943C96.3444 26.2389 96.2821 26.4867 96.1378 26.6869C95.9935 26.887 95.7782 27.0245 95.5358 27.0711V27.0711Z" fill="#FF6C2C"/>
<path d="M174.781 65.6296L150.799 69.4188C149.73 69.5912 148.772 70.1784 148.134 71.0527C147.496 71.9271 147.228 73.018 147.39 74.0885L149.738 88.9849C149.91 90.0537 150.498 91.0112 151.372 91.6495C152.246 92.2878 153.337 92.5552 154.408 92.3938L178.39 88.6113C179.459 88.4389 180.416 87.8517 181.055 86.9774C181.693 86.103 181.96 85.0121 181.799 83.9416L179.451 69.0452C179.278 67.976 178.691 67.0179 177.817 66.3786C176.943 65.7392 175.852 65.4701 174.781 65.6296V65.6296ZM161.812 85.6427L159.905 73.5681L171.312 77.951L161.812 85.6427Z" fill="#FF6C2C"/>
<path opacity="0.5" d="M174.781 65.6296L150.799 69.4188C149.73 69.5912 148.772 70.1784 148.134 71.0527C147.496 71.9271 147.228 73.018 147.39 74.0885L149.738 88.9849C149.91 90.0537 150.498 91.0112 151.372 91.6495C152.246 92.2878 153.337 92.5552 154.408 92.3938L178.39 88.6113C179.459 88.4389 180.416 87.8517 181.055 86.9774C181.693 86.103 181.96 85.0121 181.799 83.9416L179.451 69.0452C179.278 67.976 178.691 67.0179 177.817 66.3786C176.943 65.7392 175.852 65.4701 174.781 65.6296V65.6296ZM161.812 85.6427L159.905 73.5681L171.312 77.951L161.812 85.6427Z" fill="white"/>
<path d="M203.42 42.5946C200.279 42.0476 197.047 42.671 194.335 44.3467C191.623 46.0225 189.62 48.6343 188.705 51.6878C187.789 54.7412 188.025 58.0244 189.367 60.9158C190.709 63.8072 193.065 66.1062 195.988 67.3775L198.256 71.627L201.845 68.4182C205.037 68.2439 208.053 66.9026 210.319 64.6494C212.586 62.3962 213.946 59.3884 214.139 56.1982C214.333 53.0079 213.347 49.8578 211.369 47.3471C209.392 44.8364 206.56 43.1402 203.413 42.5813L203.42 42.5946Z" fill="#FF6C2C"/>
<path opacity="0.3" d="M199.564 64.2888C197.81 63.9777 196.188 63.1533 194.902 61.9201C193.617 60.6869 192.726 59.1002 192.343 57.3607C191.959 55.6211 192.1 53.8069 192.748 52.1475C193.395 50.4881 194.52 49.0579 195.981 48.038C197.441 47.018 199.171 46.4541 200.952 46.4174C202.733 46.3808 204.485 46.8731 205.986 47.8322C207.487 48.7912 208.67 50.1739 209.385 51.8053C210.101 53.4367 210.316 55.2436 210.004 56.9974C209.798 58.162 209.364 59.2745 208.728 60.2714C208.092 61.2683 207.265 62.13 206.295 62.8071C205.326 63.4843 204.232 63.9637 203.077 64.218C201.922 64.4722 200.728 64.4963 199.564 64.2888V64.2888Z" fill="white"/>
</svg>
