<svg width="337" height="251" viewBox="0 0 337 251" fill="none" xmlns="http://www.w3.org/2000/svg">
<path d="M336.858 220.575H0V220.743H336.858V220.575Z" fill="#EBEBEB"/>
<path d="M303.105 231.415H280.792V231.583H303.105V231.415Z" fill="#EBEBEB"/>
<path d="M223.148 233.248H217.294V233.416H223.148V233.248Z" fill="#EBEBEB"/>
<path d="M280.118 225.163H267.189V225.332H280.118V225.163Z" fill="#EBEBEB"/>
<path d="M64.4411 226.295H35.3433V226.463H64.4411V226.295Z" fill="#EBEBEB"/>
<path d="M74.7085 226.295H70.4438V226.463H74.7085V226.295Z" fill="#EBEBEB"/>
<path d="M151.687 229.138H88.5736V229.306H151.687V229.138Z" fill="#EBEBEB"/>
<path d="M159.671 190.527H29.583C28.5639 190.525 27.5871 190.119 26.8672 189.398C26.1472 188.677 25.7428 187.699 25.7428 186.68V3.81324C25.7517 2.79998 26.16 1.83115 26.879 1.11717C27.598 0.403191 28.5697 0.00173576 29.583 0H159.671C160.691 0 161.67 0.4053 162.391 1.12674C163.113 1.84818 163.518 2.82666 163.518 3.84692V186.68C163.518 187.7 163.113 188.679 162.391 189.4C161.67 190.122 160.691 190.527 159.671 190.527V190.527ZM29.583 0.134744C28.6086 0.136529 27.6746 0.524869 26.9863 1.21453C26.2979 1.90419 25.9112 2.83881 25.9112 3.81324V186.68C25.9112 187.655 26.2979 188.589 26.9863 189.279C27.6746 189.969 28.6086 190.357 29.583 190.359H159.671C160.646 190.357 161.581 189.969 162.27 189.279C162.96 188.59 163.348 187.655 163.349 186.68V3.81324C163.348 2.83819 162.96 1.90358 162.27 1.21412C161.581 0.524651 160.646 0.136525 159.671 0.134744H29.583Z" fill="#EBEBEB"/>
<path d="M305.403 190.527H175.308C174.288 190.525 173.311 190.12 172.59 189.398C171.869 188.677 171.463 187.7 171.461 186.68V3.81324C171.472 2.79937 171.881 1.83054 172.601 1.11675C173.322 0.402956 174.294 0.00171683 175.308 0H305.403C306.415 0.00350636 307.385 0.405745 308.102 1.11953C308.82 1.83332 309.227 2.80115 309.236 3.81324V186.68C309.236 187.698 308.833 188.675 308.114 189.396C307.396 190.117 306.421 190.524 305.403 190.527V190.527ZM175.308 0.134744C174.333 0.136525 173.398 0.524651 172.709 1.21412C172.019 1.90358 171.631 2.83819 171.629 3.81324V186.68C171.631 187.655 172.019 188.59 172.709 189.279C173.398 189.969 174.333 190.357 175.308 190.359H305.403C306.378 190.357 307.312 189.969 308.002 189.279C308.691 188.59 309.079 187.655 309.081 186.68V3.81324C309.079 2.83819 308.691 1.90358 308.002 1.21412C307.312 0.524651 306.378 0.136525 305.403 0.134744H175.308Z" fill="#EBEBEB"/>
<path d="M59.5971 220.575H79.4178L79.4178 148.844H59.5971L59.5971 220.575Z" fill="#E6E6E6"/>
<path d="M63.033 220.575H59.6038V210.806H66.6374L63.033 220.575Z" fill="#F0F0F0"/>
<path d="M190.291 220.575H210.112V148.844H190.291V220.575Z" fill="#E6E6E6"/>
<path d="M59.5969 214.579L193.283 214.579V148.844H59.5969V214.579Z" fill="#F0F0F0"/>
<path d="M62.2582 169.79L190.621 169.79V151.761H62.2582V169.79Z" fill="#E6E6E6"/>
<path d="M100.013 157.36H152.88C155.556 157.36 158.203 156.814 160.661 155.757C163.119 154.699 165.336 153.152 167.176 151.209H85.7103C87.5516 153.152 89.7695 154.699 92.2286 155.757C94.6877 156.815 97.3365 157.36 100.013 157.36V157.36Z" fill="#F0F0F0"/>
<path d="M189.854 220.575H193.289V210.806H186.256L189.854 220.575Z" fill="#F0F0F0"/>
<path d="M62.2582 190.723L190.621 190.723V172.694H62.2582V190.723Z" fill="#E6E6E6"/>
<path d="M100.013 178.299H152.88C155.556 178.299 158.203 177.753 160.661 176.696C163.119 175.638 165.336 174.091 167.176 172.148H85.7103C87.5516 174.091 89.7695 175.638 92.2286 176.696C94.6877 177.753 97.3365 178.299 100.013 178.299V178.299Z" fill="#F0F0F0"/>
<path d="M62.2582 211.668L190.621 211.668V193.64H62.2582V211.668Z" fill="#E6E6E6"/>
<path d="M100.013 199.238H152.88C155.555 199.238 158.202 198.693 160.66 197.636C163.118 196.58 165.335 195.035 167.176 193.094H85.7103C87.5529 195.035 89.7712 196.58 92.2301 197.637C94.689 198.693 97.3371 199.238 100.013 199.238V199.238Z" fill="#F0F0F0"/>
<path d="M56.6798 127.811L134.858 127.811V30.9909L56.6798 30.9909L56.6798 127.811Z" fill="#E6E6E6"/>
<path d="M47.7868 127.811L132.588 127.811V30.9909L47.7868 30.9909L47.7868 127.811Z" fill="#F0F0F0"/>
<path d="M125.48 120.71V38.0986L54.8878 38.0986V120.71H125.48Z" fill="white"/>
<path d="M188.034 125.392L293.97 125.392V29.9199L188.034 29.9199V125.392Z" fill="#EBEBEB"/>
<path d="M185.245 125.392L292.663 125.392V29.9199L185.245 29.9199V125.392Z" fill="#F5F5F5"/>
<path d="M196.22 130.566H293.97V125.392L196.22 125.392V130.566Z" fill="#EBEBEB"/>
<path d="M181.163 130.566H273.233V125.392L181.163 125.392V130.566Z" fill="#F0F0F0"/>
<path d="M288.769 121.498V33.8206L189.146 33.8206V121.498H288.769Z" fill="#FAFAFA"/>
<path d="M273.233 121.498L239.958 33.8206H224.247L257.522 121.498H273.233Z" fill="white"/>
<path d="M286.896 115.367C286.989 115.367 287.078 115.33 287.143 115.265C287.209 115.199 287.246 115.11 287.246 115.017V36.4278C287.261 36.3756 287.264 36.3207 287.254 36.2674C287.244 36.2141 287.222 36.1638 287.189 36.1206C287.156 36.0773 287.114 36.0422 287.065 36.018C287.017 35.9938 286.963 35.9812 286.909 35.9812C286.855 35.9812 286.801 35.9938 286.753 36.018C286.704 36.0422 286.662 36.0773 286.629 36.1206C286.597 36.1638 286.575 36.2141 286.565 36.2674C286.555 36.3207 286.557 36.3756 286.572 36.4278V115.017C286.57 115.106 286.603 115.192 286.663 115.257C286.724 115.323 286.807 115.362 286.896 115.367Z" fill="#F0F0F0"/>
<path d="M254.146 121.498L220.871 33.8206H214.747L248.022 121.498H254.146Z" fill="white"/>
<path d="M239.628 121.498L206.353 33.8206H200.222L233.504 121.498H239.628Z" fill="white"/>
<path d="M189.645 121.498V33.8206H189.153V121.498H189.645Z" fill="#EBEBEB"/>
<g opacity="0.7">
<path d="M184.329 37.3576H290.264L290.621 35.3364H184.686L184.329 37.3576Z" fill="#EBEBEB"/>
<path d="M184.329 39.527H290.264L290.621 37.5059H184.686L184.329 39.527Z" fill="#EBEBEB"/>
<path d="M184.329 41.6964H290.264L290.621 39.6753H184.686L184.329 41.6964Z" fill="#EBEBEB"/>
<path d="M184.329 43.8657H290.264L290.621 41.8513H184.686L184.329 43.8657Z" fill="#EBEBEB"/>
<path d="M184.329 46.0419H290.264L290.621 44.0208H184.686L184.329 46.0419Z" fill="#EBEBEB"/>
<path d="M184.329 48.2111H290.264L290.621 46.1899H184.686L184.329 48.2111Z" fill="#EBEBEB"/>
<path d="M184.329 50.3805H290.264L290.621 48.3594H184.686L184.329 50.3805Z" fill="#EBEBEB"/>
<path d="M184.329 52.55H290.264L290.621 50.5288H184.686L184.329 52.55Z" fill="#EBEBEB"/>
<path d="M184.329 54.7194H290.264L290.621 52.6982H184.686L184.329 54.7194Z" fill="#EBEBEB"/>
<path d="M184.329 56.8887H290.264L290.621 54.8743H184.686L184.329 56.8887Z" fill="#EBEBEB"/>
<path d="M184.329 59.0649H290.264L290.621 57.0437H184.686L184.329 59.0649Z" fill="#EBEBEB"/>
<path d="M184.329 61.234H290.264L290.621 59.2129H184.686L184.329 61.234Z" fill="#EBEBEB"/>
<path d="M184.329 63.4035H290.264L290.621 61.3823H184.686L184.329 63.4035Z" fill="#EBEBEB"/>
<path d="M184.329 65.5729H290.264L290.621 63.5518H184.686L184.329 65.5729Z" fill="#EBEBEB"/>
<path d="M184.329 67.7422H290.264L290.621 65.7278H184.686L184.329 67.7422Z" fill="#EBEBEB"/>
<path d="M184.329 69.9184H290.264L290.621 67.8972H184.686L184.329 69.9184Z" fill="#EBEBEB"/>
<path d="M184.329 72.0878H290.264L290.621 70.0667H184.686L184.329 72.0878Z" fill="#EBEBEB"/>
<path d="M184.329 74.257H290.264L290.621 72.2358H184.686L184.329 74.257Z" fill="#EBEBEB"/>
<path d="M184.329 76.4264H290.264L290.621 74.4053H184.686L184.329 76.4264Z" fill="#EBEBEB"/>
<path d="M184.329 78.5959H290.264L290.621 76.5747H184.686L184.329 78.5959Z" fill="#EBEBEB"/>
<path d="M184.329 80.765H290.264L290.621 78.7439H184.686L184.329 80.765Z" fill="#EBEBEB"/>
<path d="M184.329 82.9413H290.264L290.621 80.9202H184.686L184.329 82.9413Z" fill="#EBEBEB"/>
<path d="M184.329 85.1108H290.264L290.621 83.0896H184.686L184.329 85.1108Z" fill="#EBEBEB"/>
<path d="M184.329 87.2799H290.264L290.621 85.2588H184.686L184.329 87.2799Z" fill="#EBEBEB"/>
</g>
<path d="M165.539 138.334C165.539 144.142 157.912 148.844 148.507 148.844C139.102 148.844 131.476 144.128 131.476 138.334H165.539Z" fill="#EBEBEB"/>
<path d="M120.777 138.334C120.777 144.142 113.151 148.844 103.746 148.844C94.3406 148.844 86.7074 144.128 86.7074 138.334H120.777Z" fill="#EBEBEB"/>
<path d="M249.673 216.64H261.867V154.53H249.673V216.64Z" fill="#F0F0F0"/>
<path d="M199.387 220.575H259.536V216.64H199.387V220.575Z" fill="#F0F0F0"/>
<path d="M249.68 154.531H197.042V216.64H249.68V154.531Z" fill="#F5F5F5"/>
<path d="M244.876 162.177H201.832V182.544H244.876V162.177Z" fill="#F0F0F0"/>
<path d="M244.876 188.621H201.832V208.987H244.876V188.621Z" fill="#F0F0F0"/>
<path d="M218.453 173.751H228.262C228.88 173.751 229.38 173.251 229.38 172.633V172.074C229.38 171.456 228.88 170.956 228.262 170.956H218.453C217.835 170.956 217.334 171.456 217.334 172.074V172.633C217.334 173.251 217.835 173.751 218.453 173.751Z" fill="#F5F5F5"/>
<path d="M218.453 200.202H228.262C228.88 200.202 229.38 199.701 229.38 199.083V198.524C229.38 197.906 228.88 197.406 228.262 197.406H218.453C217.835 197.406 217.334 197.906 217.334 198.524V199.083C217.334 199.701 217.835 200.202 218.453 200.202Z" fill="#F5F5F5"/>
<path d="M168.429 251C240.572 251 299.056 247.586 299.056 243.374C299.056 239.162 240.572 235.747 168.429 235.747C96.2859 235.747 37.8022 239.162 37.8022 243.374C37.8022 247.586 96.2859 251 168.429 251Z" fill="#F5F5F5"/>
<path d="M59.671 82.1396H58.9973V95.075H59.671V82.1396Z" fill="#FF6C2C"/>
<path d="M59.671 99.9592H58.9973V105.901H59.671V99.9592Z" fill="#FF6C2C"/>
<path d="M243.407 50.064H68.2474C64.3108 50.064 61.1195 53.2552 61.1195 57.1919V166.967C61.1195 170.904 64.3108 174.095 68.2474 174.095H243.407C247.344 174.095 250.535 170.904 250.535 166.967V57.1919C250.535 53.2552 247.344 50.064 243.407 50.064Z" fill="#FF6C2C"/>
<path d="M63.4911 57.1849L63.4911 166.967C63.4911 169.59 65.6176 171.717 68.2408 171.717H243.407C246.03 171.717 248.157 169.59 248.157 166.967V57.1849C248.157 54.5617 246.03 52.4352 243.407 52.4352L68.2408 52.4352C65.6176 52.4352 63.4911 54.5617 63.4911 57.1849Z" fill="white"/>
<path opacity="0.6" d="M134.447 152.543V171.724H177.188V152.543C177.188 150.756 176.478 149.042 175.214 147.779C173.951 146.515 172.237 145.806 170.45 145.806H141.164C139.381 145.811 137.672 146.523 136.413 147.786C135.154 149.049 134.447 150.76 134.447 152.543Z" fill="#FF6C2C"/>
<path opacity="0.6" d="M188.492 152.543V171.724H231.253V152.543C231.253 150.756 230.543 149.042 229.28 147.779C228.017 146.515 226.303 145.806 224.516 145.806H195.209C193.426 145.811 191.718 146.523 190.459 147.786C189.199 149.049 188.492 150.76 188.492 152.543V152.543Z" fill="#FF6C2C"/>
<path opacity="0.6" d="M80.3947 152.543V171.724H123.162V152.543C123.162 150.756 122.452 149.042 121.189 147.779C119.925 146.515 118.212 145.806 116.425 145.806H87.1183C85.3339 145.809 83.6237 146.521 82.3632 147.784C81.1026 149.047 80.3946 150.758 80.3947 152.543V152.543Z" fill="#FF6C2C"/>
<path d="M217.132 64.4545H229.535C229.991 64.4545 230.428 64.2735 230.75 63.9513C231.072 63.6291 231.253 63.1922 231.253 62.7365V62.7365C231.253 62.5109 231.209 62.2875 231.122 62.0791C231.036 61.8706 230.91 61.6813 230.75 61.5217C230.591 61.3622 230.401 61.2357 230.193 61.1493C229.984 61.063 229.761 61.0186 229.535 61.0186H217.132C216.677 61.0203 216.241 61.2019 215.919 61.5237C215.598 61.8455 215.416 62.2814 215.414 62.7365C215.416 63.1916 215.598 63.6276 215.919 63.9494C216.241 64.2712 216.677 64.4527 217.132 64.4545V64.4545Z" fill="#FF6C2C"/>
<path d="M174.904 65.445C176.399 65.445 177.612 64.2324 177.612 62.7367C177.612 61.2409 176.399 60.0283 174.904 60.0283C173.408 60.0283 172.195 61.2409 172.195 62.7367C172.195 64.2324 173.408 65.445 174.904 65.445Z" fill="#FF6C2C"/>
<path d="M169.191 62.7366C169.191 63.2696 169.032 63.7906 168.736 64.2338C168.44 64.677 168.019 65.0224 167.527 65.2264C167.035 65.4303 166.493 65.4837 165.97 65.3797C165.447 65.2757 164.967 65.0191 164.59 64.6422C164.213 64.2653 163.957 63.7851 163.853 63.2624C163.749 62.7396 163.802 62.1978 164.006 61.7053C164.21 61.2129 164.555 60.792 164.998 60.4959C165.442 60.1998 165.963 60.0417 166.496 60.0417C167.21 60.0417 167.896 60.3257 168.401 60.8311C168.907 61.3365 169.191 62.0219 169.191 62.7366Z" fill="#FF6C2C"/>
<path d="M84.8614 59.9675H81.4726C80.8773 59.9675 80.3947 60.4501 80.3947 61.0455V64.4343C80.3947 65.0296 80.8773 65.5122 81.4726 65.5122H84.8614C85.4567 65.5122 85.9393 65.0296 85.9393 64.4343V61.0455C85.9393 60.4501 85.4567 59.9675 84.8614 59.9675Z" fill="#FF6C2C"/>
<path opacity="0.2" d="M102.701 63.5921H96.2337C96.0067 63.5921 95.7891 63.5019 95.6286 63.3415C95.4682 63.181 95.3781 62.9634 95.3781 62.7365C95.3781 62.5095 95.4682 62.2919 95.6286 62.1315C95.7891 61.971 96.0067 61.8809 96.2337 61.8809H102.701C102.928 61.8809 103.146 61.971 103.306 62.1315C103.467 62.2919 103.557 62.5095 103.557 62.7365C103.557 62.9634 103.467 63.181 103.306 63.3415C103.146 63.5019 102.928 63.5921 102.701 63.5921Z" fill="#263238"/>
<path opacity="0.2" d="M115.327 63.5921H108.859C108.632 63.5921 108.415 63.5019 108.254 63.3415C108.094 63.181 108.004 62.9634 108.004 62.7365C108.004 62.5095 108.094 62.2919 108.254 62.1315C108.415 61.971 108.632 61.8809 108.859 61.8809H115.327C115.555 61.8809 115.773 61.9708 115.934 62.131C116.096 62.2913 116.188 62.5089 116.189 62.7365V62.7365C116.188 62.964 116.096 63.1816 115.934 63.3419C115.773 63.5022 115.555 63.5921 115.327 63.5921V63.5921Z" fill="#263238"/>
<path opacity="0.2" d="M127.959 63.5921H121.491C121.264 63.5921 121.046 63.5022 120.884 63.3419C120.722 63.1816 120.631 62.964 120.629 62.7365V62.7365C120.631 62.5089 120.722 62.2913 120.884 62.131C121.046 61.9708 121.264 61.8809 121.491 61.8809H127.959C128.186 61.8809 128.404 61.971 128.564 62.1315C128.725 62.2919 128.815 62.5095 128.815 62.7365V62.7365C128.815 62.9634 128.725 63.181 128.564 63.3415C128.404 63.5019 128.186 63.5921 127.959 63.5921V63.5921Z" fill="#263238"/>
<path opacity="0.2" d="M140.584 63.5921H134.117C133.889 63.5921 133.671 63.5022 133.509 63.3419C133.348 63.1816 133.256 62.964 133.254 62.7365V62.7365C133.256 62.5089 133.348 62.2913 133.509 62.131C133.671 61.9708 133.889 61.8809 134.117 61.8809H140.584C140.811 61.8809 141.029 61.971 141.189 62.1315C141.35 62.2919 141.44 62.5095 141.44 62.7365C141.44 62.9634 141.35 63.181 141.189 63.3415C141.029 63.5019 140.811 63.5921 140.584 63.5921Z" fill="#263238"/>
<path opacity="0.4" d="M276.043 76.6158L139.44 80.7139C135.503 80.832 132.408 84.119 132.526 88.0557L133.719 127.845C133.837 131.782 137.124 134.878 141.061 134.759L277.664 130.661C281.601 130.543 284.696 127.256 284.578 123.32L283.384 83.5299C283.266 79.5933 279.979 76.4977 276.043 76.6158Z" fill="#FF6C2C"/>
<path opacity="0.4" d="M192.42 108.798L149.848 110.253C149.3 110.27 148.755 110.179 148.242 109.986C147.73 109.792 147.26 109.499 146.861 109.123C146.462 108.748 146.141 108.297 145.916 107.798C145.691 107.298 145.566 106.759 145.55 106.211C145.533 105.663 145.624 105.118 145.818 104.605C146.012 104.093 146.305 103.623 146.68 103.224C147.056 102.825 147.506 102.504 148.006 102.279C148.505 102.054 149.044 101.929 149.592 101.913L192.164 100.458C192.712 100.441 193.258 100.532 193.77 100.726C194.283 100.919 194.752 101.213 195.151 101.588C195.55 101.963 195.872 102.414 196.097 102.913C196.322 103.413 196.446 103.952 196.463 104.5V104.5C196.482 105.048 196.392 105.595 196.198 106.108C196.005 106.621 195.712 107.091 195.336 107.491C194.961 107.89 194.51 108.211 194.009 108.436C193.509 108.66 192.969 108.783 192.42 108.798Z" fill="#FF6C2C"/>
<path opacity="0.4" d="M178.414 121.943L150.279 122.899C149.179 122.934 148.109 122.532 147.304 121.781C146.499 121.03 146.023 119.991 145.981 118.891V118.891C145.964 118.343 146.055 117.797 146.249 117.285C146.443 116.772 146.736 116.303 147.111 115.904C147.487 115.505 147.937 115.183 148.437 114.958C148.937 114.733 149.476 114.609 150.023 114.592L178.151 113.629C178.699 113.612 179.244 113.703 179.757 113.897C180.269 114.091 180.739 114.384 181.138 114.759C181.537 115.135 181.858 115.585 182.083 116.085C182.308 116.584 182.433 117.124 182.449 117.671V117.671C182.477 118.772 182.068 119.838 181.312 120.638C180.556 121.439 179.514 121.907 178.414 121.943V121.943Z" fill="#FF6C2C"/>
<path d="M280.805 106.151L282.025 109.93L286.498 105.834C285.57 105.215 284.608 104.651 283.615 104.143C283.255 103.952 282.835 103.912 282.446 104.031C282.057 104.149 281.731 104.418 281.54 104.776L280.805 106.151Z" fill="#7F3E3B"/>
<path d="M286.465 113.043L288.391 108.542L286.498 105.834L282.025 109.93L286.465 113.043Z" fill="#7F3E3B"/>
<path d="M238.085 78.38C235.787 81.4724 233.409 84.3761 230.869 87.2394C228.32 90.1434 225.598 92.8905 222.717 95.4655L222.556 95.607L222.232 95.8697C222.017 96.0378 221.792 96.193 221.558 96.3346C221.083 96.5926 220.575 96.7874 220.049 96.914C219.188 97.116 218.294 97.1435 217.422 96.9948C216.164 96.7693 214.952 96.3415 213.831 95.7282C212.014 94.7213 210.311 93.5219 208.751 92.1508C205.821 89.599 203.147 86.7672 200.768 83.6956L203.462 81.1423C206.265 83.4262 209.203 85.7033 212.14 87.6369C213.517 88.5718 214.978 89.3748 216.506 90.0353C217.049 90.2799 217.63 90.4302 218.224 90.48C218.392 90.48 218.473 90.4463 218.372 90.4463C218.299 90.4519 218.228 90.4725 218.163 90.5069C218.12 90.5238 218.079 90.5465 218.042 90.5743L217.988 90.608L218.075 90.5137C219.308 89.2605 220.501 87.9131 221.7 86.5657C222.899 85.2182 224.058 83.8034 225.223 82.4021C227.541 79.586 229.865 76.689 232.095 73.8594L238.085 78.38Z" fill="#7F3E3B"/>
<path d="M200.909 75.2676L195.661 76.3388L198.241 80.9335L202.91 77.3157L200.909 75.2676Z" fill="#7F3E3B"/>
<path d="M203.57 82.0988L202.897 77.3154L198.228 80.9333C198.228 80.9333 198.949 85.0969 202.27 85.0969L203.57 82.0988Z" fill="#7F3E3B"/>
<path d="M203.921 81.1423C203.787 81.1441 203.66 81.1979 203.565 81.2923C203.471 81.3866 203.417 81.5142 203.415 81.6476C203.412 81.6857 203.412 81.724 203.415 81.7622C203.347 81.727 203.27 81.7085 203.193 81.7083C203.059 81.7083 202.931 81.7615 202.836 81.8562C202.741 81.951 202.688 82.0795 202.688 82.2135C202.693 82.262 202.704 82.3096 202.721 82.355H202.688C202.554 82.3568 202.427 82.4106 202.332 82.505C202.238 82.5993 202.184 82.7268 202.183 82.8603C202.185 82.9682 202.223 83.0722 202.29 83.1567V83.1567C202.156 83.1567 202.028 83.21 201.933 83.3047C201.838 83.3995 201.785 83.528 201.785 83.662C201.789 83.7718 201.826 83.8777 201.893 83.9652C201.78 83.987 201.678 84.0472 201.604 84.1356C201.53 84.224 201.49 84.3352 201.489 84.4503C201.491 84.5281 201.511 84.6043 201.547 84.6731C201.583 84.742 201.635 84.8017 201.697 84.8478C201.599 84.8815 201.514 84.945 201.453 85.0296C201.393 85.1142 201.361 85.2155 201.361 85.3194C201.361 85.4534 201.414 85.5819 201.509 85.6767C201.603 85.7714 201.732 85.8247 201.866 85.8247C202 85.8247 202.128 85.7714 202.223 85.6767C202.318 85.5819 202.371 85.4534 202.371 85.3194C202.372 85.2418 202.354 85.1652 202.318 85.096C202.283 85.0269 202.232 84.9671 202.169 84.9219C202.266 84.8862 202.349 84.822 202.408 84.7377C202.467 84.6534 202.499 84.5532 202.499 84.4503C202.495 84.3405 202.458 84.2346 202.391 84.1471C202.504 84.1253 202.606 84.0651 202.68 83.9767C202.754 83.8883 202.795 83.7771 202.796 83.662C202.792 83.5543 202.754 83.4506 202.688 83.3656C202.754 83.3665 202.821 83.3541 202.882 83.329C202.944 83.3039 203 83.2667 203.047 83.2196C203.094 83.1725 203.131 83.1165 203.156 83.0547C203.182 82.993 203.194 82.9269 203.193 82.8603C203.199 82.8134 203.199 82.7658 203.193 82.7188V82.7188C203.327 82.7188 203.456 82.6656 203.55 82.5708C203.645 82.4761 203.698 82.3476 203.698 82.2135C203.702 82.1754 203.702 82.1371 203.698 82.099C203.765 82.1334 203.839 82.1519 203.914 82.1529C204.048 82.1529 204.177 82.0997 204.271 82.0049C204.366 81.9102 204.419 81.7816 204.419 81.6476C204.419 81.5136 204.366 81.3851 204.271 81.2903C204.177 81.1956 204.048 81.1423 203.914 81.1423H203.921Z" fill="#263238"/>
<path d="M265.512 73.2532C267.082 76.0289 268.591 78.8316 270.066 81.6612C271.542 84.4908 272.983 87.3271 274.391 90.1904L274.917 91.2616L275.362 92.1375L275.88 93.047L276.466 93.9834C277.282 95.2298 278.151 96.5099 279.053 97.7765L284.544 105.47L281.849 108.03C279.32 105.984 276.913 103.791 274.641 101.462C273.502 100.289 272.377 99.0835 271.272 97.7697L270.47 96.7659L269.702 95.6677C269.453 95.277 269.163 94.8323 268.948 94.4753L268.335 93.4512C266.691 90.7563 265.094 87.9739 263.518 85.2116C261.941 82.4494 260.412 79.6602 258.936 76.8441L265.512 73.2532Z" fill="#7F3E3B"/>
<path d="M240.025 54.1128C240.113 54.5036 239.971 54.8674 239.722 54.9347C239.473 55.0021 239.196 54.7326 239.109 54.3419C239.021 53.9511 239.169 53.5806 239.419 53.5199C239.668 53.4593 239.944 53.722 240.025 54.1128Z" fill="#263238"/>
<path d="M240.005 54.8606C239.798 56.1749 239.415 57.4553 238.866 58.6671C239.176 58.7917 239.509 58.846 239.843 58.8262C240.176 58.8064 240.5 58.713 240.793 58.5526L240.005 54.8606Z" fill="#630F0F"/>
<path d="M238.994 51.7344C238.957 51.7344 238.92 51.726 238.886 51.7096C238.852 51.6933 238.822 51.6695 238.799 51.6401C238.781 51.6145 238.769 51.5856 238.762 51.5551C238.755 51.5246 238.755 51.4931 238.76 51.4624C238.766 51.4317 238.778 51.4024 238.795 51.3762C238.812 51.3501 238.834 51.3275 238.86 51.31C239.174 51.1139 239.531 50.9967 239.901 50.9686C240.27 50.9404 240.641 51.0021 240.982 51.1483C241.039 51.1735 241.084 51.2198 241.108 51.2776C241.132 51.3353 241.133 51.4 241.11 51.4582C241.098 51.4871 241.081 51.5133 241.059 51.5354C241.037 51.5575 241.01 51.575 240.982 51.5869C240.953 51.5988 240.922 51.6049 240.891 51.6047C240.86 51.6046 240.829 51.5983 240.8 51.5862C240.533 51.4696 240.242 51.4185 239.951 51.4373C239.661 51.456 239.379 51.5441 239.129 51.694C239.089 51.7205 239.042 51.7346 238.994 51.7344V51.7344Z" fill="#263238"/>
<path d="M253.466 55.3523C253.904 59.9066 253.257 64.3127 254.281 68.2674C254.281 68.2674 253.149 71.9392 246.419 71.9392C239.008 71.9392 243.05 68.2674 243.05 68.2674C247.092 67.304 247.14 64.3127 246.547 61.4966L253.466 55.3523Z" fill="#7F3E3B"/>
<path d="M255.197 69.5274C255.777 68.3686 256.41 67.0347 255.197 66.617C253.89 66.1588 246.634 65.694 244.094 66.5563C243.418 66.7374 242.838 67.1748 242.478 67.776C242.119 68.3771 242.007 69.0948 242.168 69.7767L255.197 69.5274Z" fill="#263238"/>
<path d="M269.622 235.174C270.088 235.066 270.54 234.903 270.969 234.689C270.992 234.678 271.011 234.661 271.024 234.64C271.038 234.618 271.044 234.593 271.043 234.568C271.039 234.543 271.029 234.52 271.013 234.5C270.998 234.48 270.978 234.464 270.955 234.453C270.74 234.379 268.806 233.692 268.261 234.116C268.204 234.164 268.161 234.226 268.136 234.296C268.111 234.366 268.105 234.441 268.119 234.514C268.132 234.64 268.175 234.762 268.246 234.868C268.316 234.973 268.411 235.06 268.523 235.12C268.871 235.269 269.261 235.288 269.622 235.174V235.174ZM270.565 234.595C269.709 234.965 269.008 235.08 268.672 234.898C268.595 234.856 268.531 234.796 268.484 234.723C268.436 234.651 268.408 234.567 268.402 234.48C268.402 234.379 268.402 234.339 268.449 234.319C268.719 234.096 269.79 234.339 270.565 234.595V234.595Z" fill="#FF6C2C"/>
<path d="M270.942 234.703L271.003 234.669C271.019 234.653 271.031 234.632 271.037 234.61C271.043 234.587 271.043 234.563 271.036 234.541C271.036 234.473 270.565 232.978 269.844 232.607C269.759 232.559 269.664 232.529 269.566 232.521C269.468 232.513 269.37 232.526 269.278 232.56C269.184 232.58 269.1 232.632 269.04 232.707C268.98 232.782 268.947 232.875 268.948 232.971C268.948 233.584 270.295 234.521 270.875 234.696L270.942 234.703ZM269.413 232.782C269.521 232.76 269.634 232.78 269.729 232.836C270.199 233.235 270.54 233.765 270.706 234.359C270.073 234.062 269.21 233.328 269.204 232.964C269.204 232.931 269.204 232.857 269.359 232.803L269.413 232.782Z" fill="#FF6C2C"/>
<path d="M234.905 238.704C235.382 238.694 235.857 238.629 236.32 238.509C236.344 238.504 236.366 238.491 236.383 238.473C236.399 238.455 236.41 238.432 236.414 238.408C236.419 238.384 236.417 238.358 236.407 238.336C236.398 238.313 236.381 238.293 236.36 238.28C236.165 238.152 234.42 237.081 233.82 237.391C233.753 237.425 233.696 237.477 233.657 237.541C233.618 237.605 233.597 237.679 233.598 237.755C233.585 237.88 233.603 238.007 233.65 238.125C233.697 238.242 233.771 238.346 233.867 238.428C234.171 238.637 234.538 238.734 234.905 238.704V238.704ZM235.949 238.327C235.033 238.516 234.325 238.482 234.029 238.233C233.964 238.176 233.914 238.104 233.883 238.022C233.852 237.941 233.842 237.854 233.854 237.768C233.854 237.667 233.901 237.633 233.935 237.62C234.245 237.458 235.242 237.923 235.949 238.327Z" fill="#FF6C2C"/>
<path d="M236.293 238.496C236.315 238.502 236.338 238.502 236.36 238.496C236.38 238.482 236.395 238.464 236.406 238.443C236.416 238.421 236.422 238.398 236.421 238.374C236.421 238.307 236.286 236.751 235.653 236.239C235.578 236.174 235.492 236.126 235.398 236.097C235.304 236.068 235.205 236.059 235.107 236.07C235.011 236.071 234.919 236.106 234.845 236.167C234.772 236.228 234.721 236.313 234.703 236.407C234.588 237.013 235.673 238.192 236.232 238.496C236.252 238.502 236.273 238.502 236.293 238.496V238.496ZM235.201 236.299C235.308 236.302 235.411 236.342 235.491 236.414C235.871 236.902 236.094 237.494 236.131 238.112C235.579 237.687 234.885 236.764 234.952 236.434C234.952 236.4 234.952 236.326 235.141 236.306H235.201V236.299Z" fill="#FF6C2C"/>
<path d="M242.114 238.321H237.162L237.115 226.861H242.06L242.114 238.321Z" fill="#7F3E3B"/>
<path d="M276.702 233.483L271.858 234.514L267.472 223.728L272.316 222.697L276.702 233.483Z" fill="#7F3E3B"/>
<path d="M271.42 234.022L276.857 232.863C276.952 232.844 277.05 232.858 277.136 232.902C277.221 232.946 277.29 233.018 277.329 233.106L279.033 237.243C279.073 237.346 279.089 237.456 279.082 237.566C279.074 237.677 279.042 237.784 278.989 237.881C278.936 237.977 278.862 238.061 278.774 238.127C278.685 238.192 278.582 238.238 278.474 238.26C276.568 238.63 275.631 238.718 273.239 239.23C271.764 239.54 268.759 240.342 266.731 240.773C264.703 241.204 264.084 239.237 264.879 238.873C268.47 237.256 269.675 235.828 270.686 234.487C270.866 234.248 271.127 234.083 271.42 234.022V234.022Z" fill="#263238"/>
<path d="M237.216 237.748H242.605C242.703 237.745 242.798 237.777 242.874 237.839C242.949 237.901 243 237.988 243.016 238.085L243.825 242.484C243.844 242.592 243.838 242.703 243.809 242.81C243.78 242.916 243.728 243.014 243.657 243.098C243.585 243.181 243.496 243.248 243.396 243.293C243.296 243.339 243.187 243.361 243.077 243.36C241.13 243.36 238.32 243.218 235.868 243.218C232.998 243.218 230.519 243.373 227.157 243.373C225.136 243.373 224.644 241.318 225.5 241.13C229.407 240.288 232.574 240.193 235.996 238.132C236.36 237.895 236.782 237.762 237.216 237.748Z" fill="#263238"/>
<path d="M263.72 69.3926C268.321 70.4571 273.152 83.1028 273.152 83.1028L263.592 89.4896C261.397 86.1617 259.473 82.6628 257.838 79.0268C255.339 73.2328 259.024 68.3012 263.72 69.3926Z" fill="#FF6C2C"/>
<path opacity="0.2" d="M260.088 77.4773L264.043 89.2067L263.592 89.5099C263.592 89.5099 261.786 86.815 259.866 83.2241L260.088 77.4773Z" fill="black"/>
<path d="M232.843 91.4973C232.884 97.0217 233.214 103.894 234.036 112.423H260.513C260.857 108.381 259.064 88.5329 263.72 69.3859C260.808 68.8214 257.862 68.4478 254.901 68.2675C251.154 68.0518 247.397 68.0518 243.65 68.2675C241.066 68.5188 238.505 68.9692 235.99 69.6149C235.99 69.6149 233.719 72.0673 233.039 83.5676C232.904 85.865 232.83 88.479 232.843 91.4973Z" fill="#FF6C2C"/>
<path opacity="0.2" d="M232.843 91.4973C234.447 88.5733 237.357 82.7053 236.946 79.3704L233.039 83.6013C232.904 85.865 232.83 88.479 232.843 91.4973Z" fill="black"/>
<path d="M241.191 74.1088C241.608 78.8248 230.916 90.1702 230.916 90.1702L222.327 83.1972C224.574 79.4116 227.265 75.9081 230.344 72.7613C235.356 67.9106 240.706 68.8336 241.191 74.1088Z" fill="#FF6C2C"/>
<g opacity="0.2">
<path d="M237.115 226.861L237.135 232.769H242.087L242.067 226.861H237.115Z" fill="black"/>
<path d="M272.316 222.704L267.472 223.735L269.736 229.293L274.58 228.262L272.316 222.704Z" fill="black"/>
</g>
<path d="M252.765 50.0234C253.486 54.8944 254.153 57.7038 252.28 60.7692C251.685 61.7728 250.826 62.5944 249.797 63.1448C248.768 63.6952 247.608 63.9536 246.443 63.8918C245.278 63.83 244.151 63.4505 243.186 62.7944C242.221 62.1382 241.454 61.2305 240.968 60.1696C239.035 56.1273 238.172 48.8242 242.424 45.7385C243.323 45.0453 244.389 44.6015 245.515 44.4521C246.64 44.3027 247.786 44.4529 248.835 44.8875C249.884 45.3222 250.799 46.0259 251.49 46.9276C252.18 47.8294 252.62 48.8972 252.765 50.0234Z" fill="#7F3E3B"/>
<path d="M243.885 54.1331C241.44 54.544 240.065 51.7346 241.945 49.3295C238.381 49.4911 236.865 47.6654 238.455 44.4046C239.803 41.5952 244.108 42.9696 244.108 42.9696C244.108 42.9696 247.692 38.1525 251.93 40.8339C256.477 43.7107 254.065 46.3718 254.065 46.3718C254.065 46.3718 260.594 47.2746 258.909 51.9637C258.653 52.6814 258.203 53.3136 257.608 53.7896C257.013 54.2655 256.297 54.5664 255.541 54.6586C255.541 54.6586 257.212 59.6845 252.26 60.722C247.308 61.7595 242.309 57.6229 243.885 54.1331Z" fill="#263238"/>
<path d="M245.388 52.88C245.476 54.1163 245.167 55.3486 244.505 56.3968C243.623 57.7442 242.41 57.2389 242.019 55.8308C241.662 54.5643 241.689 52.3208 242.882 51.4315C244.074 50.5422 245.233 51.3978 245.388 52.88Z" fill="#7F3E3B"/>
<path d="M243.427 112.423C243.427 112.423 247.584 150.239 250.124 164.387C252.9 179.882 267.284 228.612 267.284 228.612L276.15 226.726C276.15 226.726 266.253 181.162 264.919 165.795C263.471 149.12 260.513 112.396 260.513 112.396L243.427 112.423Z" fill="#263238"/>
<path d="M265.303 225.648C265.263 225.648 266.812 228.888 266.812 228.888L276.783 226.766L276.069 223.741L265.303 225.648Z" fill="#FF6C2C"/>
<path opacity="0.2" d="M246.459 125.897C252.907 127.171 251.283 151.391 250.023 163.848C248.487 155.042 246.398 138.098 244.99 126.073C245.446 125.85 245.964 125.789 246.459 125.897V125.897Z" fill="black"/>
<path d="M234.043 112.423C234.043 112.423 231.927 149.43 231.887 164.522C231.84 180.219 235.336 231.624 235.336 231.624H243.724C243.724 231.624 245.981 181.135 246.944 165.721C248.002 148.878 251.445 112.423 251.445 112.423H234.043Z" fill="#263238"/>
<path d="M232.843 108.92C232.819 110.115 233.023 111.304 233.443 112.423C233.247 113.433 233.145 114.459 233.14 115.488C235.835 116.438 261.288 117.617 261.234 115.488C261.18 113.359 261.234 112.423 261.234 112.423C261.234 112.423 261.908 109.425 261.234 108.92C260.56 108.414 233.032 107.121 232.843 108.92Z" fill="#FF6C2C"/>
<path opacity="0.3" d="M232.843 108.92C232.819 110.115 233.023 111.304 233.443 112.423C233.247 113.433 233.145 114.459 233.14 115.488C235.835 116.438 261.288 117.617 261.234 115.488C261.18 113.359 261.234 112.423 261.234 112.423C261.234 112.423 261.908 109.425 261.234 108.92C260.56 108.414 233.032 107.121 232.843 108.92Z" fill="black"/>
<path d="M233.854 228.282C233.813 228.282 234.191 231.765 234.191 231.765H244.391L244.788 228.659L233.854 228.282Z" fill="#FF6C2C"/>
</svg>
