<svg width="112" height="112" viewBox="0 0 112 112" fill="none" xmlns="http://www.w3.org/2000/svg">
<rect width="112" height="112" rx="34" fill="#FEDA7E"/>
<path d="M33.5 53.5C33.0055 53.5 32.5222 53.6466 32.1111 53.9213C31.7 54.196 31.3795 54.5865 31.1903 55.0433C31.0011 55.5001 30.9516 56.0028 31.048 56.4877C31.1445 56.9727 31.3826 57.4181 31.7322 57.7678C32.0819 58.1174 32.5273 58.3555 33.0123 58.452C33.4972 58.5484 33.9999 58.4989 34.4567 58.3097C34.9135 58.1205 35.304 57.8 35.5787 57.3889C35.8534 56.9778 36 56.4945 36 56C36 55.337 35.7366 54.7011 35.2678 54.2322C34.7989 53.7634 34.163 53.5 33.5 53.5ZM38.325 70.15C37.9739 70.499 37.7343 70.9445 37.6366 71.4298C37.539 71.9152 37.5876 72.4186 37.7764 72.8763C37.9652 73.334 38.2856 73.7253 38.697 74.0007C39.1085 74.276 39.5924 74.423 40.0875 74.423C40.5826 74.423 41.0665 74.276 41.478 74.0007C41.8894 73.7253 42.2098 73.334 42.3986 72.8763C42.5874 72.4186 42.636 71.9152 42.5384 71.4298C42.4407 70.9445 42.2011 70.499 41.85 70.15C41.3816 69.6844 40.748 69.423 40.0875 69.423C39.427 69.423 38.7934 69.6844 38.325 70.15ZM41.85 41.85C42.2011 41.501 42.4407 41.0555 42.5384 40.5702C42.636 40.0848 42.5874 39.5814 42.3986 39.1237C42.2098 38.666 41.8894 38.2747 41.478 37.9993C41.0665 37.724 40.5826 37.577 40.0875 37.577C39.5924 37.577 39.1085 37.724 38.697 37.9993C38.2856 38.2747 37.9652 38.666 37.7764 39.1237C37.5876 39.5814 37.539 40.0848 37.6366 40.5702C37.7343 41.0555 37.9739 41.501 38.325 41.85C38.7934 42.3156 39.427 42.577 40.0875 42.577C40.748 42.577 41.3816 42.3156 41.85 41.85ZM56 36C56.4945 36 56.9778 35.8534 57.3889 35.5787C57.8001 35.304 58.1205 34.9135 58.3097 34.4567C58.4989 33.9999 58.5484 33.4972 58.452 33.0123C58.3555 32.5273 58.1174 32.0819 57.7678 31.7322C57.4181 31.3826 56.9727 31.1445 56.4877 31.048C56.0028 30.9516 55.5001 31.0011 55.0433 31.1903C54.5865 31.3795 54.196 31.7 53.9213 32.1111C53.6466 32.5222 53.5 33.0055 53.5 33.5C53.5 34.163 53.7634 34.7989 54.2322 35.2678C54.7011 35.7366 55.337 36 56 36ZM70.15 70.15C69.7989 70.499 69.5593 70.9445 69.4616 71.4298C69.364 71.9152 69.4126 72.4186 69.6014 72.8763C69.7902 73.334 70.1106 73.7253 70.522 74.0007C70.9335 74.276 71.4174 74.423 71.9125 74.423C72.4076 74.423 72.8915 74.276 73.303 74.0007C73.7144 73.7253 74.0348 73.334 74.2236 72.8763C74.4124 72.4186 74.461 71.9152 74.3634 71.4298C74.2657 70.9445 74.0261 70.499 73.675 70.15C73.2066 69.6844 72.573 69.423 71.9125 69.423C71.252 69.423 70.6184 69.6844 70.15 70.15ZM78.5 53.5C78.0055 53.5 77.5222 53.6466 77.1111 53.9213C76.7 54.196 76.3795 54.5865 76.1903 55.0433C76.0011 55.5001 75.9516 56.0028 76.048 56.4877C76.1445 56.9727 76.3826 57.4181 76.7322 57.7678C77.0819 58.1174 77.5273 58.3555 78.0123 58.452C78.4972 58.5484 78.9999 58.4989 79.4567 58.3097C79.9135 58.1205 80.304 57.8 80.5787 57.3889C80.8534 56.9778 81 56.4945 81 56C81 55.337 80.7366 54.7011 80.2678 54.2322C79.7989 53.7634 79.163 53.5 78.5 53.5ZM70.15 38.325C69.7989 38.674 69.5593 39.1195 69.4616 39.6048C69.364 40.0902 69.4126 40.5936 69.6014 41.0513C69.7902 41.509 70.1106 41.9003 70.522 42.1757C70.9335 42.451 71.4174 42.598 71.9125 42.598C72.4076 42.598 72.8915 42.451 73.303 42.1757C73.7144 41.9003 74.0348 41.509 74.2236 41.0513C74.4124 40.5936 74.461 40.0902 74.3634 39.6048C74.2657 39.1195 74.0261 38.674 73.675 38.325C73.2066 37.8594 72.573 37.598 71.9125 37.598C71.252 37.598 70.6184 37.8594 70.15 38.325ZM56 76C55.5055 76 55.0222 76.1466 54.6111 76.4213C54.2 76.696 53.8795 77.0865 53.6903 77.5433C53.5011 78.0001 53.4516 78.5028 53.548 78.9877C53.6445 79.4727 53.8826 79.9181 54.2322 80.2678C54.5819 80.6174 55.0273 80.8555 55.5123 80.952C55.9972 81.0484 56.4999 80.9989 56.9567 80.8097C57.4135 80.6205 57.804 80.3 58.0787 79.8889C58.3534 79.4778 58.5 78.9944 58.5 78.5C58.5 77.837 58.2366 77.2011 57.7678 76.7322C57.2989 76.2634 56.663 76 56 76ZM56 41C53.0333 41 50.1332 41.8797 47.6664 43.528C45.1997 45.1762 43.2771 47.5189 42.1418 50.2597C41.0065 53.0006 40.7094 56.0166 41.2882 58.9264C41.867 61.8361 43.2956 64.5088 45.3934 66.6066C47.4912 68.7044 50.1639 70.133 53.0736 70.7118C55.9834 71.2906 58.9994 70.9935 61.7403 69.8582C64.4811 68.7229 66.8238 66.8003 68.472 64.3336C70.1203 61.8668 71 58.9667 71 56C71 52.0218 69.4197 48.2064 66.6066 45.3934C63.7936 42.5804 59.9783 41 56 41ZM56 66C54.0222 66 52.0888 65.4135 50.4443 64.3147C48.7998 63.2159 47.5181 61.6541 46.7612 59.8268C46.0043 57.9996 45.8063 55.9889 46.1921 54.0491C46.578 52.1093 47.5304 50.3275 48.9289 48.9289C50.3275 47.5304 52.1093 46.578 54.0491 46.1921C55.9889 45.8063 57.9996 46.0043 59.8268 46.7612C61.6541 47.5181 63.2159 48.7998 64.3147 50.4443C65.4135 52.0888 66 54.0222 66 56C66 58.6522 64.9464 61.1957 63.0711 63.0711C61.1957 64.9464 58.6522 66 56 66Z" fill="white"/>
</svg>
